SplineFontDB: 2.0
FontName: DejaVuSans
FullName: DejaVu Sans
FamilyName: DejaVu Sans
Weight: Book
Copyright: Copyright (c) 2003 by Bitstream, Inc. All Rights Reserved.\nCopyright (c) 2006 by Tavmjong Bah. All Rights Reserved.\nDejaVu changes are in public domain\n
Version: 2.17
ItalicAngle: 0
UnderlinePosition: -85
UnderlineWidth: 90
Ascent: 1556
Descent: 492
Order2: 1
NeedsXUIDChange: 1
FSType: 0
OS2Version: 0
OS2_WeightWidthSlopeOnly: 0
OS2_UseTypoMetrics: 0
PfmFamily: 17
TTFWeight: 400
TTFWidth: 5
LineGap: 0
VLineGap: 0
Panose: 2 11 6 3 3 8 4 2 2 4
OS2TypoAscent: 1556
OS2TypoAOffset: 0
OS2TypoDescent: -492
OS2TypoDOffset: 0
OS2TypoLinegap: 410
OS2WinAscent: 1901
OS2WinAOffset: 0
OS2WinDescent: 483
OS2WinDOffset: 0
HheadAscent: 1901
HheadAOffset: 0
HheadDescent: -483
HheadDOffset: 0
OS2Vendor: 'PfEd'
Lookup: 6 1 0 "'ccmp' Glyph Composition/Decomposition lookup 0"  {"'ccmp' Glyph Composition/Decomposition lookup 0"  } ['ccmp' ('arab' <'KUR ' 'SND ' 'URD ' 'dflt' > 'hebr' <'dflt' > 'nko ' <'dflt' > ) ]
Lookup: 6 0 0 "'ccmp' Glyph Composition/Decomposition lookup 1"  {"'ccmp' Glyph Composition/Decomposition lookup 1"  } ['ccmp' ('cyrl' <'MKD ' 'SRB ' 'dflt' > 'grek' <'dflt' > 'latn' <'DNK ' 'dflt' > ) ]
Lookup: 4 1 0 "'ccmp' Glyph Composition/Decomposition in Hebrew lookup 2"  {"'ccmp' Glyph Composition/Decomposition in Hebrew lookup 2"  } ['ccmp' ('hebr' <'dflt' > ) ]
Lookup: 1 0 0 "'locl' Localized Forms in Cyrillic lookup 3"  {"'locl' Localized Forms in Cyrillic lookup 3"  } ['locl' ('cyrl' <'MKD ' 'SRB ' > ) ]
Lookup: 1 0 0 "'locl' Localized Forms in Latin lookup 4"  {"'locl' Localized Forms in Latin lookup 4"  } ['locl' ('latn' <'DNK ' > ) ]
Lookup: 1 9 0 "'fina' Terminal Forms in Arabic lookup 5"  {"'fina' Terminal Forms in Arabic lookup 5"  } ['fina' ('arab' <'KUR ' 'SND ' 'URD ' 'dflt' > ) ]
Lookup: 1 9 0 "'medi' Medial Forms in Arabic lookup 6"  {"'medi' Medial Forms in Arabic lookup 6"  } ['medi' ('arab' <'KUR ' 'SND ' 'URD ' 'dflt' > ) ]

StartChar: .notdef
Encoding: 0 -1 0
AltUni: 0
Width: 1229
Flags: W
Fore
102 -362 m 1,0,-1
 102 1444 l 1,1,-1
 1126 1444 l 1,2,-1
 1126 -362 l 1,3,-1
 102 -362 l 1,0,-1
217 -248 m 1,4,-1
 1012 -248 l 1,5,-1
 1012 1329 l 1,6,-1
 217 1329 l 1,7,-1
 217 -248 l 1,4,-1
EndSplineSet
EndChar
StartChar: exclam
Encoding: 33 33 33
Width: 821
Flags: W
Fore
309 254 m 1,0,-1
 512 254 l 1,1,-1
 512 0 l 1,2,-1
 309 0 l 1,3,-1
 309 254 l 1,0,-1
309 1493 m 1,4,-1
 512 1493 l 1,5,-1
 512 838 l 1,6,-1
 492 481 l 1,7,-1
 330 481 l 1,8,-1
 309 838 l 1,9,-1
 309 1493 l 1,4,-1
EndSplineSet
EndChar
StartChar: quotedbl
Encoding: 34 34 34
Width: 942
Flags: W
Fore
367 1493 m 1,0,-1
 367 938 l 1,1,-1
 197 938 l 1,2,-1
 197 1493 l 1,3,-1
 367 1493 l 1,0,-1
745 1493 m 1,4,-1
 745 938 l 1,5,-1
 575 938 l 1,6,-1
 575 1493 l 1,7,-1
 745 1493 l 1,4,-1
EndSplineSet
EndChar
StartChar: numbersign
Encoding: 35 35 35
Width: 1716
Flags: W
Fore
1047 901 m 1,0,-1
 756 901 l 1,1,-1
 672 567 l 1,2,-1
 965 567 l 1,3,-1
 1047 901 l 1,0,-1
897 1470 m 1,4,-1
 793 1055 l 1,5,-1
 1085 1055 l 1,6,-1
 1190 1470 l 1,7,-1
 1350 1470 l 1,8,-1
 1247 1055 l 1,9,-1
 1559 1055 l 1,10,-1
 1559 901 l 1,11,-1
 1208 901 l 1,12,-1
 1126 567 l 1,13,-1
 1444 567 l 1,14,-1
 1444 414 l 1,15,-1
 1087 414 l 1,16,-1
 983 0 l 1,17,-1
 823 0 l 1,18,-1
 926 414 l 1,19,-1
 633 414 l 1,20,-1
 530 0 l 1,21,-1
 369 0 l 1,22,-1
 473 414 l 1,23,-1
 158 414 l 1,24,-1
 158 567 l 1,25,-1
 510 567 l 1,26,-1
 594 901 l 1,27,-1
 272 901 l 1,28,-1
 272 1055 l 1,29,-1
 633 1055 l 1,30,-1
 735 1470 l 1,31,-1
 897 1470 l 1,4,-1
EndSplineSet
EndChar
StartChar: dollar
Encoding: 36 36 36
Width: 1303
Flags: W
Fore
692 -301 m 1,0,-1
 592 -301 l 1,1,-1
 591 0 l 1,2,3
 486 2 486 2 381 24.5 c 128,-1,4
 276 47 276 47 170 92 c 1,5,-1
 170 272 l 1,6,7
 272 208 272 208 376.5 175.5 c 128,-1,8
 481 143 481 143 592 142 c 1,9,-1
 592 598 l 1,10,11
 371 634 371 634 270.5 720 c 128,-1,12
 170 806 170 806 170 956 c 0,13,14
 170 1119 170 1119 279 1213 c 128,-1,15
 388 1307 388 1307 592 1321 c 1,16,-1
 592 1556 l 1,17,-1
 692 1556 l 1,18,-1
 692 1324 l 1,19,20
 785 1320 785 1320 872 1304.5 c 128,-1,21
 959 1289 959 1289 1042 1262 c 1,22,-1
 1042 1087 l 1,23,24
 959 1129 959 1129 871.5 1152 c 128,-1,25
 784 1175 784 1175 692 1179 c 1,26,-1
 692 752 l 1,27,28
 919 717 919 717 1026 627 c 128,-1,29
 1133 537 1133 537 1133 381 c 0,30,31
 1133 212 1133 212 1019.5 114.5 c 128,-1,32
 906 17 906 17 692 2 c 1,33,-1
 692 -301 l 1,0,-1
592 770 m 1,34,-1
 592 1180 l 1,35,36
 476 1167 476 1167 415 1114 c 128,-1,37
 354 1061 354 1061 354 973 c 0,38,39
 354 887 354 887 410.5 839 c 128,-1,40
 467 791 467 791 592 770 c 1,34,-1
692 578 m 1,41,-1
 692 145 l 1,42,43
 819 162 819 162 883.5 217 c 128,-1,44
 948 272 948 272 948 362 c 0,45,46
 948 450 948 450 886.5 502 c 128,-1,47
 825 554 825 554 692 578 c 1,41,-1
EndSplineSet
EndChar
StartChar: percent
Encoding: 37 37 37
Width: 1946
Flags: W
Fore
1489 657 m 0,0,1
 1402 657 1402 657 1352.5 583 c 128,-1,2
 1303 509 1303 509 1303 377 c 0,3,4
 1303 247 1303 247 1352.5 172.5 c 128,-1,5
 1402 98 1402 98 1489 98 c 0,6,7
 1574 98 1574 98 1623.5 172.5 c 128,-1,8
 1673 247 1673 247 1673 377 c 0,9,10
 1673 508 1673 508 1623.5 582.5 c 128,-1,11
 1574 657 1574 657 1489 657 c 0,0,1
1489 784 m 0,12,13
 1647 784 1647 784 1740 674 c 128,-1,14
 1833 564 1833 564 1833 377 c 0,15,16
 1833 190 1833 190 1739.5 80.5 c 128,-1,17
 1646 -29 1646 -29 1489 -29 c 0,18,19
 1329 -29 1329 -29 1236 80.5 c 128,-1,20
 1143 190 1143 190 1143 377 c 0,21,22
 1143 565 1143 565 1236.5 674.5 c 128,-1,23
 1330 784 1330 784 1489 784 c 0,12,13
457 1393 m 0,24,25
 371 1393 371 1393 321.5 1318.5 c 128,-1,26
 272 1244 272 1244 272 1114 c 0,27,28
 272 982 272 982 321 908 c 128,-1,29
 370 834 370 834 457 834 c 0,30,31
 544 834 544 834 593.5 908 c 128,-1,32
 643 982 643 982 643 1114 c 0,33,34
 643 1243 643 1243 593 1318 c 128,-1,35
 543 1393 543 1393 457 1393 c 0,24,25
1360 1520 m 1,36,-1
 1520 1520 l 1,37,-1
 586 -29 l 1,38,-1
 426 -29 l 1,39,-1
 1360 1520 l 1,36,-1
457 1520 m 0,40,41
 615 1520 615 1520 709 1410.5 c 128,-1,42
 803 1301 803 1301 803 1114 c 0,43,44
 803 925 803 925 709.5 816 c 128,-1,45
 616 707 616 707 457 707 c 0,46,47
 298 707 298 707 205.5 816.5 c 128,-1,48
 113 926 113 926 113 1114 c 0,49,50
 113 1300 113 1300 206 1410 c 128,-1,51
 299 1520 299 1520 457 1520 c 0,40,41
EndSplineSet
EndChar
StartChar: ampersand
Encoding: 38 38 38
Width: 1597
Flags: W
Fore
498 803 m 1,0,1
 407 722 407 722 364.5 641.5 c 128,-1,2
 322 561 322 561 322 473 c 0,3,4
 322 327 322 327 428 230 c 128,-1,5
 534 133 534 133 694 133 c 0,6,7
 789 133 789 133 872 164.5 c 128,-1,8
 955 196 955 196 1028 260 c 1,9,-1
 498 803 l 1,0,1
639 915 m 2,10,-1
 1147 395 l 1,11,12
 1206 484 1206 484 1239 585.5 c 128,-1,13
 1272 687 1272 687 1278 801 c 1,14,-1
 1464 801 l 1,15,16
 1452 669 1452 669 1400 540 c 128,-1,17
 1348 411 1348 411 1255 285 c 1,18,-1
 1534 0 l 1,19,-1
 1282 0 l 1,20,-1
 1139 147 l 1,21,22
 1035 58 1035 58 921 14.5 c 128,-1,23
 807 -29 807 -29 676 -29 c 0,24,25
 435 -29 435 -29 282 108.5 c 128,-1,26
 129 246 129 246 129 461 c 0,27,28
 129 589 129 589 196 701.5 c 128,-1,29
 263 814 263 814 397 913 c 1,30,31
 349 976 349 976 324 1038.5 c 128,-1,32
 299 1101 299 1101 299 1161 c 0,33,34
 299 1323 299 1323 410 1421.5 c 128,-1,35
 521 1520 521 1520 705 1520 c 0,36,37
 788 1520 788 1520 870.5 1502 c 128,-1,38
 953 1484 953 1484 1038 1448 c 1,39,-1
 1038 1266 l 1,40,41
 951 1313 951 1313 872 1337.5 c 128,-1,42
 793 1362 793 1362 725 1362 c 0,43,44
 620 1362 620 1362 554.5 1306.5 c 128,-1,45
 489 1251 489 1251 489 1163 c 0,46,47
 489 1112 489 1112 518.5 1060.5 c 128,-1,48
 548 1009 548 1009 639 915 c 2,10,-1
EndSplineSet
EndChar
StartChar: quotesingle
Encoding: 39 39 39
Width: 563
Flags: W
Fore
367 1493 m 1,0,-1
 367 938 l 1,1,-1
 197 938 l 1,2,-1
 197 1493 l 1,3,-1
 367 1493 l 1,0,-1
EndSplineSet
EndChar
StartChar: parenleft
Encoding: 40 40 40
Width: 799
Flags: W
Fore
635 1554 m 1,0,1
 501 1324 501 1324 436 1099 c 128,-1,2
 371 874 371 874 371 643 c 0,3,4
 371 412 371 412 436.5 185.5 c 128,-1,5
 502 -41 502 -41 635 -270 c 1,6,-1
 475 -270 l 1,7,8
 325 -35 325 -35 250.5 192 c 128,-1,9
 176 419 176 419 176 643 c 0,10,11
 176 866 176 866 250 1092 c 128,-1,12
 324 1318 324 1318 475 1554 c 1,13,-1
 635 1554 l 1,0,1
EndSplineSet
EndChar
StartChar: parenright
Encoding: 41 41 41
Width: 799
Flags: W
Fore
164 1554 m 1,0,-1
 324 1554 l 1,1,2
 474 1318 474 1318 548.5 1092 c 128,-1,3
 623 866 623 866 623 643 c 0,4,5
 623 419 623 419 548.5 192 c 128,-1,6
 474 -35 474 -35 324 -270 c 1,7,-1
 164 -270 l 1,8,9
 297 -41 297 -41 362.5 185.5 c 128,-1,10
 428 412 428 412 428 643 c 0,11,12
 428 874 428 874 362.5 1099 c 128,-1,13
 297 1324 297 1324 164 1554 c 1,0,-1
EndSplineSet
EndChar
StartChar: asterisk
Encoding: 42 42 42
Width: 1024
Flags: W
Fore
963 1247 m 1,0,-1
 604 1053 l 1,1,-1
 963 858 l 1,2,-1
 905 760 l 1,3,-1
 569 963 l 1,4,-1
 569 586 l 1,5,-1
 455 586 l 1,6,-1
 455 963 l 1,7,-1
 119 760 l 1,8,-1
 61 858 l 1,9,-1
 420 1053 l 1,10,-1
 61 1247 l 1,11,-1
 119 1346 l 1,12,-1
 455 1143 l 1,13,-1
 455 1520 l 1,14,-1
 569 1520 l 1,15,-1
 569 1143 l 1,16,-1
 905 1346 l 1,17,-1
 963 1247 l 1,0,-1
EndSplineSet
EndChar
StartChar: plus
Encoding: 43 43 43
Width: 1716
Flags: W
Fore
942 1284 m 1,0,-1
 942 727 l 1,1,-1
 1499 727 l 1,2,-1
 1499 557 l 1,3,-1
 942 557 l 1,4,-1
 942 0 l 1,5,-1
 774 0 l 1,6,-1
 774 557 l 1,7,-1
 217 557 l 1,8,-1
 217 727 l 1,9,-1
 774 727 l 1,10,-1
 774 1284 l 1,11,-1
 942 1284 l 1,0,-1
EndSplineSet
EndChar
StartChar: comma
Encoding: 44 44 44
Width: 651
Flags: W
Fore
240 254 m 1,0,-1
 451 254 l 1,1,-1
 451 82 l 1,2,-1
 287 -238 l 1,3,-1
 158 -238 l 1,4,-1
 240 82 l 1,5,-1
 240 254 l 1,0,-1
EndSplineSet
EndChar
StartChar: hyphen
Encoding: 45 45 45
Width: 739
Flags: W
Fore
100 643 m 1,0,-1
 639 643 l 1,1,-1
 639 479 l 1,2,-1
 100 479 l 1,3,-1
 100 643 l 1,0,-1
EndSplineSet
EndChar
StartChar: period
Encoding: 46 46 46
Width: 651
Flags: W
Fore
219 254 m 1,0,-1
 430 254 l 1,1,-1
 430 0 l 1,2,-1
 219 0 l 1,3,-1
 219 254 l 1,0,-1
EndSplineSet
EndChar
StartChar: slash
Encoding: 47 47 47
Width: 690
Flags: W
Fore
520 1493 m 1,0,-1
 690 1493 l 1,1,-1
 170 -190 l 1,2,-1
 0 -190 l 1,3,-1
 520 1493 l 1,0,-1
EndSplineSet
EndChar
StartChar: zero
Encoding: 48 48 48
Width: 1303
Flags: W
AnchorPoint: "below" 651 0 basechar 0
AnchorPoint: "above" 651 1520 basechar 0
Fore
651 1360 m 0,0,1
 495 1360 495 1360 416.5 1206.5 c 128,-1,2
 338 1053 338 1053 338 745 c 0,3,4
 338 438 338 438 416.5 284.5 c 128,-1,5
 495 131 495 131 651 131 c 0,6,7
 808 131 808 131 886.5 284.5 c 128,-1,8
 965 438 965 438 965 745 c 0,9,10
 965 1053 965 1053 886.5 1206.5 c 128,-1,11
 808 1360 808 1360 651 1360 c 0,0,1
651 1520 m 0,12,13
 902 1520 902 1520 1034.5 1321.5 c 128,-1,14
 1167 1123 1167 1123 1167 745 c 0,15,16
 1167 368 1167 368 1034.5 169.5 c 128,-1,17
 902 -29 902 -29 651 -29 c 0,18,19
 400 -29 400 -29 267.5 169.5 c 128,-1,20
 135 368 135 368 135 745 c 0,21,22
 135 1123 135 1123 267.5 1321.5 c 128,-1,23
 400 1520 400 1520 651 1520 c 0,12,13
EndSplineSet
EndChar
StartChar: one
Encoding: 49 49 49
Width: 1303
Flags: W
AnchorPoint: "below" 651 0 basechar 0
AnchorPoint: "above" 651 1520 basechar 0
Fore
254 170 m 1,0,-1
 584 170 l 1,1,-1
 584 1309 l 1,2,-1
 225 1237 l 1,3,-1
 225 1421 l 1,4,-1
 582 1493 l 1,5,-1
 784 1493 l 1,6,-1
 784 170 l 1,7,-1
 1114 170 l 1,8,-1
 1114 0 l 1,9,-1
 254 0 l 1,10,-1
 254 170 l 1,0,-1
EndSplineSet
EndChar
StartChar: two
Encoding: 50 50 50
Width: 1303
Flags: W
AnchorPoint: "below" 651 0 basechar 0
AnchorPoint: "above" 651 1520 basechar 0
Fore
393 170 m 1,0,-1
 1098 170 l 1,1,-1
 1098 0 l 1,2,-1
 150 0 l 1,3,-1
 150 170 l 1,4,5
 265 289 265 289 463.5 489.5 c 128,-1,6
 662 690 662 690 713 748 c 0,7,8
 810 857 810 857 848.5 932.5 c 128,-1,9
 887 1008 887 1008 887 1081 c 0,10,11
 887 1200 887 1200 803.5 1275 c 128,-1,12
 720 1350 720 1350 586 1350 c 0,13,14
 491 1350 491 1350 385.5 1317 c 128,-1,15
 280 1284 280 1284 160 1217 c 1,16,-1
 160 1421 l 1,17,18
 282 1470 282 1470 388 1495 c 128,-1,19
 494 1520 494 1520 582 1520 c 0,20,21
 814 1520 814 1520 952 1404 c 128,-1,22
 1090 1288 1090 1288 1090 1094 c 0,23,24
 1090 1002 1090 1002 1055.5 919.5 c 128,-1,25
 1021 837 1021 837 930 725 c 1,26,27
 905 696 905 696 771 557.5 c 128,-1,28
 637 419 637 419 393 170 c 1,0,-1
EndSplineSet
EndChar
StartChar: three
Encoding: 51 51 51
Width: 1303
Flags: W
AnchorPoint: "below" 651 0 basechar 0
AnchorPoint: "above" 651 1520 basechar 0
Fore
831 805 m 1,0,1
 976 774 976 774 1057.5 676 c 128,-1,2
 1139 578 1139 578 1139 434 c 0,3,4
 1139 213 1139 213 987 92 c 128,-1,5
 835 -29 835 -29 555 -29 c 0,6,7
 461 -29 461 -29 361.5 -10.5 c 128,-1,8
 262 8 262 8 156 45 c 1,9,-1
 156 240 l 1,10,11
 240 191 240 191 340 166 c 128,-1,12
 440 141 440 141 549 141 c 0,13,14
 739 141 739 141 838.5 216 c 128,-1,15
 938 291 938 291 938 434 c 0,16,17
 938 566 938 566 845.5 640.5 c 128,-1,18
 753 715 753 715 588 715 c 2,19,-1
 414 715 l 1,20,-1
 414 881 l 1,21,-1
 596 881 l 2,22,23
 745 881 745 881 824 940.5 c 128,-1,24
 903 1000 903 1000 903 1112 c 0,25,26
 903 1227 903 1227 821.5 1288.5 c 128,-1,27
 740 1350 740 1350 588 1350 c 0,28,29
 505 1350 505 1350 410 1332 c 128,-1,30
 315 1314 315 1314 201 1276 c 1,31,-1
 201 1456 l 1,32,33
 316 1488 316 1488 416.5 1504 c 128,-1,34
 517 1520 517 1520 606 1520 c 0,35,36
 836 1520 836 1520 970 1415.5 c 128,-1,37
 1104 1311 1104 1311 1104 1133 c 0,38,39
 1104 1009 1104 1009 1033 923.5 c 128,-1,40
 962 838 962 838 831 805 c 1,0,1
EndSplineSet
EndChar
StartChar: four
Encoding: 52 52 52
Width: 1303
Flags: W
AnchorPoint: "below" 651 0 basechar 0
AnchorPoint: "above" 651 1520 basechar 0
Fore
774 1317 m 1,0,-1
 264 520 l 1,1,-1
 774 520 l 1,2,-1
 774 1317 l 1,0,-1
721 1493 m 1,3,-1
 975 1493 l 1,4,-1
 975 520 l 1,5,-1
 1188 520 l 1,6,-1
 1188 352 l 1,7,-1
 975 352 l 1,8,-1
 975 0 l 1,9,-1
 774 0 l 1,10,-1
 774 352 l 1,11,-1
 100 352 l 1,12,-1
 100 547 l 1,13,-1
 721 1493 l 1,3,-1
EndSplineSet
EndChar
StartChar: five
Encoding: 53 53 53
Width: 1303
Flags: W
AnchorPoint: "below" 651 0 basechar 0
AnchorPoint: "above" 651 1520 basechar 0
Fore
221 1493 m 1,0,-1
 1014 1493 l 1,1,-1
 1014 1323 l 1,2,-1
 406 1323 l 1,3,-1
 406 957 l 1,4,5
 450 972 450 972 494 979.5 c 128,-1,6
 538 987 538 987 582 987 c 0,7,8
 832 987 832 987 978 850 c 128,-1,9
 1124 713 1124 713 1124 479 c 0,10,11
 1124 238 1124 238 974 104.5 c 128,-1,12
 824 -29 824 -29 551 -29 c 0,13,14
 457 -29 457 -29 359.5 -13 c 128,-1,15
 262 3 262 3 158 35 c 1,16,-1
 158 238 l 1,17,18
 248 189 248 189 344 165 c 128,-1,19
 440 141 440 141 547 141 c 0,20,21
 720 141 720 141 821 232 c 128,-1,22
 922 323 922 323 922 479 c 0,23,24
 922 635 922 635 821 726 c 128,-1,25
 720 817 720 817 547 817 c 0,26,27
 466 817 466 817 385.5 799 c 128,-1,28
 305 781 305 781 221 743 c 1,29,-1
 221 1493 l 1,0,-1
EndSplineSet
EndChar
StartChar: six
Encoding: 54 54 54
Width: 1303
Flags: W
AnchorPoint: "below" 651 0 basechar 0
AnchorPoint: "above" 651 1520 basechar 0
Fore
676 827 m 0,0,1
 540 827 540 827 460.5 734 c 128,-1,2
 381 641 381 641 381 479 c 0,3,4
 381 318 381 318 460.5 224.5 c 128,-1,5
 540 131 540 131 676 131 c 0,6,7
 812 131 812 131 891.5 224.5 c 128,-1,8
 971 318 971 318 971 479 c 0,9,10
 971 641 971 641 891.5 734 c 128,-1,11
 812 827 812 827 676 827 c 0,0,1
1077 1460 m 1,12,-1
 1077 1276 l 1,13,14
 1001 1312 1001 1312 923.5 1331 c 128,-1,15
 846 1350 846 1350 770 1350 c 0,16,17
 570 1350 570 1350 464.5 1215 c 128,-1,18
 359 1080 359 1080 344 807 c 1,19,20
 403 894 403 894 492 940.5 c 128,-1,21
 581 987 581 987 688 987 c 0,22,23
 913 987 913 987 1043.5 850.5 c 128,-1,24
 1174 714 1174 714 1174 479 c 0,25,26
 1174 249 1174 249 1038 110 c 128,-1,27
 902 -29 902 -29 676 -29 c 0,28,29
 417 -29 417 -29 280 169.5 c 128,-1,30
 143 368 143 368 143 745 c 0,31,32
 143 1099 143 1099 311 1309.5 c 128,-1,33
 479 1520 479 1520 762 1520 c 0,34,35
 838 1520 838 1520 915.5 1505 c 128,-1,36
 993 1490 993 1490 1077 1460 c 1,12,-1
EndSplineSet
EndChar
StartChar: seven
Encoding: 55 55 55
Width: 1303
Flags: W
AnchorPoint: "below" 651 0 basechar 0
AnchorPoint: "above" 651 1520 basechar 0
Fore
168 1493 m 1,0,-1
 1128 1493 l 1,1,-1
 1128 1407 l 1,2,-1
 586 0 l 1,3,-1
 375 0 l 1,4,-1
 885 1323 l 1,5,-1
 168 1323 l 1,6,-1
 168 1493 l 1,0,-1
EndSplineSet
EndChar
StartChar: eight
Encoding: 56 56 56
Width: 1303
Flags: W
AnchorPoint: "below" 651 0 basechar 0
AnchorPoint: "above" 651 1520 basechar 0
Fore
651 709 m 0,0,1
 507 709 507 709 424.5 632 c 128,-1,2
 342 555 342 555 342 420 c 0,3,4
 342 285 342 285 424.5 208 c 128,-1,5
 507 131 507 131 651 131 c 0,6,7
 795 131 795 131 878 208.5 c 128,-1,8
 961 286 961 286 961 420 c 0,9,10
 961 555 961 555 878.5 632 c 128,-1,11
 796 709 796 709 651 709 c 0,0,1
449 795 m 1,12,13
 319 827 319 827 246.5 916 c 128,-1,14
 174 1005 174 1005 174 1133 c 0,15,16
 174 1312 174 1312 301.5 1416 c 128,-1,17
 429 1520 429 1520 651 1520 c 0,18,19
 874 1520 874 1520 1001 1416 c 128,-1,20
 1128 1312 1128 1312 1128 1133 c 0,21,22
 1128 1005 1128 1005 1055.5 916 c 128,-1,23
 983 827 983 827 854 795 c 1,24,25
 1000 761 1000 761 1081.5 662 c 128,-1,26
 1163 563 1163 563 1163 420 c 0,27,28
 1163 203 1163 203 1030.5 87 c 128,-1,29
 898 -29 898 -29 651 -29 c 0,30,31
 404 -29 404 -29 271.5 87 c 128,-1,32
 139 203 139 203 139 420 c 0,33,34
 139 563 139 563 221 662 c 128,-1,35
 303 761 303 761 449 795 c 1,12,13
375 1114 m 0,36,37
 375 998 375 998 447.5 933 c 128,-1,38
 520 868 520 868 651 868 c 0,39,40
 781 868 781 868 854.5 933 c 128,-1,41
 928 998 928 998 928 1114 c 0,42,43
 928 1230 928 1230 854.5 1295 c 128,-1,44
 781 1360 781 1360 651 1360 c 0,45,46
 520 1360 520 1360 447.5 1295 c 128,-1,47
 375 1230 375 1230 375 1114 c 0,36,37
EndSplineSet
EndChar
StartChar: nine
Encoding: 57 57 57
Width: 1303
Flags: W
AnchorPoint: "below" 651 0 basechar 0
AnchorPoint: "above" 651 1520 basechar 0
Fore
225 31 m 1,0,-1
 225 215 l 1,1,2
 301 179 301 179 379 160 c 128,-1,3
 457 141 457 141 532 141 c 0,4,5
 732 141 732 141 837.5 275.5 c 128,-1,6
 943 410 943 410 958 684 c 1,7,8
 900 598 900 598 811 552 c 128,-1,9
 722 506 722 506 614 506 c 0,10,11
 390 506 390 506 259.5 641.5 c 128,-1,12
 129 777 129 777 129 1012 c 0,13,14
 129 1242 129 1242 265 1381 c 128,-1,15
 401 1520 401 1520 627 1520 c 0,16,17
 886 1520 886 1520 1022.5 1321.5 c 128,-1,18
 1159 1123 1159 1123 1159 745 c 0,19,20
 1159 392 1159 392 991.5 181.5 c 128,-1,21
 824 -29 824 -29 541 -29 c 0,22,23
 465 -29 465 -29 387 -14 c 128,-1,24
 309 1 309 1 225 31 c 1,0,-1
627 664 m 0,25,26
 763 664 763 664 842.5 757 c 128,-1,27
 922 850 922 850 922 1012 c 0,28,29
 922 1173 922 1173 842.5 1266.5 c 128,-1,30
 763 1360 763 1360 627 1360 c 0,31,32
 491 1360 491 1360 411.5 1266.5 c 128,-1,33
 332 1173 332 1173 332 1012 c 0,34,35
 332 850 332 850 411.5 757 c 128,-1,36
 491 664 491 664 627 664 c 0,25,26
EndSplineSet
EndChar
StartChar: colon
Encoding: 58 58 58
Width: 690
Flags: W
Fore
240 254 m 1,0,-1
 451 254 l 1,1,-1
 451 0 l 1,2,-1
 240 0 l 1,3,-1
 240 254 l 1,0,-1
240 1059 m 1,4,-1
 451 1059 l 1,5,-1
 451 805 l 1,6,-1
 240 805 l 1,7,-1
 240 1059 l 1,4,-1
EndSplineSet
EndChar
StartChar: semicolon
Encoding: 59 59 59
Width: 690
Flags: W
Fore
240 1059 m 1,0,-1
 451 1059 l 1,1,-1
 451 805 l 1,2,-1
 240 805 l 1,3,-1
 240 1059 l 1,0,-1
240 254 m 1,4,-1
 451 254 l 1,5,-1
 451 82 l 1,6,-1
 287 -238 l 1,7,-1
 158 -238 l 1,8,-1
 240 82 l 1,9,-1
 240 254 l 1,4,-1
EndSplineSet
EndChar
StartChar: less
Encoding: 60 60 60
Width: 1716
Flags: W
Fore
1499 1008 m 1,0,-1
 467 641 l 1,1,-1
 1499 276 l 1,2,-1
 1499 94 l 1,3,-1
 217 559 l 1,4,-1
 217 725 l 1,5,-1
 1499 1190 l 1,6,-1
 1499 1008 l 1,0,-1
EndSplineSet
EndChar
StartChar: equal
Encoding: 61 61 61
Width: 1716
Flags: W
Fore
217 930 m 1,0,-1
 1499 930 l 1,1,-1
 1499 762 l 1,2,-1
 217 762 l 1,3,-1
 217 930 l 1,0,-1
217 522 m 1,4,-1
 1499 522 l 1,5,-1
 1499 352 l 1,6,-1
 217 352 l 1,7,-1
 217 522 l 1,4,-1
EndSplineSet
EndChar
StartChar: greater
Encoding: 62 62 62
Width: 1716
Flags: W
Fore
217 1008 m 1,0,-1
 217 1190 l 1,1,-1
 1499 725 l 1,2,-1
 1499 559 l 1,3,-1
 217 94 l 1,4,-1
 217 276 l 1,5,-1
 1247 641 l 1,6,-1
 217 1008 l 1,0,-1
EndSplineSet
EndChar
StartChar: question
Encoding: 63 63 63
Width: 1087
Flags: W
Fore
391 254 m 1,0,-1
 594 254 l 1,1,-1
 594 0 l 1,2,-1
 391 0 l 1,3,-1
 391 254 l 1,0,-1
588 401 m 1,4,-1
 397 401 l 1,5,-1
 397 555 l 2,6,7
 397 656 397 656 425 721 c 128,-1,8
 453 786 453 786 543 872 c 1,9,-1
 633 961 l 1,10,11
 690 1014 690 1014 715.5 1061 c 128,-1,12
 741 1108 741 1108 741 1157 c 0,13,14
 741 1246 741 1246 675.5 1301 c 128,-1,15
 610 1356 610 1356 502 1356 c 0,16,17
 423 1356 423 1356 333.5 1321 c 128,-1,18
 244 1286 244 1286 147 1219 c 1,19,-1
 147 1407 l 1,20,21
 241 1464 241 1464 337.5 1492 c 128,-1,22
 434 1520 434 1520 537 1520 c 0,23,24
 721 1520 721 1520 832.5 1423 c 128,-1,25
 944 1326 944 1326 944 1167 c 0,26,27
 944 1091 944 1091 908 1022.5 c 128,-1,28
 872 954 872 954 782 868 c 2,29,-1
 694 782 l 2,30,31
 647 735 647 735 627.5 708.5 c 128,-1,32
 608 682 608 682 600 657 c 0,33,34
 594 636 594 636 591 606 c 128,-1,35
 588 576 588 576 588 524 c 2,36,-1
 588 401 l 1,4,-1
EndSplineSet
EndChar
StartChar: at
Encoding: 64 64 64
Width: 2048
Flags: W
Fore
762 537 m 0,0,1
 762 394 762 394 833 312.5 c 128,-1,2
 904 231 904 231 1028 231 c 0,3,4
 1151 231 1151 231 1221.5 313 c 128,-1,5
 1292 395 1292 395 1292 537 c 0,6,7
 1292 677 1292 677 1220 759.5 c 128,-1,8
 1148 842 1148 842 1026 842 c 0,9,10
 905 842 905 842 833.5 760 c 128,-1,11
 762 678 762 678 762 537 c 0,0,1
1307 238 m 1,12,13
 1247 161 1247 161 1169.5 124.5 c 128,-1,14
 1092 88 1092 88 989 88 c 0,15,16
 817 88 817 88 709.5 212.5 c 128,-1,17
 602 337 602 337 602 537 c 0,18,19
 602 737 602 737 710 862 c 128,-1,20
 818 987 818 987 989 987 c 0,21,22
 1092 987 1092 987 1170 949.5 c 128,-1,23
 1248 912 1248 912 1307 836 c 1,24,-1
 1307 967 l 1,25,-1
 1450 967 l 1,26,-1
 1450 231 l 1,27,28
 1596 253 1596 253 1678.5 364.5 c 128,-1,29
 1761 476 1761 476 1761 653 c 0,30,31
 1761 760 1761 760 1729.5 854 c 128,-1,32
 1698 948 1698 948 1634 1028 c 0,33,34
 1530 1159 1530 1159 1380.5 1228.5 c 128,-1,35
 1231 1298 1231 1298 1055 1298 c 0,36,37
 932 1298 932 1298 819 1265.5 c 128,-1,38
 706 1233 706 1233 610 1169 c 1,39,40
 453 1067 453 1067 364.5 901.5 c 128,-1,41
 276 736 276 736 276 543 c 0,42,43
 276 384 276 384 333.5 245 c 128,-1,44
 391 106 391 106 500 0 c 0,45,46
 605 -104 605 -104 743 -158.5 c 128,-1,47
 881 -213 881 -213 1038 -213 c 0,48,49
 1167 -213 1167 -213 1291.5 -169.5 c 128,-1,50
 1416 -126 1416 -126 1520 -45 c 1,51,-1
 1610 -156 l 1,52,53
 1485 -253 1485 -253 1337.5 -304.5 c 128,-1,54
 1190 -356 1190 -356 1038 -356 c 0,55,56
 853 -356 853 -356 689 -290.5 c 128,-1,57
 525 -225 525 -225 397 -100 c 0,58,59
 269 25 269 25 202 189.5 c 128,-1,60
 135 354 135 354 135 543 c 0,61,62
 135 725 135 725 203 890 c 128,-1,63
 271 1055 271 1055 397 1180 c 0,64,65
 526 1307 526 1307 695 1374.5 c 128,-1,66
 864 1442 864 1442 1053 1442 c 0,67,68
 1265 1442 1265 1442 1446.5 1355 c 128,-1,69
 1628 1268 1628 1268 1751 1108 c 0,70,71
 1826 1010 1826 1010 1865.5 895 c 128,-1,72
 1905 780 1905 780 1905 657 c 0,73,74
 1905 394 1905 394 1746 242 c 128,-1,75
 1587 90 1587 90 1307 84 c 1,76,-1
 1307 238 l 1,12,13
EndSplineSet
EndChar
StartChar: A
Encoding: 65 65 65
Width: 1401
Flags: W
AnchorPoint: "below" 700 0 basechar 0
AnchorPoint: "above" 700 1520 basechar 0
Fore
700 1294 m 1,0,-1
 426 551 l 1,1,-1
 975 551 l 1,2,-1
 700 1294 l 1,0,-1
586 1493 m 1,3,-1
 815 1493 l 1,4,-1
 1384 0 l 1,5,-1
 1174 0 l 1,6,-1
 1038 383 l 1,7,-1
 365 383 l 1,8,-1
 229 0 l 1,9,-1
 16 0 l 1,10,-1
 586 1493 l 1,3,-1
EndSplineSet
EndChar
StartChar: B
Encoding: 66 66 66
Width: 1405
Flags: W
AnchorPoint: "below" 700 0 basechar 0
AnchorPoint: "above" 700 1520 basechar 0
Fore
403 713 m 1,0,-1
 403 166 l 1,1,-1
 727 166 l 2,2,3
 890 166 890 166 968.5 233.5 c 128,-1,4
 1047 301 1047 301 1047 440 c 0,5,6
 1047 580 1047 580 968.5 646.5 c 128,-1,7
 890 713 890 713 727 713 c 2,8,-1
 403 713 l 1,0,-1
403 1327 m 1,9,-1
 403 877 l 1,10,-1
 702 877 l 2,11,12
 850 877 850 877 922.5 932.5 c 128,-1,13
 995 988 995 988 995 1102 c 0,14,15
 995 1215 995 1215 922.5 1271 c 128,-1,16
 850 1327 850 1327 702 1327 c 2,17,-1
 403 1327 l 1,9,-1
201 1493 m 1,18,-1
 717 1493 l 2,19,20
 948 1493 948 1493 1073 1397 c 128,-1,21
 1198 1301 1198 1301 1198 1124 c 0,22,23
 1198 987 1198 987 1134 906 c 128,-1,24
 1070 825 1070 825 946 805 c 1,25,26
 1095 773 1095 773 1177.5 671.5 c 128,-1,27
 1260 570 1260 570 1260 418 c 0,28,29
 1260 218 1260 218 1124 109 c 128,-1,30
 988 0 988 0 737 0 c 2,31,-1
 201 0 l 1,32,-1
 201 1493 l 1,18,-1
EndSplineSet
EndChar
StartChar: C
Encoding: 67 67 67
Width: 1430
Flags: W
AnchorPoint: "below" 844 0 basechar 0
AnchorPoint: "above" 844 1520 basechar 0
Fore
1319 1378 m 1,0,-1
 1319 1165 l 1,1,2
 1217 1260 1217 1260 1101.5 1307 c 128,-1,3
 986 1354 986 1354 856 1354 c 0,4,5
 600 1354 600 1354 464 1197.5 c 128,-1,6
 328 1041 328 1041 328 745 c 0,7,8
 328 450 328 450 464 293.5 c 128,-1,9
 600 137 600 137 856 137 c 0,10,11
 986 137 986 137 1101.5 184 c 128,-1,12
 1217 231 1217 231 1319 326 c 1,13,-1
 1319 115 l 1,14,15
 1213 43 1213 43 1094.5 7 c 128,-1,16
 976 -29 976 -29 844 -29 c 0,17,18
 505 -29 505 -29 310 178.5 c 128,-1,19
 115 386 115 386 115 745 c 0,20,21
 115 1105 115 1105 310 1312.5 c 128,-1,22
 505 1520 505 1520 844 1520 c 0,23,24
 978 1520 978 1520 1096.5 1484.5 c 128,-1,25
 1215 1449 1215 1449 1319 1378 c 1,0,-1
EndSplineSet
EndChar
StartChar: D
Encoding: 68 68 68
Width: 1577
Flags: W
AnchorPoint: "below" 748 0 basechar 0
AnchorPoint: "above" 748 1520 basechar 0
Fore
403 1327 m 1,0,-1
 403 166 l 1,1,-1
 647 166 l 2,2,3
 956 166 956 166 1099.5 306 c 128,-1,4
 1243 446 1243 446 1243 748 c 0,5,6
 1243 1048 1243 1048 1099.5 1187.5 c 128,-1,7
 956 1327 956 1327 647 1327 c 2,8,-1
 403 1327 l 1,0,-1
201 1493 m 1,9,-1
 616 1493 l 2,10,11
 1050 1493 1050 1493 1253 1312.5 c 128,-1,12
 1456 1132 1456 1132 1456 748 c 0,13,14
 1456 362 1456 362 1252 181 c 128,-1,15
 1048 0 1048 0 616 0 c 2,16,-1
 201 0 l 1,17,-1
 201 1493 l 1,9,-1
EndSplineSet
EndChar
StartChar: E
Encoding: 69 69 69
Width: 1294
Flags: W
AnchorPoint: "below" 670 0 basechar 0
AnchorPoint: "above" 670 1520 basechar 0
Fore
201 1493 m 1,0,-1
 1145 1493 l 1,1,-1
 1145 1323 l 1,2,-1
 403 1323 l 1,3,-1
 403 881 l 1,4,-1
 1114 881 l 1,5,-1
 1114 711 l 1,6,-1
 403 711 l 1,7,-1
 403 170 l 1,8,-1
 1163 170 l 1,9,-1
 1163 0 l 1,10,-1
 201 0 l 1,11,-1
 201 1493 l 1,0,-1
EndSplineSet
EndChar
StartChar: F
Encoding: 70 70 70
Width: 1178
Flags: W
AnchorPoint: "below" 670 0 basechar 0
AnchorPoint: "above" 670 1520 basechar 0
Fore
201 1493 m 1,0,-1
 1059 1493 l 1,1,-1
 1059 1323 l 1,2,-1
 403 1323 l 1,3,-1
 403 883 l 1,4,-1
 995 883 l 1,5,-1
 995 713 l 1,6,-1
 403 713 l 1,7,-1
 403 0 l 1,8,-1
 201 0 l 1,9,-1
 201 1493 l 1,0,-1
EndSplineSet
EndChar
StartChar: G
Encoding: 71 71 71
Width: 1587
Flags: W
AnchorPoint: "below" 860 0 basechar 0
AnchorPoint: "above" 860 1520 basechar 0
Fore
1219 213 m 1,0,-1
 1219 614 l 1,1,-1
 889 614 l 1,2,-1
 889 780 l 1,3,-1
 1419 780 l 1,4,-1
 1419 139 l 1,5,6
 1302 56 1302 56 1161 13.5 c 128,-1,7
 1020 -29 1020 -29 860 -29 c 0,8,9
 510 -29 510 -29 312.5 175.5 c 128,-1,10
 115 380 115 380 115 745 c 0,11,12
 115 1111 115 1111 312.5 1315.5 c 128,-1,13
 510 1520 510 1520 860 1520 c 0,14,15
 1006 1520 1006 1520 1137.5 1484 c 128,-1,16
 1269 1448 1269 1448 1380 1378 c 1,17,-1
 1380 1163 l 1,18,19
 1268 1258 1268 1258 1142 1306 c 128,-1,20
 1016 1354 1016 1354 877 1354 c 0,21,22
 603 1354 603 1354 465.5 1201 c 128,-1,23
 328 1048 328 1048 328 745 c 0,24,25
 328 443 328 443 465.5 290 c 128,-1,26
 603 137 603 137 877 137 c 0,27,28
 984 137 984 137 1068 155.5 c 128,-1,29
 1152 174 1152 174 1219 213 c 1,0,-1
EndSplineSet
EndChar
StartChar: H
Encoding: 72 72 72
Width: 1540
Flags: W
AnchorPoint: "below" 770 0 basechar 0
AnchorPoint: "above" 770 1520 basechar 0
Fore
201 1493 m 1,0,-1
 403 1493 l 1,1,-1
 403 881 l 1,2,-1
 1137 881 l 1,3,-1
 1137 1493 l 1,4,-1
 1339 1493 l 1,5,-1
 1339 0 l 1,6,-1
 1137 0 l 1,7,-1
 1137 711 l 1,8,-1
 403 711 l 1,9,-1
 403 0 l 1,10,-1
 201 0 l 1,11,-1
 201 1493 l 1,0,-1
EndSplineSet
EndChar
StartChar: I
Encoding: 73 73 73
Width: 604
Flags: W
AnchorPoint: "below" 303 0 basechar 0
AnchorPoint: "above" 303 1520 basechar 0
Fore
201 1493 m 1,0,-1
 403 1493 l 1,1,-1
 403 0 l 1,2,-1
 201 0 l 1,3,-1
 201 1493 l 1,0,-1
EndSplineSet
AlternateSubs2: "'aalt' Access All Alternates in Latin lookup 29" I.alt
Substitution2: "'salt' Stylistic Alternatives in Latin lookup 28" I.alt
EndChar
StartChar: J
Encoding: 74 74 74
Width: 604
Flags: W
AnchorPoint: "below" 302 -430 basechar 0
AnchorPoint: "above" 302 1520 basechar 0
Fore
201 1493 m 1,0,-1
 403 1493 l 1,1,-1
 403 104 l 2,2,3
 403 -166 403 -166 300.5 -288 c 128,-1,4
 198 -410 198 -410 -29 -410 c 2,5,-1
 -106 -410 l 1,6,-1
 -106 -240 l 1,7,-1
 -43 -240 l 2,8,9
 91 -240 91 -240 146 -165 c 128,-1,10
 201 -90 201 -90 201 104 c 2,11,-1
 201 1493 l 1,0,-1
EndSplineSet
AlternateSubs2: "'aalt' Access All Alternates in Latin lookup 29" J.alt
Substitution2: "'salt' Stylistic Alternatives in Latin lookup 28" J.alt
EndChar
StartChar: K
Encoding: 75 75 75
Width: 1343
Flags: W
AnchorPoint: "below" 670 0 basechar 0
AnchorPoint: "above" 670 1520 basechar 0
Fore
201 1493 m 1,0,-1
 403 1493 l 1,1,-1
 403 862 l 1,2,-1
 1073 1493 l 1,3,-1
 1333 1493 l 1,4,-1
 592 797 l 1,5,-1
 1386 0 l 1,6,-1
 1120 0 l 1,7,-1
 403 719 l 1,8,-1
 403 0 l 1,9,-1
 201 0 l 1,10,-1
 201 1493 l 1,0,-1
EndSplineSet
EndChar
StartChar: L
Encoding: 76 76 76
Width: 1141
Flags: W
AnchorPoint: "below" 665 0 basechar 0
AnchorPoint: "above" 298 1520 basechar 0
Fore
201 1493 m 1,0,-1
 403 1493 l 1,1,-1
 403 170 l 1,2,-1
 1130 170 l 1,3,-1
 1130 0 l 1,4,-1
 201 0 l 1,5,-1
 201 1493 l 1,0,-1
EndSplineSet
EndChar
StartChar: M
Encoding: 77 77 77
Width: 1767
Flags: W
AnchorPoint: "below" 883 0 basechar 0
AnchorPoint: "above" 883 1520 basechar 0
Fore
201 1493 m 1,0,-1
 502 1493 l 1,1,-1
 883 477 l 1,2,-1
 1266 1493 l 1,3,-1
 1567 1493 l 1,4,-1
 1567 0 l 1,5,-1
 1370 0 l 1,6,-1
 1370 1311 l 1,7,-1
 985 287 l 1,8,-1
 782 287 l 1,9,-1
 397 1311 l 1,10,-1
 397 0 l 1,11,-1
 201 0 l 1,12,-1
 201 1493 l 1,0,-1
EndSplineSet
EndChar
StartChar: N
Encoding: 78 78 78
Width: 1532
Flags: W
AnchorPoint: "below" 757 0 basechar 0
AnchorPoint: "above" 757 1520 basechar 0
Fore
201 1493 m 1,0,-1
 473 1493 l 1,1,-1
 1135 244 l 1,2,-1
 1135 1493 l 1,3,-1
 1331 1493 l 1,4,-1
 1331 0 l 1,5,-1
 1059 0 l 1,6,-1
 397 1249 l 1,7,-1
 397 0 l 1,8,-1
 201 0 l 1,9,-1
 201 1493 l 1,0,-1
EndSplineSet
EndChar
StartChar: O
Encoding: 79 79 79
Width: 1612
Flags: W
AnchorPoint: "below" 807 0 basechar 0
AnchorPoint: "above" 807 1520 basechar 0
Fore
807 1356 m 0,0,1
 587 1356 587 1356 457.5 1192 c 128,-1,2
 328 1028 328 1028 328 745 c 0,3,4
 328 463 328 463 457.5 299 c 128,-1,5
 587 135 587 135 807 135 c 0,6,7
 1027 135 1027 135 1155.5 299 c 128,-1,8
 1284 463 1284 463 1284 745 c 0,9,10
 1284 1028 1284 1028 1155.5 1192 c 128,-1,11
 1027 1356 1027 1356 807 1356 c 0,0,1
807 1520 m 0,12,13
 1121 1520 1121 1520 1309 1309.5 c 128,-1,14
 1497 1099 1497 1099 1497 745 c 0,15,16
 1497 392 1497 392 1309 181.5 c 128,-1,17
 1121 -29 1121 -29 807 -29 c 0,18,19
 492 -29 492 -29 303.5 181 c 128,-1,20
 115 391 115 391 115 745 c 0,21,22
 115 1099 115 1099 303.5 1309.5 c 128,-1,23
 492 1520 492 1520 807 1520 c 0,12,13
EndSplineSet
EndChar
StartChar: P
Encoding: 80 80 80
Width: 1235
Flags: W
AnchorPoint: "below" 670 0 basechar 0
AnchorPoint: "above" 670 1520 basechar 0
Fore
403 1327 m 1,0,-1
 403 766 l 1,1,-1
 657 766 l 2,2,3
 798 766 798 766 875 839 c 128,-1,4
 952 912 952 912 952 1047 c 0,5,6
 952 1181 952 1181 875 1254 c 128,-1,7
 798 1327 798 1327 657 1327 c 2,8,-1
 403 1327 l 1,0,-1
201 1493 m 1,9,-1
 657 1493 l 2,10,11
 908 1493 908 1493 1036.5 1379.5 c 128,-1,12
 1165 1266 1165 1266 1165 1047 c 0,13,14
 1165 826 1165 826 1036.5 713 c 128,-1,15
 908 600 908 600 657 600 c 2,16,-1
 403 600 l 1,17,-1
 403 0 l 1,18,-1
 201 0 l 1,19,-1
 201 1493 l 1,9,-1
EndSplineSet
EndChar
StartChar: Q
Encoding: 81 81 81
Width: 1612
Flags: W
AnchorPoint: "below" 807 0 basechar 0
AnchorPoint: "above" 807 1520 basechar 0
Fore
807 1356 m 0,0,1
 587 1356 587 1356 457.5 1192 c 128,-1,2
 328 1028 328 1028 328 745 c 0,3,4
 328 463 328 463 457.5 299 c 128,-1,5
 587 135 587 135 807 135 c 0,6,7
 1027 135 1027 135 1155.5 299 c 128,-1,8
 1284 463 1284 463 1284 745 c 0,9,10
 1284 1028 1284 1028 1155.5 1192 c 128,-1,11
 1027 1356 1027 1356 807 1356 c 0,0,1
1090 27 m 1,12,-1
 1356 -264 l 1,13,-1
 1112 -264 l 1,14,-1
 891 -25 l 1,15,16
 858 -27 858 -27 840.5 -28 c 128,-1,17
 823 -29 823 -29 807 -29 c 0,18,19
 492 -29 492 -29 303.5 181.5 c 128,-1,20
 115 392 115 392 115 745 c 0,21,22
 115 1099 115 1099 303.5 1309.5 c 128,-1,23
 492 1520 492 1520 807 1520 c 0,24,25
 1121 1520 1121 1520 1309 1309.5 c 128,-1,26
 1497 1099 1497 1099 1497 745 c 0,27,28
 1497 485 1497 485 1392.5 300 c 128,-1,29
 1288 115 1288 115 1090 27 c 1,12,-1
EndSplineSet
EndChar
StartChar: R
Encoding: 82 82 82
Width: 1423
Flags: W
AnchorPoint: "below" 637 0 basechar 0
AnchorPoint: "above" 637 1520 basechar 0
Fore
909 700 m 1,0,1
 974 678 974 678 1035.5 606 c 128,-1,2
 1097 534 1097 534 1159 408 c 1,3,-1
 1364 0 l 1,4,-1
 1147 0 l 1,5,-1
 956 383 l 1,6,7
 882 533 882 533 812.5 582 c 128,-1,8
 743 631 743 631 623 631 c 2,9,-1
 403 631 l 1,10,-1
 403 0 l 1,11,-1
 201 0 l 1,12,-1
 201 1493 l 1,13,-1
 657 1493 l 2,14,15
 913 1493 913 1493 1039 1386 c 128,-1,16
 1165 1279 1165 1279 1165 1063 c 0,17,18
 1165 922 1165 922 1099.5 829 c 128,-1,19
 1034 736 1034 736 909 700 c 1,0,1
403 1327 m 1,20,-1
 403 797 l 1,21,-1
 657 797 l 2,22,23
 803 797 803 797 877.5 864.5 c 128,-1,24
 952 932 952 932 952 1063 c 0,25,26
 952 1194 952 1194 877.5 1260.5 c 128,-1,27
 803 1327 803 1327 657 1327 c 2,28,-1
 403 1327 l 1,20,-1
EndSplineSet
EndChar
StartChar: S
Encoding: 83 83 83
Width: 1300
Flags: W
AnchorPoint: "below" 659 0 basechar 0
AnchorPoint: "above" 659 1520 basechar 0
Fore
1096 1444 m 1,0,-1
 1096 1247 l 1,1,2
 981 1302 981 1302 879 1329 c 128,-1,3
 777 1356 777 1356 682 1356 c 0,4,5
 517 1356 517 1356 427.5 1292 c 128,-1,6
 338 1228 338 1228 338 1110 c 0,7,8
 338 1011 338 1011 397.5 960.5 c 128,-1,9
 457 910 457 910 623 879 c 1,10,-1
 745 854 l 1,11,12
 971 811 971 811 1078.5 702.5 c 128,-1,13
 1186 594 1186 594 1186 412 c 0,14,15
 1186 195 1186 195 1040.5 83 c 128,-1,16
 895 -29 895 -29 614 -29 c 0,17,18
 508 -29 508 -29 388.5 -5 c 128,-1,19
 269 19 269 19 141 66 c 1,20,-1
 141 274 l 1,21,22
 264 205 264 205 382 170 c 128,-1,23
 500 135 500 135 614 135 c 0,24,25
 787 135 787 135 881 203 c 128,-1,26
 975 271 975 271 975 397 c 0,27,28
 975 507 975 507 907.5 569 c 128,-1,29
 840 631 840 631 686 662 c 2,30,-1
 563 686 l 2,31,32
 337 731 337 731 236 827 c 128,-1,33
 135 923 135 923 135 1094 c 0,34,35
 135 1292 135 1292 274.5 1406 c 128,-1,36
 414 1520 414 1520 659 1520 c 0,37,38
 764 1520 764 1520 873 1501 c 128,-1,39
 982 1482 982 1482 1096 1444 c 1,0,-1
EndSplineSet
EndChar
StartChar: T
Encoding: 84 84 84
Width: 1251
Flags: W
AnchorPoint: "below" 627 0 basechar 0
AnchorPoint: "above" 627 1520 basechar 0
Fore
-6 1493 m 1,0,-1
 1257 1493 l 1,1,-1
 1257 1323 l 1,2,-1
 727 1323 l 1,3,-1
 727 0 l 1,4,-1
 524 0 l 1,5,-1
 524 1323 l 1,6,-1
 -6 1323 l 1,7,-1
 -6 1493 l 1,0,-1
EndSplineSet
EndChar
StartChar: U
Encoding: 85 85 85
Width: 1499
Flags: W
AnchorPoint: "below" 750 0 basechar 0
AnchorPoint: "above" 750 1520 basechar 0
Fore
178 1493 m 1,0,-1
 381 1493 l 1,1,-1
 381 586 l 2,2,3
 381 346 381 346 468 240.5 c 128,-1,4
 555 135 555 135 750 135 c 0,5,6
 944 135 944 135 1031 240.5 c 128,-1,7
 1118 346 1118 346 1118 586 c 2,8,-1
 1118 1493 l 1,9,-1
 1321 1493 l 1,10,-1
 1321 561 l 2,11,12
 1321 269 1321 269 1176.5 120 c 128,-1,13
 1032 -29 1032 -29 750 -29 c 0,14,15
 467 -29 467 -29 322.5 120 c 128,-1,16
 178 269 178 269 178 561 c 2,17,-1
 178 1493 l 1,0,-1
EndSplineSet
EndChar
StartChar: V
Encoding: 86 86 86
Width: 1401
Flags: W
AnchorPoint: "below" 700 0 basechar 0
AnchorPoint: "above" 700 1520 basechar 0
Fore
586 0 m 1,0,-1
 16 1493 l 1,1,-1
 227 1493 l 1,2,-1
 700 236 l 1,3,-1
 1174 1493 l 1,4,-1
 1384 1493 l 1,5,-1
 815 0 l 1,6,-1
 586 0 l 1,0,-1
EndSplineSet
EndChar
StartChar: W
Encoding: 87 87 87
Width: 2025
Flags: W
AnchorPoint: "below" 1013 0 basechar 0
AnchorPoint: "above" 1013 1520 basechar 0
Fore
68 1493 m 1,0,-1
 272 1493 l 1,1,-1
 586 231 l 1,2,-1
 899 1493 l 1,3,-1
 1126 1493 l 1,4,-1
 1440 231 l 1,5,-1
 1753 1493 l 1,6,-1
 1958 1493 l 1,7,-1
 1583 0 l 1,8,-1
 1329 0 l 1,9,-1
 1014 1296 l 1,10,-1
 696 0 l 1,11,-1
 442 0 l 1,12,-1
 68 1493 l 1,0,-1
EndSplineSet
EndChar
StartChar: X
Encoding: 88 88 88
Width: 1403
Flags: W
AnchorPoint: "below" 717 0 basechar 0
AnchorPoint: "above" 717 1520 basechar 0
Fore
129 1493 m 1,0,-1
 346 1493 l 1,1,-1
 717 938 l 1,2,-1
 1090 1493 l 1,3,-1
 1307 1493 l 1,4,-1
 827 776 l 1,5,-1
 1339 0 l 1,6,-1
 1122 0 l 1,7,-1
 702 635 l 1,8,-1
 279 0 l 1,9,-1
 61 0 l 1,10,-1
 594 797 l 1,11,-1
 129 1493 l 1,0,-1
EndSplineSet
EndChar
StartChar: Y
Encoding: 89 89 89
Width: 1251
Flags: W
AnchorPoint: "below" 626 0 basechar 0
AnchorPoint: "above" 626 1520 basechar 0
Fore
-4 1493 m 1,0,-1
 213 1493 l 1,1,-1
 627 879 l 1,2,-1
 1038 1493 l 1,3,-1
 1255 1493 l 1,4,-1
 727 711 l 1,5,-1
 727 0 l 1,6,-1
 524 0 l 1,7,-1
 524 711 l 1,8,-1
 -4 1493 l 1,0,-1
EndSplineSet
EndChar
StartChar: Z
Encoding: 90 90 90
Width: 1403
Flags: W
AnchorPoint: "below" 702 0 basechar 0
AnchorPoint: "above" 702 1520 basechar 0
Fore
115 1493 m 1,0,-1
 1288 1493 l 1,1,-1
 1288 1339 l 1,2,-1
 344 170 l 1,3,-1
 1311 170 l 1,4,-1
 1311 0 l 1,5,-1
 92 0 l 1,6,-1
 92 154 l 1,7,-1
 1036 1323 l 1,8,-1
 115 1323 l 1,9,-1
 115 1493 l 1,0,-1
EndSplineSet
EndChar
StartChar: bracketleft
Encoding: 91 91 91
Width: 799
Flags: W
Fore
176 1556 m 1,0,-1
 600 1556 l 1,1,-1
 600 1413 l 1,2,-1
 360 1413 l 1,3,-1
 360 -127 l 1,4,-1
 600 -127 l 1,5,-1
 600 -270 l 1,6,-1
 176 -270 l 1,7,-1
 176 1556 l 1,0,-1
EndSplineSet
EndChar
StartChar: backslash
Encoding: 92 92 92
Width: 690
Flags: W
Fore
170 1493 m 1,0,-1
 690 -190 l 1,1,-1
 520 -190 l 1,2,-1
 0 1493 l 1,3,-1
 170 1493 l 1,0,-1
EndSplineSet
EndChar
StartChar: bracketright
Encoding: 93 93 93
Width: 799
Flags: W
Fore
623 1556 m 1,0,-1
 623 -270 l 1,1,-1
 199 -270 l 1,2,-1
 199 -127 l 1,3,-1
 438 -127 l 1,4,-1
 438 1413 l 1,5,-1
 199 1413 l 1,6,-1
 199 1556 l 1,7,-1
 623 1556 l 1,0,-1
EndSplineSet
EndChar
StartChar: asciicircum
Encoding: 94 94 94
Width: 1716
Flags: W
Fore
956 1493 m 1,0,-1
 1499 936 l 1,1,-1
 1298 936 l 1,2,-1
 858 1331 l 1,3,-1
 418 936 l 1,4,-1
 217 936 l 1,5,-1
 760 1493 l 1,6,-1
 956 1493 l 1,0,-1
EndSplineSet
EndChar
StartChar: underscore
Encoding: 95 95 95
Width: 1024
Flags: W
Fore
1044 -340 m 1,0,-1
 1044 -483 l 1,1,-1
 -20 -483 l 1,2,-1
 -20 -340 l 1,3,-1
 1044 -340 l 1,0,-1
EndSplineSet
EndChar
StartChar: grave
Encoding: 96 96 96
Width: 1024
Flags: W
Fore
367 1638 m 1,0,-1
 649 1264 l 1,1,-1
 496 1264 l 1,2,-1
 170 1638 l 1,3,-1
 367 1638 l 1,0,-1
EndSplineSet
EndChar
StartChar: a
Encoding: 97 97 97
Width: 1255
Flags: W
AnchorPoint: "below" 596 0 basechar 0
AnchorPoint: "above" 596 1147 basechar 0
Fore
702 563 m 2,0,1
 479 563 479 563 393 512 c 128,-1,2
 307 461 307 461 307 338 c 0,3,4
 307 240 307 240 371.5 182.5 c 128,-1,5
 436 125 436 125 547 125 c 0,6,7
 700 125 700 125 792.5 233.5 c 128,-1,8
 885 342 885 342 885 522 c 2,9,-1
 885 563 l 1,10,-1
 702 563 l 2,0,1
1069 639 m 2,11,-1
 1069 0 l 1,12,-1
 885 0 l 1,13,-1
 885 170 l 1,14,15
 822 68 822 68 728 19.5 c 128,-1,16
 634 -29 634 -29 498 -29 c 0,17,18
 326 -29 326 -29 224.5 67.5 c 128,-1,19
 123 164 123 164 123 326 c 0,20,21
 123 515 123 515 249.5 611 c 128,-1,22
 376 707 376 707 627 707 c 2,23,-1
 885 707 l 1,24,-1
 885 725 l 2,25,26
 885 852 885 852 801.5 921.5 c 128,-1,27
 718 991 718 991 567 991 c 0,28,29
 471 991 471 991 380 968 c 128,-1,30
 289 945 289 945 205 899 c 1,31,-1
 205 1069 l 1,32,33
 306 1108 306 1108 401 1127.5 c 128,-1,34
 496 1147 496 1147 586 1147 c 0,35,36
 829 1147 829 1147 949 1021 c 128,-1,37
 1069 895 1069 895 1069 639 c 2,11,-1
EndSplineSet
Substitution2: "'salt' Stylistic Alternatives in Latin lookup 28" uni0251
Substitution2: "'aalt' Access All Alternates in Latin lookup 27" uni0251
EndChar
StartChar: b
Encoding: 98 98 98
Width: 1300
Flags: W
AnchorPoint: "below" 695 0 basechar 0
AnchorPoint: "above" 278 1520 basechar 0
Fore
997 559 m 0,0,1
 997 762 997 762 913.5 877.5 c 128,-1,2
 830 993 830 993 684 993 c 0,3,4
 538 993 538 993 454.5 877.5 c 128,-1,5
 371 762 371 762 371 559 c 0,6,7
 371 356 371 356 454.5 240.5 c 128,-1,8
 538 125 538 125 684 125 c 0,9,10
 830 125 830 125 913.5 240.5 c 128,-1,11
 997 356 997 356 997 559 c 0,0,1
371 950 m 1,12,13
 429 1050 429 1050 517.5 1098.5 c 128,-1,14
 606 1147 606 1147 729 1147 c 0,15,16
 933 1147 933 1147 1060.5 985 c 128,-1,17
 1188 823 1188 823 1188 559 c 0,18,19
 1188 295 1188 295 1060.5 133 c 128,-1,20
 933 -29 933 -29 729 -29 c 0,21,22
 606 -29 606 -29 517.5 19.5 c 128,-1,23
 429 68 429 68 371 168 c 1,24,-1
 371 0 l 1,25,-1
 186 0 l 1,26,-1
 186 1556 l 1,27,-1
 371 1556 l 1,28,-1
 371 950 l 1,12,13
EndSplineSet
EndChar
StartChar: c
Encoding: 99 99 99
Width: 1126
Flags: W
AnchorPoint: "below" 678 0 basechar 0
AnchorPoint: "above" 678 1147 basechar 0
Fore
999 1077 m 1,0,-1
 999 905 l 1,1,2
 921 948 921 948 842.5 969.5 c 128,-1,3
 764 991 764 991 684 991 c 0,4,5
 505 991 505 991 406 877.5 c 128,-1,6
 307 764 307 764 307 559 c 0,7,8
 307 354 307 354 406 240.5 c 128,-1,9
 505 127 505 127 684 127 c 0,10,11
 764 127 764 127 842.5 148.5 c 128,-1,12
 921 170 921 170 999 213 c 1,13,-1
 999 43 l 1,14,15
 922 7 922 7 839.5 -11 c 128,-1,16
 757 -29 757 -29 664 -29 c 0,17,18
 411 -29 411 -29 262 130 c 128,-1,19
 113 289 113 289 113 559 c 0,20,21
 113 833 113 833 263.5 990 c 128,-1,22
 414 1147 414 1147 676 1147 c 0,23,24
 761 1147 761 1147 842 1129.5 c 128,-1,25
 923 1112 923 1112 999 1077 c 1,0,-1
EndSplineSet
EndChar
StartChar: d
Encoding: 100 100 100
Width: 1300
Flags: W
AnchorPoint: "below" 614 0 basechar 0
AnchorPoint: "above" 1022 1520 basechar 0
Fore
930 950 m 1,0,-1
 930 1556 l 1,1,-1
 1114 1556 l 1,2,-1
 1114 0 l 1,3,-1
 930 0 l 1,4,-1
 930 168 l 1,5,6
 872 68 872 68 783.5 19.5 c 128,-1,7
 695 -29 695 -29 571 -29 c 0,8,9
 368 -29 368 -29 240.5 133 c 128,-1,10
 113 295 113 295 113 559 c 0,11,12
 113 823 113 823 240.5 985 c 128,-1,13
 368 1147 368 1147 571 1147 c 0,14,15
 695 1147 695 1147 783.5 1098.5 c 128,-1,16
 872 1050 872 1050 930 950 c 1,0,-1
303 559 m 0,17,18
 303 356 303 356 386.5 240.5 c 128,-1,19
 470 125 470 125 616 125 c 0,20,21
 762 125 762 125 846 240.5 c 128,-1,22
 930 356 930 356 930 559 c 0,23,24
 930 762 930 762 846 877.5 c 128,-1,25
 762 993 762 993 616 993 c 0,26,27
 470 993 470 993 386.5 877.5 c 128,-1,28
 303 762 303 762 303 559 c 0,17,18
EndSplineSet
EndChar
StartChar: e
Encoding: 101 101 101
Width: 1260
Flags: W
AnchorPoint: "below" 660 0 basechar 0
AnchorPoint: "above" 653 1147 basechar 0
Fore
1151 606 m 2,0,-1
 1151 516 l 1,1,-1
 305 516 l 1,2,3
 317 326 317 326 419.5 226.5 c 128,-1,4
 522 127 522 127 705 127 c 0,5,6
 811 127 811 127 910.5 153 c 128,-1,7
 1010 179 1010 179 1108 231 c 1,8,-1
 1108 57 l 1,9,10
 1009 15 1009 15 905 -7 c 128,-1,11
 801 -29 801 -29 694 -29 c 0,12,13
 426 -29 426 -29 269.5 127 c 128,-1,14
 113 283 113 283 113 549 c 0,15,16
 113 824 113 824 261.5 985.5 c 128,-1,17
 410 1147 410 1147 662 1147 c 0,18,19
 888 1147 888 1147 1019.5 1001.5 c 128,-1,20
 1151 856 1151 856 1151 606 c 2,0,-1
967 660 m 1,21,22
 965 811 965 811 882.5 901 c 128,-1,23
 800 991 800 991 664 991 c 0,24,25
 510 991 510 991 417.5 904 c 128,-1,26
 325 817 325 817 311 659 c 1,27,-1
 967 660 l 1,21,22
EndSplineSet
EndChar
StartChar: f
Encoding: 102 102 102
Width: 721
Flags: W
AnchorPoint: "below" 315 0 basechar 0
AnchorPoint: "above" 315 1520 basechar 0
Fore
760 1556 m 1,0,-1
 760 1403 l 1,1,-1
 584 1403 l 2,2,3
 485 1403 485 1403 446.5 1363 c 128,-1,4
 408 1323 408 1323 408 1219 c 2,5,-1
 408 1120 l 1,6,-1
 711 1120 l 1,7,-1
 711 977 l 1,8,-1
 408 977 l 1,9,-1
 408 0 l 1,10,-1
 223 0 l 1,11,-1
 223 977 l 1,12,-1
 47 977 l 1,13,-1
 47 1120 l 1,14,-1
 223 1120 l 1,15,-1
 223 1198 l 2,16,17
 223 1385 223 1385 310 1470.5 c 128,-1,18
 397 1556 397 1556 586 1556 c 2,19,-1
 760 1556 l 1,0,-1
EndSplineSet
EndChar
StartChar: g
Encoding: 103 103 103
Width: 1300
Flags: W
AnchorPoint: "below" 678 -430 basechar 0
AnchorPoint: "above" 618 1147 basechar 0
Fore
930 573 m 0,0,1
 930 773 930 773 847.5 883 c 128,-1,2
 765 993 765 993 616 993 c 0,3,4
 468 993 468 993 385.5 883 c 128,-1,5
 303 773 303 773 303 573 c 0,6,7
 303 374 303 374 385.5 264 c 128,-1,8
 468 154 468 154 616 154 c 0,9,10
 765 154 765 154 847.5 264 c 128,-1,11
 930 374 930 374 930 573 c 0,0,1
1114 139 m 2,12,13
 1114 -147 1114 -147 987 -286.5 c 128,-1,14
 860 -426 860 -426 598 -426 c 0,15,16
 501 -426 501 -426 415 -411.5 c 128,-1,17
 329 -397 329 -397 248 -367 c 1,18,-1
 248 -188 l 1,19,20
 329 -232 329 -232 408 -253 c 128,-1,21
 487 -274 487 -274 569 -274 c 0,22,23
 750 -274 750 -274 840 -179.5 c 128,-1,24
 930 -85 930 -85 930 106 c 2,25,-1
 930 197 l 1,26,27
 873 98 873 98 784 49 c 128,-1,28
 695 0 695 0 571 0 c 0,29,30
 365 0 365 0 239 157 c 128,-1,31
 113 314 113 314 113 573 c 0,32,33
 113 833 113 833 239 990 c 128,-1,34
 365 1147 365 1147 571 1147 c 0,35,36
 695 1147 695 1147 784 1098 c 128,-1,37
 873 1049 873 1049 930 950 c 1,38,-1
 930 1120 l 1,39,-1
 1114 1120 l 1,40,-1
 1114 139 l 2,12,13
EndSplineSet
EndChar
StartChar: h
Encoding: 104 104 104
Width: 1298
Flags: W
AnchorPoint: "below" 678 0 basechar 0
AnchorPoint: "above" 278 1520 basechar 0
Fore
1124 676 m 2,0,-1
 1124 0 l 1,1,-1
 940 0 l 1,2,-1
 940 670 l 2,3,4
 940 829 940 829 878 908 c 128,-1,5
 816 987 816 987 692 987 c 0,6,7
 543 987 543 987 457 892 c 128,-1,8
 371 797 371 797 371 633 c 2,9,-1
 371 0 l 1,10,-1
 186 0 l 1,11,-1
 186 1556 l 1,12,-1
 371 1556 l 1,13,-1
 371 946 l 1,14,15
 437 1047 437 1047 526.5 1097 c 128,-1,16
 616 1147 616 1147 733 1147 c 0,17,18
 926 1147 926 1147 1025 1027.5 c 128,-1,19
 1124 908 1124 908 1124 676 c 2,0,-1
EndSplineSet
EndChar
StartChar: i
Encoding: 105 105 105
Width: 569
Flags: W
AnchorPoint: "below" 287 0 basechar 0
AnchorPoint: "above" 287 1583 basechar 0
Fore
193 1120 m 1,0,-1
 377 1120 l 1,1,-1
 377 0 l 1,2,-1
 193 0 l 1,3,-1
 193 1120 l 1,0,-1
193 1556 m 1,4,-1
 377 1556 l 1,5,-1
 377 1323 l 1,6,-1
 193 1323 l 1,7,-1
 193 1556 l 1,4,-1
EndSplineSet
Substitution2: "Single Substitution lookup 32" dotlessi
EndChar
StartChar: j
Encoding: 106 106 106
Width: 569
Flags: W
AnchorPoint: "below" 287 -430 basechar 0
AnchorPoint: "above" 287 1583 basechar 0
Fore
193 1120 m 1,0,-1
 377 1120 l 1,1,-1
 377 -20 l 2,2,3
 377 -234 377 -234 295.5 -330 c 128,-1,4
 214 -426 214 -426 33 -426 c 2,5,-1
 -37 -426 l 1,6,-1
 -37 -270 l 1,7,-1
 12 -270 l 2,8,9
 117 -270 117 -270 155 -221.5 c 128,-1,10
 193 -173 193 -173 193 -20 c 2,11,-1
 193 1120 l 1,0,-1
193 1556 m 1,12,-1
 377 1556 l 1,13,-1
 377 1323 l 1,14,-1
 193 1323 l 1,15,-1
 193 1556 l 1,12,-1
EndSplineSet
Substitution2: "Single Substitution lookup 32" dotlessj
EndChar
StartChar: k
Encoding: 107 107 107
Width: 1186
Flags: W
AnchorPoint: "below" 678 0 basechar 0
AnchorPoint: "above" 278 1520 basechar 0
Fore
186 1556 m 1,0,-1
 371 1556 l 1,1,-1
 371 637 l 1,2,-1
 920 1120 l 1,3,-1
 1155 1120 l 1,4,-1
 561 596 l 1,5,-1
 1180 0 l 1,6,-1
 940 0 l 1,7,-1
 371 547 l 1,8,-1
 371 0 l 1,9,-1
 186 0 l 1,10,-1
 186 1556 l 1,0,-1
EndSplineSet
EndChar
StartChar: l
Encoding: 108 108 108
Width: 569
Flags: W
AnchorPoint: "below" 278 0 basechar 0
AnchorPoint: "above" 278 1520 basechar 0
Fore
193 1556 m 1,0,-1
 377 1556 l 1,1,-1
 377 0 l 1,2,-1
 193 0 l 1,3,-1
 193 1556 l 1,0,-1
EndSplineSet
AlternateSubs2: "'aalt' Access All Alternates in Latin lookup 29" l.alt
Substitution2: "'salt' Stylistic Alternatives in Latin lookup 28" l.alt
EndChar
StartChar: m
Encoding: 109 109 109
Width: 1995
Flags: W
AnchorPoint: "below" 1001 0 basechar 0
AnchorPoint: "above" 1001 1147 basechar 0
Fore
1065 905 m 1,0,1
 1134 1029 1134 1029 1230 1088 c 128,-1,2
 1326 1147 1326 1147 1456 1147 c 0,3,4
 1631 1147 1631 1147 1726 1024.5 c 128,-1,5
 1821 902 1821 902 1821 676 c 2,6,-1
 1821 0 l 1,7,-1
 1636 0 l 1,8,-1
 1636 670 l 2,9,10
 1636 831 1636 831 1579 909 c 128,-1,11
 1522 987 1522 987 1405 987 c 0,12,13
 1262 987 1262 987 1179 892 c 128,-1,14
 1096 797 1096 797 1096 633 c 2,15,-1
 1096 0 l 1,16,-1
 911 0 l 1,17,-1
 911 670 l 2,18,19
 911 832 911 832 854 909.5 c 128,-1,20
 797 987 797 987 678 987 c 0,21,22
 537 987 537 987 454 891.5 c 128,-1,23
 371 796 371 796 371 633 c 2,24,-1
 371 0 l 1,25,-1
 186 0 l 1,26,-1
 186 1120 l 1,27,-1
 371 1120 l 1,28,-1
 371 946 l 1,29,30
 434 1049 434 1049 522 1098 c 128,-1,31
 610 1147 610 1147 731 1147 c 0,32,33
 853 1147 853 1147 938.5 1085 c 128,-1,34
 1024 1023 1024 1023 1065 905 c 1,0,1
EndSplineSet
EndChar
StartChar: n
Encoding: 110 110 110
Width: 1298
Flags: W
AnchorPoint: "below" 678 0 basechar 0
AnchorPoint: "above" 649 1147 basechar 0
Fore
1124 676 m 2,0,-1
 1124 0 l 1,1,-1
 940 0 l 1,2,-1
 940 670 l 2,3,4
 940 829 940 829 878 908 c 128,-1,5
 816 987 816 987 692 987 c 0,6,7
 543 987 543 987 457 892 c 128,-1,8
 371 797 371 797 371 633 c 2,9,-1
 371 0 l 1,10,-1
 186 0 l 1,11,-1
 186 1120 l 1,12,-1
 371 1120 l 1,13,-1
 371 946 l 1,14,15
 437 1047 437 1047 526.5 1097 c 128,-1,16
 616 1147 616 1147 733 1147 c 0,17,18
 926 1147 926 1147 1025 1027.5 c 128,-1,19
 1124 908 1124 908 1124 676 c 2,0,-1
EndSplineSet
EndChar
StartChar: o
Encoding: 111 111 111
Width: 1253
Flags: W
AnchorPoint: "below" 637 0 basechar 0
AnchorPoint: "above" 637 1147 basechar 0
Fore
627 991 m 0,0,1
 479 991 479 991 393 875.5 c 128,-1,2
 307 760 307 760 307 559 c 0,3,4
 307 358 307 358 392.5 242.5 c 128,-1,5
 478 127 478 127 627 127 c 0,6,7
 774 127 774 127 860 243 c 128,-1,8
 946 359 946 359 946 559 c 0,9,10
 946 758 946 758 860 874.5 c 128,-1,11
 774 991 774 991 627 991 c 0,0,1
627 1147 m 0,12,13
 867 1147 867 1147 1004 991 c 128,-1,14
 1141 835 1141 835 1141 559 c 0,15,16
 1141 284 1141 284 1004 127.5 c 128,-1,17
 867 -29 867 -29 627 -29 c 0,18,19
 386 -29 386 -29 249.5 127.5 c 128,-1,20
 113 284 113 284 113 559 c 0,21,22
 113 835 113 835 249.5 991 c 128,-1,23
 386 1147 386 1147 627 1147 c 0,12,13
EndSplineSet
EndChar
StartChar: p
Encoding: 112 112 112
Width: 1300
Flags: W
AnchorPoint: "below" 678 -430 basechar 0
AnchorPoint: "above" 678 1147 basechar 0
Fore
371 168 m 1,0,-1
 371 -426 l 1,1,-1
 186 -426 l 1,2,-1
 186 1120 l 1,3,-1
 371 1120 l 1,4,-1
 371 950 l 1,5,6
 429 1050 429 1050 517.5 1098.5 c 128,-1,7
 606 1147 606 1147 729 1147 c 0,8,9
 933 1147 933 1147 1060.5 985 c 128,-1,10
 1188 823 1188 823 1188 559 c 0,11,12
 1188 295 1188 295 1060.5 133 c 128,-1,13
 933 -29 933 -29 729 -29 c 0,14,15
 606 -29 606 -29 517.5 19.5 c 128,-1,16
 429 68 429 68 371 168 c 1,0,-1
997 559 m 0,17,18
 997 762 997 762 913.5 877.5 c 128,-1,19
 830 993 830 993 684 993 c 0,20,21
 538 993 538 993 454.5 877.5 c 128,-1,22
 371 762 371 762 371 559 c 0,23,24
 371 356 371 356 454.5 240.5 c 128,-1,25
 538 125 538 125 684 125 c 0,26,27
 830 125 830 125 913.5 240.5 c 128,-1,28
 997 356 997 356 997 559 c 0,17,18
EndSplineSet
EndChar
StartChar: q
Encoding: 113 113 113
Width: 1300
Flags: W
AnchorPoint: "below" 648 -430 basechar 0
AnchorPoint: "above" 623 1147 basechar 0
Fore
303 559 m 0,0,1
 303 356 303 356 386.5 240.5 c 128,-1,2
 470 125 470 125 616 125 c 0,3,4
 762 125 762 125 846 240.5 c 128,-1,5
 930 356 930 356 930 559 c 0,6,7
 930 762 930 762 846 877.5 c 128,-1,8
 762 993 762 993 616 993 c 0,9,10
 470 993 470 993 386.5 877.5 c 128,-1,11
 303 762 303 762 303 559 c 0,0,1
930 168 m 1,12,13
 872 68 872 68 783.5 19.5 c 128,-1,14
 695 -29 695 -29 571 -29 c 0,15,16
 368 -29 368 -29 240.5 133 c 128,-1,17
 113 295 113 295 113 559 c 0,18,19
 113 823 113 823 240.5 985 c 128,-1,20
 368 1147 368 1147 571 1147 c 0,21,22
 695 1147 695 1147 783.5 1098.5 c 128,-1,23
 872 1050 872 1050 930 950 c 1,24,-1
 930 1120 l 1,25,-1
 1114 1120 l 1,26,-1
 1114 -426 l 1,27,-1
 930 -426 l 1,28,-1
 930 168 l 1,12,13
EndSplineSet
EndChar
StartChar: r
Encoding: 114 114 114
Width: 842
Flags: W
AnchorPoint: "below" 535 0 basechar 0
AnchorPoint: "above" 535 1147 basechar 0
Fore
842 948 m 1,0,1
 811 966 811 966 774.5 974.5 c 128,-1,2
 738 983 738 983 694 983 c 0,3,4
 538 983 538 983 454.5 881.5 c 128,-1,5
 371 780 371 780 371 590 c 2,6,-1
 371 0 l 1,7,-1
 186 0 l 1,8,-1
 186 1120 l 1,9,-1
 371 1120 l 1,10,-1
 371 946 l 1,11,12
 429 1048 429 1048 522 1097.5 c 128,-1,13
 615 1147 615 1147 748 1147 c 0,14,15
 767 1147 767 1147 790 1144.5 c 128,-1,16
 813 1142 813 1142 841 1137 c 1,17,-1
 842 948 l 1,0,1
EndSplineSet
EndChar
StartChar: s
Encoding: 115 115 115
Width: 1067
Flags: W
AnchorPoint: "below" 551 0 basechar 0
AnchorPoint: "above" 551 1147 basechar 0
Fore
907 1087 m 1,0,-1
 907 913 l 1,1,2
 829 953 829 953 745 973 c 128,-1,3
 661 993 661 993 571 993 c 0,4,5
 434 993 434 993 365.5 951 c 128,-1,6
 297 909 297 909 297 825 c 0,7,8
 297 761 297 761 346 724.5 c 128,-1,9
 395 688 395 688 543 655 c 2,10,-1
 606 641 l 2,11,12
 802 599 802 599 884.5 522.5 c 128,-1,13
 967 446 967 446 967 309 c 0,14,15
 967 153 967 153 843.5 62 c 128,-1,16
 720 -29 720 -29 504 -29 c 0,17,18
 414 -29 414 -29 316.5 -11.5 c 128,-1,19
 219 6 219 6 111 41 c 1,20,-1
 111 231 l 1,21,22
 213 178 213 178 312 151.5 c 128,-1,23
 411 125 411 125 508 125 c 0,24,25
 638 125 638 125 708 169.5 c 128,-1,26
 778 214 778 214 778 295 c 0,27,28
 778 370 778 370 727.5 410 c 128,-1,29
 677 450 677 450 506 487 c 2,30,-1
 442 502 l 1,31,32
 271 538 271 538 195 612.5 c 128,-1,33
 119 687 119 687 119 817 c 0,34,35
 119 975 119 975 231 1061 c 128,-1,36
 343 1147 343 1147 549 1147 c 0,37,38
 651 1147 651 1147 741 1132 c 128,-1,39
 831 1117 831 1117 907 1087 c 1,0,-1
EndSplineSet
EndChar
StartChar: t
Encoding: 116 116 116
Width: 803
Flags: W
AnchorPoint: "below" 500 0 basechar 0
AnchorPoint: "above" 282 1520 basechar 0
Fore
375 1438 m 1,0,-1
 375 1120 l 1,1,-1
 754 1120 l 1,2,-1
 754 977 l 1,3,-1
 375 977 l 1,4,-1
 375 369 l 2,5,6
 375 232 375 232 412.5 193 c 128,-1,7
 450 154 450 154 565 154 c 2,8,-1
 754 154 l 1,9,-1
 754 0 l 1,10,-1
 565 0 l 2,11,12
 352 0 352 0 271 79.5 c 128,-1,13
 190 159 190 159 190 369 c 2,14,-1
 190 977 l 1,15,-1
 55 977 l 1,16,-1
 55 1120 l 1,17,-1
 190 1120 l 1,18,-1
 190 1438 l 1,19,-1
 375 1438 l 1,0,-1
EndSplineSet
EndChar
StartChar: u
Encoding: 117 117 117
Width: 1298
Flags: W
AnchorPoint: "below" 678 0 basechar 0
AnchorPoint: "above" 637 1147 basechar 0
Fore
174 442 m 2,0,-1
 174 1120 l 1,1,-1
 358 1120 l 1,2,-1
 358 449 l 2,3,4
 358 290 358 290 420 210.5 c 128,-1,5
 482 131 482 131 606 131 c 0,6,7
 755 131 755 131 841.5 226 c 128,-1,8
 928 321 928 321 928 485 c 2,9,-1
 928 1120 l 1,10,-1
 1112 1120 l 1,11,-1
 1112 0 l 1,12,-1
 928 0 l 1,13,-1
 928 172 l 1,14,15
 861 70 861 70 772.5 20.5 c 128,-1,16
 684 -29 684 -29 567 -29 c 0,17,18
 374 -29 374 -29 274 91 c 128,-1,19
 174 211 174 211 174 442 c 2,0,-1
EndSplineSet
EndChar
StartChar: v
Encoding: 118 118 118
Width: 1212
Flags: W
AnchorPoint: "below" 606 0 basechar 0
AnchorPoint: "above" 606 1147 basechar 0
Fore
61 1120 m 1,0,-1
 256 1120 l 1,1,-1
 606 180 l 1,2,-1
 956 1120 l 1,3,-1
 1151 1120 l 1,4,-1
 731 0 l 1,5,-1
 481 0 l 1,6,-1
 61 1120 l 1,0,-1
EndSplineSet
EndChar
StartChar: w
Encoding: 119 119 119
Width: 1675
Flags: W
AnchorPoint: "below" 839 0 basechar 0
AnchorPoint: "above" 839 1147 basechar 0
Fore
86 1120 m 1,0,-1
 270 1120 l 1,1,-1
 500 246 l 1,2,-1
 729 1120 l 1,3,-1
 946 1120 l 1,4,-1
 1176 246 l 1,5,-1
 1405 1120 l 1,6,-1
 1589 1120 l 1,7,-1
 1296 0 l 1,8,-1
 1079 0 l 1,9,-1
 838 918 l 1,10,-1
 596 0 l 1,11,-1
 379 0 l 1,12,-1
 86 1120 l 1,0,-1
EndSplineSet
EndChar
StartChar: x
Encoding: 120 120 120
Width: 1212
Flags: W
AnchorPoint: "below" 610 0 basechar 0
AnchorPoint: "above" 610 1147 basechar 0
Fore
1124 1120 m 1,0,-1
 719 575 l 1,1,-1
 1145 0 l 1,2,-1
 928 0 l 1,3,-1
 602 440 l 1,4,-1
 276 0 l 1,5,-1
 59 0 l 1,6,-1
 494 586 l 1,7,-1
 96 1120 l 1,8,-1
 313 1120 l 1,9,-1
 610 721 l 1,10,-1
 907 1120 l 1,11,-1
 1124 1120 l 1,0,-1
EndSplineSet
EndChar
StartChar: y
Encoding: 121 121 121
Width: 1212
Flags: W
AnchorPoint: "below" 608 -430 basechar 0
AnchorPoint: "above" 608 1147 basechar 0
Fore
659 -104 m 1,0,1
 581 -304 581 -304 507 -365 c 128,-1,2
 433 -426 433 -426 309 -426 c 2,3,-1
 162 -426 l 1,4,-1
 162 -272 l 1,5,-1
 270 -272 l 2,6,7
 346 -272 346 -272 388 -236 c 128,-1,8
 430 -200 430 -200 481 -66 c 1,9,-1
 514 18 l 1,10,-1
 61 1120 l 1,11,-1
 256 1120 l 1,12,-1
 606 244 l 1,13,-1
 956 1120 l 1,14,-1
 1151 1120 l 1,15,-1
 659 -104 l 1,0,1
EndSplineSet
EndChar
StartChar: z
Encoding: 122 122 122
Width: 1075
Flags: W
AnchorPoint: "below" 535 0 basechar 0
AnchorPoint: "above" 535 1147 basechar 0
Fore
113 1120 m 1,0,-1
 987 1120 l 1,1,-1
 987 952 l 1,2,-1
 295 147 l 1,3,-1
 987 147 l 1,4,-1
 987 0 l 1,5,-1
 88 0 l 1,6,-1
 88 168 l 1,7,-1
 780 973 l 1,8,-1
 113 973 l 1,9,-1
 113 1120 l 1,0,-1
EndSplineSet
EndChar
StartChar: braceleft
Encoding: 123 123 123
Width: 1303
Flags: W
Fore
1047 -190 m 1,0,-1
 1047 -334 l 1,1,-1
 985 -334 l 2,2,3
 736 -334 736 -334 651.5 -260 c 128,-1,4
 567 -186 567 -186 567 35 c 2,5,-1
 567 274 l 2,6,7
 567 425 567 425 513 483 c 128,-1,8
 459 541 459 541 317 541 c 2,9,-1
 256 541 l 1,10,-1
 256 684 l 1,11,-1
 317 684 l 2,12,13
 460 684 460 684 513.5 741.5 c 128,-1,14
 567 799 567 799 567 948 c 2,15,-1
 567 1188 l 2,16,17
 567 1409 567 1409 651.5 1482.5 c 128,-1,18
 736 1556 736 1556 985 1556 c 2,19,-1
 1047 1556 l 1,20,-1
 1047 1413 l 1,21,-1
 979 1413 l 2,22,23
 838 1413 838 1413 795 1369 c 128,-1,24
 752 1325 752 1325 752 1184 c 2,25,-1
 752 936 l 2,26,27
 752 779 752 779 706.5 708 c 128,-1,28
 661 637 661 637 551 612 c 1,29,30
 662 585 662 585 707 514 c 128,-1,31
 752 443 752 443 752 287 c 2,32,-1
 752 39 l 2,33,34
 752 -102 752 -102 795 -146 c 128,-1,35
 838 -190 838 -190 979 -190 c 2,36,-1
 1047 -190 l 1,0,-1
EndSplineSet
EndChar
StartChar: bar
Encoding: 124 124 124
Width: 690
Flags: W
Fore
430 1565 m 1,0,-1
 430 -483 l 1,1,-1
 260 -483 l 1,2,-1
 260 1565 l 1,3,-1
 430 1565 l 1,0,-1
EndSplineSet
EndChar
StartChar: braceright
Encoding: 125 125 125
Width: 1303
Flags: W
Fore
256 -190 m 1,0,-1
 326 -190 l 2,1,2
 466 -190 466 -190 508.5 -147 c 128,-1,3
 551 -104 551 -104 551 39 c 2,4,-1
 551 287 l 2,5,6
 551 443 551 443 596 514 c 128,-1,7
 641 585 641 585 752 612 c 1,8,9
 641 637 641 637 596 708 c 128,-1,10
 551 779 551 779 551 936 c 2,11,-1
 551 1184 l 2,12,13
 551 1326 551 1326 508.5 1369.5 c 128,-1,14
 466 1413 466 1413 326 1413 c 2,15,-1
 256 1413 l 1,16,-1
 256 1556 l 1,17,-1
 319 1556 l 2,18,19
 568 1556 568 1556 651.5 1482.5 c 128,-1,20
 735 1409 735 1409 735 1188 c 2,21,-1
 735 948 l 2,22,23
 735 799 735 799 789 741.5 c 128,-1,24
 843 684 843 684 985 684 c 2,25,-1
 1047 684 l 1,26,-1
 1047 541 l 1,27,-1
 985 541 l 2,28,29
 843 541 843 541 789 483 c 128,-1,30
 735 425 735 425 735 274 c 2,31,-1
 735 35 l 2,32,33
 735 -186 735 -186 651.5 -260 c 128,-1,34
 568 -334 568 -334 319 -334 c 2,35,-1
 256 -334 l 1,36,-1
 256 -190 l 1,0,-1
EndSplineSet
EndChar
StartChar: asciitilde
Encoding: 126 126 126
Width: 1716
Flags: W
Fore
1499 817 m 1,0,-1
 1499 639 l 1,1,2
 1394 560 1394 560 1304.5 526 c 128,-1,3
 1215 492 1215 492 1118 492 c 0,4,5
 1008 492 1008 492 862 551 c 0,6,7
 851 555 851 555 846 557 c 0,8,9
 839 560 839 560 824 565 c 0,10,11
 669 627 669 627 575 627 c 0,12,13
 487 627 487 627 401 588.5 c 128,-1,14
 315 550 315 550 217 467 c 1,15,-1
 217 645 l 1,16,17
 322 724 322 724 411.5 758.5 c 128,-1,18
 501 793 501 793 598 793 c 0,19,20
 708 793 708 793 855 733 c 0,21,22
 865 729 865 729 870 727 c 0,23,24
 878 724 878 724 892 719 c 0,25,26
 1047 657 1047 657 1141 657 c 0,27,28
 1227 657 1227 657 1311.5 695 c 128,-1,29
 1396 733 1396 733 1499 817 c 1,0,-1
EndSplineSet
EndChar
StartChar: exclamdown
Encoding: 161 161 161
Width: 821
Flags: W
Fore
512 1239 m 1,0,-1
 309 1239 l 1,1,-1
 309 1493 l 1,2,-1
 512 1493 l 1,3,-1
 512 1239 l 1,0,-1
512 0 m 1,4,-1
 309 0 l 1,5,-1
 309 655 l 1,6,-1
 330 1012 l 1,7,-1
 492 1012 l 1,8,-1
 512 655 l 1,9,-1
 512 0 l 1,4,-1
EndSplineSet
EndChar
StartChar: cent
Encoding: 162 162 162
Width: 1303
Flags: W
Fore
678 131 m 1,0,-1
 678 987 l 1,1,2
 531 969 531 969 449 856 c 128,-1,3
 367 743 367 743 367 559 c 0,4,5
 367 374 367 374 449 261 c 128,-1,6
 531 148 531 148 678 131 c 1,0,-1
1059 1077 m 1,7,-1
 1059 905 l 1,8,9
 985 946 985 946 917 967 c 128,-1,10
 849 988 849 988 781 991 c 1,11,-1
 780 127 l 1,12,13
 850 132 850 132 918.5 153 c 128,-1,14
 987 174 987 174 1059 213 c 1,15,-1
 1059 43 l 1,16,17
 994 13 994 13 925.5 -4.5 c 128,-1,18
 857 -22 857 -22 780 -29 c 1,19,-1
 780 -313 l 1,20,-1
 678 -313 l 1,21,-1
 678 -25 l 1,22,23
 437 -5 437 -5 304.5 148.5 c 128,-1,24
 172 302 172 302 172 559 c 0,25,26
 172 817 172 817 304.5 970 c 128,-1,27
 437 1123 437 1123 678 1145 c 1,28,-1
 678 1432 l 1,29,-1
 780 1432 l 1,30,-1
 781 1145 l 1,31,32
 854 1141 854 1141 922.5 1124.5 c 128,-1,33
 991 1108 991 1108 1059 1077 c 1,7,-1
EndSplineSet
EndChar
StartChar: sterling
Encoding: 163 163 163
Width: 1303
Flags: W
Fore
1102 1460 m 1,0,-1
 1102 1278 l 1,1,2
 1026 1319 1026 1319 958 1339.5 c 128,-1,3
 890 1360 890 1360 829 1360 c 0,4,5
 681 1360 681 1360 623 1282.5 c 128,-1,6
 565 1205 565 1205 565 993 c 2,7,-1
 565 778 l 1,8,-1
 956 778 l 1,9,-1
 956 635 l 1,10,-1
 565 635 l 1,11,-1
 565 170 l 1,12,-1
 1122 170 l 1,13,-1
 1122 0 l 1,14,-1
 129 0 l 1,15,-1
 129 170 l 1,16,-1
 365 170 l 1,17,-1
 365 635 l 1,18,-1
 166 635 l 1,19,-1
 166 778 l 1,20,-1
 365 778 l 1,21,-1
 365 1016 l 2,22,23
 365 1277 365 1277 472 1398.5 c 128,-1,24
 579 1520 579 1520 811 1520 c 0,25,26
 872 1520 872 1520 947.5 1504.5 c 128,-1,27
 1023 1489 1023 1489 1102 1460 c 1,0,-1
EndSplineSet
EndChar
StartChar: currency
Encoding: 164 164 164
Width: 1303
Flags: W
Fore
891 993 m 1,0,-1
 1098 1202 l 1,1,-1
 1212 1087 l 1,2,-1
 1006 881 l 1,3,4
 1043 822 1043 822 1061 762.5 c 128,-1,5
 1079 703 1079 703 1079 641 c 0,6,7
 1079 578 1079 578 1060 520.5 c 128,-1,8
 1041 463 1041 463 1001 406 c 1,9,-1
 1210 199 l 1,10,-1
 1096 86 l 1,11,-1
 889 293 l 1,12,13
 830 253 830 253 772 234 c 128,-1,14
 714 215 714 215 653 215 c 0,15,16
 595 215 595 215 535 233.5 c 128,-1,17
 475 252 475 252 414 289 c 1,18,-1
 207 82 l 1,19,-1
 94 197 l 1,20,-1
 301 403 l 1,21,22
 264 465 264 465 245.5 524 c 128,-1,23
 227 583 227 583 227 641 c 0,24,25
 227 705 227 705 246 763 c 128,-1,26
 265 821 265 821 303 877 c 1,27,-1
 96 1083 l 1,28,-1
 211 1198 l 1,29,-1
 418 991 l 1,30,31
 473 1030 473 1030 531 1048.5 c 128,-1,32
 589 1067 589 1067 653 1067 c 0,33,34
 713 1067 713 1067 771.5 1049 c 128,-1,35
 830 1031 830 1031 891 993 c 1,0,-1
922 643 m 0,36,37
 922 755 922 755 844.5 832 c 128,-1,38
 767 909 767 909 653 909 c 0,39,40
 541 909 541 909 462 832 c 128,-1,41
 383 755 383 755 383 643 c 0,42,43
 383 529 383 529 461.5 451 c 128,-1,44
 540 373 540 373 653 373 c 0,45,46
 766 373 766 373 844 451.5 c 128,-1,47
 922 530 922 530 922 643 c 0,36,37
EndSplineSet
EndChar
StartChar: yen
Encoding: 165 165 165
Width: 1303
Flags: W
Fore
1165 455 m 1,0,-1
 752 455 l 1,1,-1
 752 0 l 1,2,-1
 551 0 l 1,3,-1
 551 455 l 1,4,-1
 135 455 l 1,5,-1
 135 578 l 1,6,-1
 551 578 l 1,7,-1
 551 629 l 1,8,-1
 467 784 l 1,9,-1
 135 784 l 1,10,-1
 135 907 l 1,11,-1
 399 907 l 1,12,-1
 82 1493 l 1,13,-1
 272 1493 l 1,14,-1
 651 793 l 1,15,-1
 1028 1493 l 1,16,-1
 1219 1493 l 1,17,-1
 901 907 l 1,18,-1
 1165 907 l 1,19,-1
 1165 784 l 1,20,-1
 834 784 l 1,21,-1
 750 629 l 1,22,-1
 750 578 l 1,23,-1
 1165 578 l 1,24,-1
 1165 455 l 1,0,-1
EndSplineSet
EndChar
StartChar: brokenbar
Encoding: 166 166 166
Width: 690
Flags: W
Fore
430 408 m 1,0,-1
 430 -350 l 1,1,-1
 260 -350 l 1,2,-1
 260 408 l 1,3,-1
 430 408 l 1,0,-1
430 1432 m 1,4,-1
 430 674 l 1,5,-1
 260 674 l 1,6,-1
 260 1432 l 1,7,-1
 430 1432 l 1,4,-1
EndSplineSet
EndChar
StartChar: section
Encoding: 167 167 167
Width: 1024
Flags: W
Fore
379 936 m 1,0,1
 316 890 316 890 285 845 c 128,-1,2
 254 800 254 800 254 754 c 0,3,4
 254 678 254 678 323.5 611.5 c 128,-1,5
 393 545 393 545 643 410 c 1,6,7
 706 455 706 455 737 500.5 c 128,-1,8
 768 546 768 546 768 592 c 0,9,10
 768 667 768 667 696.5 735 c 128,-1,11
 625 803 625 803 379 936 c 1,0,1
829 1462 m 1,12,-1
 829 1298 l 1,13,14
 746 1337 746 1337 674.5 1356.5 c 128,-1,15
 603 1376 603 1376 547 1376 c 0,16,17
 450 1376 450 1376 396 1336 c 128,-1,18
 342 1296 342 1296 342 1225 c 0,19,20
 342 1135 342 1135 548 1020 c 0,21,22
 574 1005 574 1005 588 997 c 0,23,24
 799 878 799 878 864.5 801 c 128,-1,25
 930 724 930 724 930 623 c 0,26,27
 930 533 930 533 884 463 c 128,-1,28
 838 393 838 393 745 340 c 1,29,30
 807 288 807 288 835.5 233.5 c 128,-1,31
 864 179 864 179 864 115 c 0,32,33
 864 -27 864 -27 762 -111 c 128,-1,34
 660 -195 660 -195 487 -195 c 0,35,36
 414 -195 414 -195 337 -180.5 c 128,-1,37
 260 -166 260 -166 172 -137 c 1,38,-1
 172 27 l 1,39,40
 259 -12 259 -12 333 -31.5 c 128,-1,41
 407 -51 407 -51 465 -51 c 0,42,43
 567 -51 567 -51 623.5 -9 c 128,-1,44
 680 33 680 33 680 109 c 0,45,46
 680 211 680 211 459 334 c 2,47,-1
 434 348 l 2,48,49
 220 468 220 468 156 544.5 c 128,-1,50
 92 621 92 621 92 723 c 0,51,52
 92 814 92 814 138.5 885.5 c 128,-1,53
 185 957 185 957 276 1006 c 1,54,55
 217 1050 217 1050 187.5 1106 c 128,-1,56
 158 1162 158 1162 158 1231 c 0,57,58
 158 1361 158 1361 258 1440.5 c 128,-1,59
 358 1520 358 1520 524 1520 c 0,60,61
 597 1520 597 1520 673.5 1505.5 c 128,-1,62
 750 1491 750 1491 829 1462 c 1,12,-1
EndSplineSet
EndChar
StartChar: dieresis
Encoding: 168 168 168
Width: 1024
Flags: W
Fore
606 1552 m 1,0,-1
 809 1552 l 1,1,-1
 809 1350 l 1,2,-1
 606 1350 l 1,3,-1
 606 1552 l 1,0,-1
215 1552 m 1,4,-1
 418 1552 l 1,5,-1
 418 1350 l 1,6,-1
 215 1350 l 1,7,-1
 215 1552 l 1,4,-1
EndSplineSet
LCarets2: 1 0 
Ligature2: "'liga' Standard Ligatures lookup 16" space uni0308
EndChar
StartChar: copyright
Encoding: 169 169 169
Width: 2048
Flags: W
Fore
1024 1485 m 0,0,1
 1176 1485 1176 1485 1307.5 1430 c 128,-1,2
 1439 1375 1439 1375 1548 1266 c 0,3,4
 1657 1157 1657 1157 1711 1026 c 128,-1,5
 1765 895 1765 895 1765 741 c 0,6,7
 1765 589 1765 589 1711 458.5 c 128,-1,8
 1657 328 1657 328 1548 219 c 0,9,10
 1439 110 1439 110 1307.5 55 c 128,-1,11
 1176 0 1176 0 1024 0 c 0,12,13
 872 0 872 0 740.5 55 c 128,-1,14
 609 110 609 110 500 219 c 0,15,16
 391 328 391 328 337 458.5 c 128,-1,17
 283 589 283 589 283 741 c 0,18,19
 283 895 283 895 337 1026 c 128,-1,20
 391 1157 391 1157 500 1266 c 0,21,22
 609 1375 609 1375 740.5 1430 c 128,-1,23
 872 1485 872 1485 1024 1485 c 0,0,1
1024 1382 m 0,24,25
 893 1382 893 1382 780 1335 c 128,-1,26
 667 1288 667 1288 573 1194 c 0,27,28
 479 1100 479 1100 431 985.5 c 128,-1,29
 383 871 383 871 383 741 c 0,30,31
 383 612 383 612 431 498.5 c 128,-1,32
 479 385 479 385 573 291 c 0,33,34
 667 197 667 197 780 149.5 c 128,-1,35
 893 102 893 102 1024 102 c 0,36,37
 1156 102 1156 102 1269.5 149.5 c 128,-1,38
 1383 197 1383 197 1477 291 c 0,39,40
 1570 384 1570 384 1616.5 497 c 128,-1,41
 1663 610 1663 610 1663 741 c 0,42,43
 1663 874 1663 874 1616 987.5 c 128,-1,44
 1569 1101 1569 1101 1477 1194 c 0,45,46
 1383 1288 1383 1288 1269.5 1335 c 128,-1,47
 1156 1382 1156 1382 1024 1382 c 0,24,25
1323 1137 m 1,48,-1
 1323 1008 l 1,49,50
 1257 1041 1257 1041 1192 1057 c 128,-1,51
 1127 1073 1127 1073 1061 1073 c 0,52,53
 912 1073 912 1073 828.5 985.5 c 128,-1,54
 745 898 745 898 745 741 c 0,55,56
 745 582 745 582 830.5 495 c 128,-1,57
 916 408 916 408 1071 408 c 0,58,59
 1135 408 1135 408 1196 423.5 c 128,-1,60
 1257 439 1257 439 1323 473 c 1,61,-1
 1323 346 l 1,62,63
 1256 317 1256 317 1187.5 303 c 128,-1,64
 1119 289 1119 289 1049 289 c 0,65,66
 833 289 833 289 707.5 411 c 128,-1,67
 582 533 582 533 582 741 c 0,68,69
 582 950 582 950 707.5 1071 c 128,-1,70
 833 1192 833 1192 1049 1192 c 0,71,72
 1122 1192 1122 1192 1190 1178 c 128,-1,73
 1258 1164 1258 1164 1323 1137 c 1,48,-1
EndSplineSet
EndChar
StartChar: ordfeminine
Encoding: 170 170 170
Width: 965
Flags: W
Fore
139 592 m 1,0,-1
 827 592 l 1,1,-1
 827 469 l 1,2,-1
 139 469 l 1,3,-1
 139 592 l 1,0,-1
825 1165 m 2,4,-1
 825 717 l 1,5,-1
 676 717 l 1,6,-1
 676 829 l 1,7,8
 632 766 632 766 560 732 c 128,-1,9
 488 698 488 698 395 698 c 0,10,11
 267 698 267 698 191 765.5 c 128,-1,12
 115 833 115 833 115 946 c 0,13,14
 115 1081 115 1081 210.5 1150 c 128,-1,15
 306 1219 306 1219 494 1219 c 2,16,-1
 676 1219 l 1,17,-1
 676 1223 l 2,18,19
 676 1314 676 1314 617.5 1359.5 c 128,-1,20
 559 1405 559 1405 442 1405 c 0,21,22
 380 1405 380 1405 312 1388 c 128,-1,23
 244 1371 244 1371 176 1337 c 1,24,-1
 176 1464 l 1,25,26
 249 1492 249 1492 321.5 1506 c 128,-1,27
 394 1520 394 1520 463 1520 c 0,28,29
 646 1520 646 1520 735.5 1432 c 128,-1,30
 825 1344 825 1344 825 1165 c 2,4,-1
549 1104 m 2,31,32
 388 1104 388 1104 325 1070.5 c 128,-1,33
 262 1037 262 1037 262 958 c 0,34,35
 262 894 262 894 311 855.5 c 128,-1,36
 360 817 360 817 442 817 c 0,37,38
 546 817 546 817 611 889 c 128,-1,39
 676 961 676 961 676 1075 c 2,40,-1
 676 1104 l 1,41,-1
 549 1104 l 2,31,32
EndSplineSet
EndChar
StartChar: guillemotleft
Encoding: 171 171 171
Width: 1253
Flags: W
Fore
1061 1059 m 1,0,-1
 1061 868 l 1,1,-1
 760 600 l 1,2,-1
 1061 332 l 1,3,-1
 1061 141 l 1,4,-1
 592 559 l 1,5,-1
 592 641 l 1,6,-1
 1061 1059 l 1,0,-1
627 1059 m 1,7,-1
 627 868 l 1,8,-1
 326 600 l 1,9,-1
 627 332 l 1,10,-1
 627 141 l 1,11,-1
 158 559 l 1,12,-1
 158 641 l 1,13,-1
 627 1059 l 1,7,-1
EndSplineSet
EndChar
StartChar: logicalnot
Encoding: 172 172 172
Width: 1716
Flags: W
Fore
217 862 m 1,0,-1
 1499 862 l 1,1,-1
 1499 287 l 1,2,-1
 1331 287 l 1,3,-1
 1331 692 l 1,4,-1
 217 692 l 1,5,-1
 217 862 l 1,0,-1
EndSplineSet
EndChar
StartChar: sfthyphen
Encoding: 173 173 173
Width: 739
Flags: W
Fore
100 643 m 1,0,-1
 639 643 l 1,1,-1
 639 479 l 1,2,-1
 100 479 l 1,3,-1
 100 643 l 1,0,-1
EndSplineSet
EndChar
StartChar: registered
Encoding: 174 174 174
Width: 2048
Flags: W
Fore
1024 1382 m 0,0,1
 893 1382 893 1382 780 1335 c 128,-1,2
 667 1288 667 1288 573 1194 c 0,3,4
 479 1100 479 1100 431 985.5 c 128,-1,5
 383 871 383 871 383 741 c 0,6,7
 383 612 383 612 431 498.5 c 128,-1,8
 479 385 479 385 573 291 c 0,9,10
 667 197 667 197 780 149.5 c 128,-1,11
 893 102 893 102 1024 102 c 0,12,13
 1156 102 1156 102 1269.5 149.5 c 128,-1,14
 1383 197 1383 197 1477 291 c 0,15,16
 1570 384 1570 384 1616.5 497 c 128,-1,17
 1663 610 1663 610 1663 741 c 0,18,19
 1663 874 1663 874 1616 987.5 c 128,-1,20
 1569 1101 1569 1101 1477 1194 c 0,21,22
 1383 1288 1383 1288 1269.5 1335 c 128,-1,23
 1156 1382 1156 1382 1024 1382 c 0,0,1
1024 1485 m 0,24,25
 1176 1485 1176 1485 1307.5 1430 c 128,-1,26
 1439 1375 1439 1375 1548 1266 c 0,27,28
 1657 1157 1657 1157 1711 1026 c 128,-1,29
 1765 895 1765 895 1765 741 c 0,30,31
 1765 589 1765 589 1711 458.5 c 128,-1,32
 1657 328 1657 328 1548 219 c 0,33,34
 1439 110 1439 110 1307.5 55 c 128,-1,35
 1176 0 1176 0 1024 0 c 0,36,37
 872 0 872 0 740.5 55 c 128,-1,38
 609 110 609 110 500 219 c 0,39,40
 391 328 391 328 337 458.5 c 128,-1,41
 283 589 283 589 283 741 c 0,42,43
 283 895 283 895 337 1026 c 128,-1,44
 391 1157 391 1157 500 1266 c 0,45,46
 609 1375 609 1375 740.5 1430 c 128,-1,47
 872 1485 872 1485 1024 1485 c 0,24,25
997 1071 m 2,48,-1
 874 1071 l 1,49,-1
 874 795 l 1,50,-1
 997 795 l 2,51,52
 1107 795 1107 795 1150.5 826 c 128,-1,53
 1194 857 1194 857 1194 932 c 0,54,55
 1194 1008 1194 1008 1150 1039.5 c 128,-1,56
 1106 1071 1106 1071 997 1071 c 2,48,-1
1004 1174 m 2,57,58
 1180 1174 1180 1174 1267 1114.5 c 128,-1,59
 1354 1055 1354 1055 1354 934 c 0,60,61
 1354 848 1354 848 1301.5 792 c 128,-1,62
 1249 736 1249 736 1153 719 c 1,63,64
 1177 711 1177 711 1210.5 672.5 c 128,-1,65
 1244 634 1244 634 1290 561 c 1,66,-1
 1427 338 l 1,67,-1
 1255 338 l 1,68,-1
 1126 547 l 2,69,70
 1067 643 1067 643 1030.5 668.5 c 128,-1,71
 994 694 994 694 940 694 c 2,72,-1
 874 694 l 1,73,-1
 874 338 l 1,74,-1
 719 338 l 1,75,-1
 719 1174 l 1,76,-1
 1004 1174 l 2,57,58
EndSplineSet
EndChar
StartChar: macron
Encoding: 175 175 175
Width: 1024
Flags: W
Fore
213 1526 m 1,0,-1
 811 1526 l 1,1,-1
 811 1378 l 1,2,-1
 213 1378 l 1,3,-1
 213 1526 l 1,0,-1
EndSplineSet
LCarets2: 1 0 
Ligature2: "'liga' Standard Ligatures lookup 16" space uni0304
EndChar
StartChar: degree
Encoding: 176 176 176
Width: 1024
Flags: W
Fore
512 1391 m 0,0,1
 432 1391 432 1391 377 1335.5 c 128,-1,2
 322 1280 322 1280 322 1200 c 0,3,4
 322 1121 322 1121 377 1066.5 c 128,-1,5
 432 1012 432 1012 512 1012 c 0,6,7
 592 1012 592 1012 647 1066.5 c 128,-1,8
 702 1121 702 1121 702 1200 c 0,9,10
 702 1279 702 1279 646.5 1335 c 128,-1,11
 591 1391 591 1391 512 1391 c 0,0,1
512 1520 m 0,12,13
 576 1520 576 1520 635 1495.5 c 128,-1,14
 694 1471 694 1471 737 1425 c 1,15,16
 783 1380 783 1380 806 1323 c 128,-1,17
 829 1266 829 1266 829 1200 c 0,18,19
 829 1068 829 1068 736.5 976.5 c 128,-1,20
 644 885 644 885 510 885 c 0,21,22
 375 885 375 885 285 975 c 128,-1,23
 195 1065 195 1065 195 1200 c 0,24,25
 195 1334 195 1334 287 1427 c 128,-1,26
 379 1520 379 1520 512 1520 c 0,12,13
EndSplineSet
EndChar
StartChar: plusminus
Encoding: 177 177 177
Width: 1716
Flags: W
Fore
942 1284 m 1,0,-1
 942 897 l 1,1,-1
 1499 897 l 1,2,-1
 1499 727 l 1,3,-1
 942 727 l 1,4,-1
 942 340 l 1,5,-1
 774 340 l 1,6,-1
 774 727 l 1,7,-1
 217 727 l 1,8,-1
 217 897 l 1,9,-1
 774 897 l 1,10,-1
 774 1284 l 1,11,-1
 942 1284 l 1,0,-1
217 170 m 1,12,-1
 1499 170 l 1,13,-1
 1499 0 l 1,14,-1
 217 0 l 1,15,-1
 217 170 l 1,12,-1
EndSplineSet
EndChar
StartChar: twosuperior
Encoding: 178 178 178
Width: 821
Flags: W
Fore
268 782 m 1,0,-1
 692 782 l 1,1,-1
 692 668 l 1,2,-1
 94 668 l 1,3,-1
 94 778 l 1,4,5
 128 809 128 809 191 865 c 0,6,7
 535 1170 535 1170 535 1264 c 0,8,9
 535 1330 535 1330 483 1370.5 c 128,-1,10
 431 1411 431 1411 346 1411 c 0,11,12
 294 1411 294 1411 233 1393.5 c 128,-1,13
 172 1376 172 1376 100 1341 c 1,14,-1
 100 1464 l 1,15,16
 177 1492 177 1492 243.5 1506 c 128,-1,17
 310 1520 310 1520 367 1520 c 0,18,19
 512 1520 512 1520 599 1454 c 128,-1,20
 686 1388 686 1388 686 1280 c 0,21,22
 686 1141 686 1141 355 857 c 0,23,24
 299 809 299 809 268 782 c 1,0,-1
EndSplineSet
EndChar
StartChar: threesuperior
Encoding: 179 179 179
Width: 821
Flags: W
Fore
524 1120 m 1,0,1
 616 1102 616 1102 666.5 1047.5 c 128,-1,2
 717 993 717 993 717 911 c 0,3,4
 717 787 717 787 622 720 c 128,-1,5
 527 653 527 653 350 653 c 0,6,7
 293 653 293 653 230.5 663.5 c 128,-1,8
 168 674 168 674 98 694 c 1,9,-1
 98 815 l 1,10,11
 150 788 150 788 209.5 775 c 128,-1,12
 269 762 269 762 336 762 c 0,13,14
 445 762 445 762 505 801.5 c 128,-1,15
 565 841 565 841 565 911 c 0,16,17
 565 985 565 985 509.5 1023 c 128,-1,18
 454 1061 454 1061 346 1061 c 2,19,-1
 260 1061 l 1,20,-1
 260 1169 l 1,21,-1
 354 1169 l 2,22,23
 448 1169 448 1169 496.5 1200.5 c 128,-1,24
 545 1232 545 1232 545 1292 c 0,25,26
 545 1350 545 1350 495 1380.5 c 128,-1,27
 445 1411 445 1411 350 1411 c 0,28,29
 310 1411 310 1411 259 1402 c 128,-1,30
 208 1393 208 1393 127 1370 c 1,31,-1
 127 1485 l 1,32,33
 200 1502 200 1502 264 1511 c 128,-1,34
 328 1520 328 1520 383 1520 c 0,35,36
 527 1520 527 1520 611.5 1461 c 128,-1,37
 696 1402 696 1402 696 1303 c 0,38,39
 696 1234 696 1234 651 1186 c 128,-1,40
 606 1138 606 1138 524 1120 c 1,0,1
EndSplineSet
EndChar
StartChar: acute
Encoding: 180 180 180
Width: 1024
Flags: W
Fore
651 1638 m 1,0,-1
 850 1638 l 1,1,-1
 524 1262 l 1,2,-1
 371 1262 l 1,3,-1
 651 1638 l 1,0,-1
EndSplineSet
LCarets2: 1 0 
Ligature2: "'liga' Standard Ligatures lookup 16" space acutecomb
EndChar
StartChar: mu
Encoding: 181 181 181
Width: 1303
Flags: W
Fore
174 -426 m 1,0,-1
 174 1120 l 1,1,-1
 358 1120 l 1,2,-1
 358 424 l 2,3,4
 358 279 358 279 427 205 c 128,-1,5
 496 131 496 131 631 131 c 0,6,7
 779 131 779 131 853.5 215 c 128,-1,8
 928 299 928 299 928 467 c 2,9,-1
 928 1120 l 1,10,-1
 1112 1120 l 1,11,-1
 1112 258 l 2,12,13
 1112 198 1112 198 1129.5 169.5 c 128,-1,14
 1147 141 1147 141 1184 141 c 0,15,16
 1193 141 1193 141 1209 146.5 c 128,-1,17
 1225 152 1225 152 1253 164 c 1,18,-1
 1253 16 l 1,19,20
 1212 -7 1212 -7 1175.5 -18 c 128,-1,21
 1139 -29 1139 -29 1104 -29 c 0,22,23
 1035 -29 1035 -29 994 10 c 128,-1,24
 953 49 953 49 938 129 c 1,25,26
 888 50 888 50 815.5 10.5 c 128,-1,27
 743 -29 743 -29 645 -29 c 0,28,29
 543 -29 543 -29 471.5 10 c 128,-1,30
 400 49 400 49 358 127 c 1,31,-1
 358 -426 l 1,32,-1
 174 -426 l 1,0,-1
EndSplineSet
EndChar
StartChar: paragraph
Encoding: 182 182 182
Width: 1303
Flags: W
Fore
633 1493 m 2,0,-1
 1081 1493 l 1,1,-1
 1081 -197 l 1,2,-1
 940 -197 l 1,3,-1
 940 1370 l 1,4,-1
 750 1370 l 1,5,-1
 750 -197 l 1,6,-1
 608 -197 l 1,7,-1
 608 649 l 1,8,9
 393 666 393 666 275.5 776.5 c 128,-1,10
 158 887 158 887 158 1071 c 0,11,12
 158 1261 158 1261 288 1377 c 128,-1,13
 418 1493 418 1493 633 1493 c 2,0,-1
EndSplineSet
EndChar
StartChar: periodcentered
Encoding: 183 183 183
Width: 651
Flags: W
Fore
219 838 m 1,0,-1
 430 838 l 1,1,-1
 430 584 l 1,2,-1
 219 584 l 1,3,-1
 219 838 l 1,0,-1
EndSplineSet
EndChar
StartChar: cedilla
Encoding: 184 184 184
Width: 1024
Flags: W
Fore
596 0 m 1,0,1
 651 -62 651 -62 678 -114.5 c 128,-1,2
 705 -167 705 -167 705 -215 c 0,3,4
 705 -304 705 -304 645 -349.5 c 128,-1,5
 585 -395 585 -395 467 -395 c 0,6,7
 421 -395 421 -395 377.5 -389 c 128,-1,8
 334 -383 334 -383 291 -371 c 1,9,-1
 291 -240 l 1,10,11
 325 -257 325 -257 362 -264.5 c 128,-1,12
 399 -272 399 -272 446 -272 c 0,13,14
 505 -272 505 -272 535 -248 c 128,-1,15
 565 -224 565 -224 565 -178 c 0,16,17
 565 -148 565 -148 543.5 -104.5 c 128,-1,18
 522 -61 522 -61 477 0 c 1,19,-1
 596 0 l 1,0,1
EndSplineSet
LCarets2: 1 0 
Ligature2: "'liga' Standard Ligatures lookup 16" space uni0327
EndChar
StartChar: onesuperior
Encoding: 185 185 185
Width: 821
Flags: W
Fore
156 778 m 1,0,-1
 360 778 l 1,1,-1
 360 1389 l 1,2,-1
 137 1348 l 1,3,-1
 137 1464 l 1,4,-1
 367 1503 l 1,5,-1
 504 1503 l 1,6,-1
 504 778 l 1,7,-1
 709 778 l 1,8,-1
 709 668 l 1,9,-1
 156 668 l 1,10,-1
 156 778 l 1,0,-1
EndSplineSet
EndChar
StartChar: ordmasculine
Encoding: 186 186 186
Width: 965
Flags: W
Fore
139 592 m 1,0,-1
 827 592 l 1,1,-1
 827 469 l 1,2,-1
 139 469 l 1,3,-1
 139 592 l 1,0,-1
483 1520 m 0,4,5
 662 1520 662 1520 765 1409.5 c 128,-1,6
 868 1299 868 1299 868 1108 c 0,7,8
 868 917 868 917 765 807.5 c 128,-1,9
 662 698 662 698 483 698 c 0,10,11
 304 698 304 698 200 808 c 128,-1,12
 96 918 96 918 96 1108 c 0,13,14
 96 1299 96 1299 200 1409.5 c 128,-1,15
 304 1520 304 1520 483 1520 c 0,4,5
483 1405 m 0,16,17
 378 1405 378 1405 315 1324.5 c 128,-1,18
 252 1244 252 1244 252 1108 c 0,19,20
 252 975 252 975 315.5 895 c 128,-1,21
 379 815 379 815 483 815 c 0,22,23
 588 815 588 815 650.5 895 c 128,-1,24
 713 975 713 975 713 1108 c 0,25,26
 713 1245 713 1245 651 1325 c 128,-1,27
 589 1405 589 1405 483 1405 c 0,16,17
EndSplineSet
EndChar
StartChar: guillemotright
Encoding: 187 187 187
Width: 1253
Flags: W
Fore
193 1059 m 1,0,-1
 662 641 l 1,1,-1
 662 559 l 1,2,-1
 193 141 l 1,3,-1
 193 332 l 1,4,-1
 494 600 l 1,5,-1
 193 868 l 1,6,-1
 193 1059 l 1,0,-1
627 1059 m 1,7,-1
 1096 641 l 1,8,-1
 1096 559 l 1,9,-1
 627 141 l 1,10,-1
 627 332 l 1,11,-1
 928 600 l 1,12,-1
 627 868 l 1,13,-1
 627 1059 l 1,7,-1
EndSplineSet
EndChar
StartChar: questiondown
Encoding: 191 191 191
Width: 1087
Flags: W
Fore
500 1092 m 1,0,-1
 690 1092 l 1,1,-1
 690 936 l 2,2,3
 690 835 690 835 662.5 770 c 128,-1,4
 635 705 635 705 545 618 c 2,5,-1
 455 530 l 1,6,7
 397 477 397 477 371.5 430 c 128,-1,8
 346 383 346 383 346 334 c 0,9,10
 346 245 346 245 411.5 190 c 128,-1,11
 477 135 477 135 586 135 c 0,12,13
 664 135 664 135 754 170 c 128,-1,14
 844 205 844 205 940 272 c 1,15,-1
 940 84 l 1,16,17
 846 27 846 27 750 -1 c 128,-1,18
 654 -29 654 -29 551 -29 c 0,19,20
 367 -29 367 -29 255 68 c 128,-1,21
 143 165 143 165 143 324 c 0,22,23
 143 400 143 400 179.5 468.5 c 128,-1,24
 216 537 216 537 305 623 c 2,25,-1
 393 709 l 2,26,27
 441 756 441 756 460 782.5 c 128,-1,28
 479 809 479 809 487 834 c 0,29,30
 494 855 494 855 497 885 c 128,-1,31
 500 915 500 915 500 969 c 2,32,-1
 500 1092 l 1,0,-1
696 1239 m 1,33,-1
 494 1239 l 1,34,-1
 494 1493 l 1,35,-1
 696 1493 l 1,36,-1
 696 1239 l 1,33,-1
EndSplineSet
EndChar
StartChar: Aring
Encoding: 197 197 197
Width: 1401
Flags: W
Fore
852 1626 m 0,0,1
 852 1689 852 1689 807.5 1733.5 c 128,-1,2
 763 1778 763 1778 700 1778 c 0,3,4
 636 1778 636 1778 592.5 1734.5 c 128,-1,5
 549 1691 549 1691 549 1626 c 0,6,7
 549 1563 549 1563 593 1519 c 128,-1,8
 637 1475 637 1475 700 1475 c 0,9,10
 763 1475 763 1475 807.5 1519 c 128,-1,11
 852 1563 852 1563 852 1626 c 0,0,1
700 1294 m 1,12,-1
 428 551 l 1,13,-1
 973 551 l 1,14,-1
 700 1294 l 1,12,-1
549 1397 m 1,15,16
 488 1438 488 1438 457 1495.5 c 128,-1,17
 426 1553 426 1553 426 1626 c 0,18,19
 426 1741 426 1741 505.5 1821 c 128,-1,20
 585 1901 585 1901 700 1901 c 0,21,22
 814 1901 814 1901 894.5 1820.5 c 128,-1,23
 975 1740 975 1740 975 1626 c 0,24,25
 975 1556 975 1556 943.5 1497 c 128,-1,26
 912 1438 912 1438 852 1397 c 1,27,-1
 1384 0 l 1,28,-1
 1174 0 l 1,29,-1
 1038 383 l 1,30,-1
 365 383 l 1,31,-1
 229 0 l 1,32,-1
 16 0 l 1,33,-1
 549 1397 l 1,15,16
EndSplineSet
EndChar
StartChar: AE
Encoding: 198 198 198
Width: 1995
Flags: W
Fore
1845 1493 m 1,0,-1
 1845 1323 l 1,1,-1
 1104 1323 l 1,2,-1
 1104 881 l 1,3,-1
 1815 881 l 1,4,-1
 1815 711 l 1,5,-1
 1104 711 l 1,6,-1
 1104 170 l 1,7,-1
 1864 170 l 1,8,-1
 1864 0 l 1,9,-1
 901 0 l 1,10,-1
 901 383 l 1,11,-1
 373 383 l 1,12,-1
 213 0 l 1,13,-1
 8 0 l 1,14,-1
 633 1493 l 1,15,-1
 1845 1493 l 1,0,-1
772 1335 m 1,16,-1
 442 551 l 1,17,-1
 901 551 l 1,18,-1
 901 1335 l 1,19,-1
 772 1335 l 1,16,-1
EndSplineSet
EndChar
StartChar: Eth
Encoding: 208 208 208
Width: 1587
Flags: W
Fore
211 1493 m 1,0,-1
 627 1493 l 2,1,2
 1060 1493 1060 1493 1263 1312.5 c 128,-1,3
 1466 1132 1466 1132 1466 748 c 0,4,5
 1466 362 1466 362 1262.5 181 c 128,-1,6
 1059 0 1059 0 627 0 c 2,7,-1
 211 0 l 1,8,-1
 211 700 l 1,9,-1
 10 700 l 1,10,-1
 10 844 l 1,11,-1
 211 844 l 1,12,-1
 211 1493 l 1,0,-1
414 1327 m 1,13,-1
 414 844 l 1,14,-1
 750 844 l 1,15,-1
 750 700 l 1,16,-1
 414 700 l 1,17,-1
 414 166 l 1,18,-1
 657 166 l 2,19,20
 966 166 966 166 1109.5 306 c 128,-1,21
 1253 446 1253 446 1253 748 c 0,22,23
 1253 1048 1253 1048 1109.5 1187.5 c 128,-1,24
 966 1327 966 1327 657 1327 c 2,25,-1
 414 1327 l 1,13,-1
EndSplineSet
EndChar
StartChar: multiply
Encoding: 215 215 215
Width: 1716
Flags: W
Fore
1436 1100 m 1,0,-1
 979 641 l 1,1,-1
 1436 184 l 1,2,-1
 1317 63 l 1,3,-1
 858 522 l 1,4,-1
 399 63 l 1,5,-1
 281 184 l 1,6,-1
 737 641 l 1,7,-1
 281 1100 l 1,8,-1
 399 1221 l 1,9,-1
 858 762 l 1,10,-1
 1317 1221 l 1,11,-1
 1436 1100 l 1,0,-1
EndSplineSet
EndChar
StartChar: Oslash
Encoding: 216 216 216
Width: 1612
Flags: W
AnchorPoint: "above" 807 1520 basechar 0
Fore
1206 1112 m 1,0,-1
 489 266 l 1,1,2
 551 202 551 202 631.5 168.5 c 128,-1,3
 712 135 712 135 807 135 c 0,4,5
 1027 135 1027 135 1155.5 299 c 128,-1,6
 1284 463 1284 463 1284 745 c 0,7,8
 1284 857 1284 857 1264.5 949 c 128,-1,9
 1245 1041 1245 1041 1206 1112 c 1,0,-1
1124 1225 m 1,10,11
 1063 1289 1063 1289 982.5 1322.5 c 128,-1,12
 902 1356 902 1356 807 1356 c 0,13,14
 587 1356 587 1356 457.5 1192 c 128,-1,15
 328 1028 328 1028 328 745 c 0,16,17
 328 633 328 633 347.5 539 c 128,-1,18
 367 445 367 445 406 377 c 1,19,-1
 1124 1225 l 1,10,11
272 219 m 1,20,21
 194 321 194 321 154.5 453 c 128,-1,22
 115 585 115 585 115 745 c 0,23,24
 115 1099 115 1099 303.5 1309.5 c 128,-1,25
 492 1520 492 1520 807 1520 c 0,26,27
 937 1520 937 1520 1047.5 1481.5 c 128,-1,28
 1158 1443 1158 1443 1245 1368 c 1,29,-1
 1407 1559 l 1,30,-1
 1509 1470 l 1,31,-1
 1339 1272 l 1,32,33
 1417 1169 1417 1169 1457 1036 c 128,-1,34
 1497 903 1497 903 1497 745 c 0,35,36
 1497 392 1497 392 1309 181.5 c 128,-1,37
 1121 -29 1121 -29 807 -29 c 0,38,39
 679 -29 679 -29 568.5 8.5 c 128,-1,40
 458 46 458 46 367 121 c 1,41,-1
 205 -70 l 1,42,-1
 102 18 l 1,43,-1
 272 219 l 1,20,21
EndSplineSet
EndChar
StartChar: Thorn
Encoding: 222 222 222
Width: 1239
Flags: W
Fore
201 1493 m 1,0,-1
 403 1493 l 1,1,-1
 403 1229 l 1,2,-1
 657 1229 l 2,3,4
 908 1229 908 1229 1036.5 1116.5 c 128,-1,5
 1165 1004 1165 1004 1165 784 c 0,6,7
 1165 564 1165 564 1036.5 451 c 128,-1,8
 908 338 908 338 657 338 c 2,9,-1
 403 338 l 1,10,-1
 403 0 l 1,11,-1
 201 0 l 1,12,-1
 201 1493 l 1,0,-1
403 1063 m 1,13,-1
 403 504 l 1,14,-1
 657 504 l 2,15,16
 798 504 798 504 875 577 c 128,-1,17
 952 650 952 650 952 784 c 0,18,19
 952 918 952 918 875.5 990.5 c 128,-1,20
 799 1063 799 1063 657 1063 c 2,21,-1
 403 1063 l 1,13,-1
EndSplineSet
EndChar
StartChar: germandbls
Encoding: 223 223 223
Width: 1290
Flags: W
Fore
186 1137 m 2,0,1
 186 1337 186 1337 305.5 1446.5 c 128,-1,2
 425 1556 425 1556 643 1556 c 0,3,4
 851 1556 851 1556 960.5 1440 c 128,-1,5
 1070 1324 1070 1324 1073 1100 c 1,6,7
 922 1092 922 1092 838 1034.5 c 128,-1,8
 754 977 754 977 754 881 c 0,9,10
 754 834 754 834 783 793.5 c 128,-1,11
 812 753 812 753 877 711 c 2,12,-1
 934 674 l 2,13,14
 1100 568 1100 568 1148 497 c 128,-1,15
 1196 426 1196 426 1196 326 c 0,16,17
 1196 154 1196 154 1083.5 62.5 c 128,-1,18
 971 -29 971 -29 760 -29 c 0,19,20
 696 -29 696 -29 628 -16.5 c 128,-1,21
 560 -4 560 -4 487 20 c 1,22,-1
 487 184 l 1,23,24
 567 154 567 154 637 139.5 c 128,-1,25
 707 125 707 125 772 125 c 0,26,27
 888 125 888 125 948 172.5 c 128,-1,28
 1008 220 1008 220 1008 311 c 0,29,30
 1008 374 1008 374 978.5 416 c 128,-1,31
 949 458 949 458 848 520 c 2,32,-1
 756 575 l 2,33,34
 660 634 660 634 616.5 701.5 c 128,-1,35
 573 769 573 769 573 860 c 0,36,37
 573 987 573 987 656.5 1073 c 128,-1,38
 740 1159 740 1159 891 1188 c 1,39,40
 883 1291 883 1291 817.5 1347 c 128,-1,41
 752 1403 752 1403 639 1403 c 0,42,43
 509 1403 509 1403 441 1333.5 c 128,-1,44
 373 1264 373 1264 373 1133 c 2,45,-1
 373 0 l 1,46,-1
 186 0 l 1,47,-1
 186 1137 l 2,0,1
EndSplineSet
EndChar
StartChar: ae
Encoding: 230 230 230
Width: 2011
Flags: W
AnchorPoint: "below" 995 0 basechar 0
AnchorPoint: "above" 995 1147 basechar 0
Fore
1718 660 m 1,0,1
 1717 811 1717 811 1634.5 901 c 128,-1,2
 1552 991 1552 991 1415 991 c 0,3,4
 1262 991 1262 991 1169.5 904 c 128,-1,5
 1077 817 1077 817 1063 659 c 1,6,-1
 1718 660 l 1,0,1
995 963 m 1,7,8
 1069 1053 1069 1053 1175 1100 c 128,-1,9
 1281 1147 1281 1147 1413 1147 c 0,10,11
 1639 1147 1639 1147 1771 1001.5 c 128,-1,12
 1903 856 1903 856 1903 606 c 2,13,-1
 1903 516 l 1,14,-1
 1057 516 l 1,15,16
 1069 325 1069 325 1171 225 c 128,-1,17
 1273 125 1273 125 1456 125 c 0,18,19
 1560 125 1560 125 1660 151.5 c 128,-1,20
 1760 178 1760 178 1860 231 c 1,21,-1
 1860 57 l 1,22,23
 1760 15 1760 15 1656 -7 c 128,-1,24
 1552 -29 1552 -29 1446 -29 c 0,25,26
 1279 -29 1279 -29 1155 31.5 c 128,-1,27
 1031 92 1031 92 954 211 c 1,28,29
 881 91 881 91 773 31 c 128,-1,30
 665 -29 665 -29 522 -29 c 0,31,32
 333 -29 333 -29 228 64.5 c 128,-1,33
 123 158 123 158 123 326 c 0,34,35
 123 515 123 515 249.5 611 c 128,-1,36
 376 707 376 707 627 707 c 2,37,-1
 885 707 l 1,38,-1
 885 725 l 2,39,40
 885 852 885 852 801.5 921.5 c 128,-1,41
 718 991 718 991 567 991 c 0,42,43
 471 991 471 991 380 968 c 128,-1,44
 289 945 289 945 205 899 c 1,45,-1
 205 1069 l 1,46,47
 306 1108 306 1108 401 1127.5 c 128,-1,48
 496 1147 496 1147 586 1147 c 0,49,50
 728 1147 728 1147 834.5 1099 c 128,-1,51
 941 1051 941 1051 995 963 c 1,7,8
702 563 m 2,52,53
 479 563 479 563 393 512 c 128,-1,54
 307 461 307 461 307 338 c 0,55,56
 307 240 307 240 371.5 182.5 c 128,-1,57
 436 125 436 125 547 125 c 0,58,59
 700 125 700 125 792.5 233.5 c 128,-1,60
 885 342 885 342 885 522 c 2,61,-1
 885 563 l 1,62,-1
 702 563 l 2,52,53
EndSplineSet
EndChar
StartChar: eth
Encoding: 240 240 240
Width: 1253
Flags: W
AnchorPoint: "above" 637 1520 basechar 0
AnchorPoint: "below" 637 0 basechar 0
Fore
838 915 m 1,0,1
 788 932 788 932 744 940 c 128,-1,2
 700 948 700 948 659 948 c 0,3,4
 492 948 492 948 399.5 840 c 128,-1,5
 307 732 307 732 307 537 c 0,6,7
 307 349 307 349 394 238 c 128,-1,8
 481 127 481 127 627 127 c 0,9,10
 772 127 772 127 859 238 c 128,-1,11
 946 349 946 349 946 537 c 0,12,13
 946 659 946 659 919 753 c 128,-1,14
 892 847 892 847 838 915 c 1,0,1
901 1141 m 2,15,16
 1027 998 1027 998 1084 854 c 128,-1,17
 1141 710 1141 710 1141 537 c 0,18,19
 1141 282 1141 282 999 126.5 c 128,-1,20
 857 -29 857 -29 627 -29 c 0,21,22
 396 -29 396 -29 254.5 126.5 c 128,-1,23
 113 282 113 282 113 537 c 0,24,25
 113 787 113 787 251 942.5 c 128,-1,26
 389 1098 389 1098 610 1098 c 0,27,28
 628 1098 628 1098 654 1095.5 c 128,-1,29
 680 1093 680 1093 722 1088 c 1,30,-1
 563 1268 l 1,31,-1
 244 1161 l 1,32,-1
 211 1260 l 1,33,-1
 492 1352 l 1,34,-1
 311 1556 l 1,35,-1
 539 1556 l 1,36,-1
 666 1411 l 1,37,-1
 999 1522 l 1,38,-1
 1032 1425 l 1,39,-1
 737 1327 l 1,40,-1
 901 1141 l 2,15,16
EndSplineSet
EndChar
StartChar: divide
Encoding: 247 247 247
Width: 1716
Flags: W
Fore
735 1135 m 1,0,-1
 981 1135 l 1,1,-1
 981 889 l 1,2,-1
 735 889 l 1,3,-1
 735 1135 l 1,0,-1
735 395 m 1,4,-1
 981 395 l 1,5,-1
 981 150 l 1,6,-1
 735 150 l 1,7,-1
 735 395 l 1,4,-1
217 727 m 1,8,-1
 1499 727 l 1,9,-1
 1499 557 l 1,10,-1
 217 557 l 1,11,-1
 217 727 l 1,8,-1
EndSplineSet
EndChar
StartChar: oslash
Encoding: 248 248 248
Width: 1253
Flags: W
AnchorPoint: "below" 637 0 basechar 0
AnchorPoint: "above" 637 1147 basechar 0
Fore
905 801 m 1,0,-1
 418 209 l 1,1,2
 459 167 459 167 510.5 147 c 128,-1,3
 562 127 562 127 627 127 c 0,4,5
 774 127 774 127 860 243 c 128,-1,6
 946 359 946 359 946 559 c 0,7,8
 946 638 946 638 936 696.5 c 128,-1,9
 926 755 926 755 905 801 c 1,0,-1
834 909 m 1,10,11
 792 950 792 950 740.5 970.5 c 128,-1,12
 689 991 689 991 627 991 c 0,13,14
 476 991 476 991 391.5 873.5 c 128,-1,15
 307 756 307 756 307 545 c 0,16,17
 307 473 307 473 316.5 418 c 128,-1,18
 326 363 326 363 346 317 c 1,19,-1
 834 909 l 1,10,11
221 166 m 1,20,21
 167 243 167 243 140 341.5 c 128,-1,22
 113 440 113 440 113 559 c 0,23,24
 113 835 113 835 249.5 991 c 128,-1,25
 386 1147 386 1147 627 1147 c 0,26,27
 720 1147 720 1147 799.5 1121.5 c 128,-1,28
 879 1096 879 1096 946 1044 c 1,29,-1
 1085 1212 l 1,30,-1
 1180 1133 l 1,31,-1
 1034 954 l 1,32,33
 1087 877 1087 877 1114 778 c 128,-1,34
 1141 679 1141 679 1141 559 c 0,35,36
 1141 284 1141 284 1004 127.5 c 128,-1,37
 867 -29 867 -29 627 -29 c 0,38,39
 531 -29 531 -29 450.5 -3 c 128,-1,40
 370 23 370 23 307 74 c 1,41,-1
 168 -94 l 1,42,-1
 72 -16 l 1,43,-1
 221 166 l 1,20,21
EndSplineSet
EndChar
StartChar: thorn
Encoding: 254 254 254
Width: 1300
Flags: W
AnchorPoint: "above" 278 1520 basechar 0
Fore
371 168 m 1,0,-1
 371 -426 l 1,1,-1
 186 -426 l 1,2,-1
 186 1556 l 1,3,-1
 371 1556 l 1,4,-1
 371 950 l 1,5,6
 429 1050 429 1050 517.5 1098.5 c 128,-1,7
 606 1147 606 1147 729 1147 c 0,8,9
 933 1147 933 1147 1060.5 985 c 128,-1,10
 1188 823 1188 823 1188 559 c 0,11,12
 1188 295 1188 295 1060.5 133 c 128,-1,13
 933 -29 933 -29 729 -29 c 0,14,15
 606 -29 606 -29 517.5 19.5 c 128,-1,16
 429 68 429 68 371 168 c 1,0,-1
997 559 m 0,17,18
 997 762 997 762 913.5 877.5 c 128,-1,19
 830 993 830 993 684 993 c 0,20,21
 538 993 538 993 454.5 877.5 c 128,-1,22
 371 762 371 762 371 559 c 0,23,24
 371 356 371 356 454.5 240.5 c 128,-1,25
 538 125 538 125 684 125 c 0,26,27
 830 125 830 125 913.5 240.5 c 128,-1,28
 997 356 997 356 997 559 c 0,17,18
EndSplineSet
EndChar
StartChar: dcroat
Encoding: 273 273 273
Width: 1300
Flags: W
Fore
930 950 m 1,0,-1
 930 1284 l 1,1,-1
 604 1284 l 1,2,-1
 604 1409 l 1,3,-1
 930 1409 l 1,4,-1
 930 1556 l 1,5,-1
 1114 1556 l 1,6,-1
 1114 1409 l 1,7,-1
 1268 1409 l 1,8,-1
 1268 1284 l 1,9,-1
 1114 1284 l 1,10,-1
 1114 0 l 1,11,-1
 930 0 l 1,12,-1
 930 168 l 1,13,14
 872 68 872 68 783.5 19.5 c 128,-1,15
 695 -29 695 -29 571 -29 c 0,16,17
 368 -29 368 -29 240.5 133 c 128,-1,18
 113 295 113 295 113 559 c 0,19,20
 113 823 113 823 240.5 985 c 128,-1,21
 368 1147 368 1147 571 1147 c 0,22,23
 695 1147 695 1147 783.5 1098.5 c 128,-1,24
 872 1050 872 1050 930 950 c 1,0,-1
303 559 m 0,25,26
 303 356 303 356 386.5 240.5 c 128,-1,27
 470 125 470 125 616 125 c 0,28,29
 762 125 762 125 846 240.5 c 128,-1,30
 930 356 930 356 930 559 c 0,31,32
 930 762 930 762 846 877.5 c 128,-1,33
 762 993 762 993 616 993 c 0,34,35
 470 993 470 993 386.5 877.5 c 128,-1,36
 303 762 303 762 303 559 c 0,25,26
EndSplineSet
EndChar
StartChar: Hbar
Encoding: 294 294 294
Width: 1876
Flags: W
AnchorPoint: "above" 938 1520 basechar 0
Fore
369 1493 m 1,0,-1
 571 1493 l 1,1,-1
 571 1269 l 1,2,-1
 1305 1269 l 1,3,-1
 1305 1493 l 1,4,-1
 1507 1493 l 1,5,-1
 1507 1269 l 1,6,-1
 1675 1269 l 1,7,-1
 1675 1105 l 1,8,-1
 1507 1105 l 1,9,-1
 1507 0 l 1,10,-1
 1305 0 l 1,11,-1
 1305 711 l 1,12,-1
 571 711 l 1,13,-1
 571 0 l 1,14,-1
 369 0 l 1,15,-1
 369 1105 l 1,16,-1
 201 1105 l 1,17,-1
 201 1269 l 1,18,-1
 369 1269 l 1,19,-1
 369 1493 l 1,0,-1
571 1105 m 1,20,-1
 571 881 l 1,21,-1
 1305 881 l 1,22,-1
 1305 1105 l 1,23,-1
 571 1105 l 1,20,-1
EndSplineSet
EndChar
StartChar: hbar
Encoding: 295 295 295
Width: 1423
Flags: W
AnchorPoint: "below" 720 0 basechar 0
AnchorPoint: "above" 337 1520 basechar 0
Fore
1183 676 m 2,0,-1
 1183 0 l 1,1,-1
 999 0 l 1,2,-1
 999 670 l 2,3,4
 999 829 999 829 937 908 c 128,-1,5
 875 987 875 987 751 987 c 0,6,7
 602 987 602 987 516 892 c 128,-1,8
 430 797 430 797 430 633 c 2,9,-1
 430 0 l 1,10,-1
 245 0 l 1,11,-1
 245 1270 l 1,12,-1
 120 1270 l 1,13,-1
 120 1434 l 1,14,-1
 245 1434 l 1,15,-1
 245 1556 l 1,16,-1
 430 1556 l 1,17,-1
 430 1434 l 1,18,-1
 782 1434 l 1,19,-1
 782 1270 l 1,20,-1
 430 1270 l 1,21,-1
 430 946 l 1,22,23
 496 1047 496 1047 585.5 1097 c 128,-1,24
 675 1147 675 1147 792 1147 c 0,25,26
 985 1147 985 1147 1084 1027.5 c 128,-1,27
 1183 908 1183 908 1183 676 c 2,0,-1
EndSplineSet
EndChar
StartChar: dotlessi
Encoding: 305 305 305
Width: 569
Flags: W
AnchorPoint: "above" 287 1147 basechar 0
Fore
193 1120 m 1,0,-1
 377 1120 l 1,1,-1
 377 0 l 1,2,-1
 193 0 l 1,3,-1
 193 1120 l 1,0,-1
EndSplineSet
EndChar
StartChar: kgreenlandic
Encoding: 312 312 312
Width: 1186
Flags: W
AnchorPoint: "below" 678 0 basechar 0
AnchorPoint: "above" 678 1147 basechar 0
Fore
186 1120 m 1,0,-1
 371 1120 l 1,1,-1
 371 635 l 1,2,-1
 920 1120 l 1,3,-1
 1155 1120 l 1,4,-1
 561 594 l 1,5,-1
 1180 0 l 1,6,-1
 940 0 l 1,7,-1
 371 545 l 1,8,-1
 371 0 l 1,9,-1
 186 0 l 1,10,-1
 186 1120 l 1,0,-1
EndSplineSet
EndChar
StartChar: Lslash
Encoding: 321 321 321
Width: 1151
Flags: W
Fore
211 1493 m 1,0,-1
 414 1493 l 1,1,-1
 414 877 l 1,2,-1
 727 1096 l 1,3,-1
 807 985 l 1,4,-1
 414 711 l 1,5,-1
 414 170 l 1,6,-1
 1141 170 l 1,7,-1
 1141 0 l 1,8,-1
 211 0 l 1,9,-1
 211 571 l 1,10,-1
 63 465 l 1,11,-1
 -14 575 l 1,12,-1
 211 733 l 1,13,-1
 211 1493 l 1,0,-1
EndSplineSet
EndChar
StartChar: lslash
Encoding: 322 322 322
Width: 582
Flags: W
Fore
199 1556 m 1,0,-1
 383 1556 l 1,1,-1
 383 954 l 1,2,-1
 508 1044 l 1,3,-1
 584 938 l 1,4,-1
 383 797 l 1,5,-1
 383 0 l 1,6,-1
 199 0 l 1,7,-1
 199 666 l 1,8,-1
 76 578 l 1,9,-1
 2 684 l 1,10,-1
 199 825 l 1,11,-1
 199 1556 l 1,0,-1
EndSplineSet
EndChar
StartChar: Eng
Encoding: 330 330 330
Width: 1532
Flags: W
AnchorPoint: "above" 757 1520 basechar 0
Fore
213 1493 m 1,0,-1
 397 1493 l 1,1,-1
 1135 344 l 1,2,-1
 1135 1493 l 1,3,-1
 1319 1493 l 1,4,-1
 1319 -20 l 18,5,6
 1319 -234 1319 -234 1237 -330 c 0,7,8
 1156 -426 1156 -426 975 -426 c 2,9,-1
 721 -426 l 1,10,-1
 721 -270 l 1,11,-1
 954 -270 l 2,12,13
 1059 -270 1059 -270 1097 -222 c 0,14,15
 1135 -173 1135 -173 1135 0 c 1,16,-1
 397 1149 l 1,17,-1
 397 0 l 1,18,-1
 213 0 l 1,19,-1
 213 1493 l 1,0,-1
EndSplineSet
Substitution2: "'salt' Stylistic Alternatives in Latin lookup 28" Eng.alt
Substitution2: "'locl' Localized Forms in Latin lookup 4" Eng.alt
Substitution2: "'aalt' Access All Alternates in Latin lookup 27" Eng.alt
EndChar
StartChar: eng
Encoding: 331 331 331
Width: 1298
Flags: W
AnchorPoint: "below" 649 -430 basechar 0
AnchorPoint: "above" 649 1147 basechar 0
Fore
1124 676 m 2,0,-1
 1124 -20 l 2,1,2
 1124 -234 1124 -234 1042 -330 c 0,3,4
 961 -426 961 -426 780 -426 c 2,5,-1
 526 -426 l 1,6,-1
 526 -270 l 1,7,-1
 759 -270 l 2,8,9
 864 -270 864 -270 902 -222 c 0,10,11
 940 -173 940 -173 940 -20 c 2,12,-1
 940 670 l 2,13,14
 940 829 940 829 878 908 c 128,-1,15
 816 987 816 987 692 987 c 0,16,17
 543 987 543 987 457 892 c 128,-1,18
 371 797 371 797 371 633 c 2,19,-1
 371 0 l 1,20,-1
 186 0 l 1,21,-1
 186 1120 l 1,22,-1
 371 1120 l 1,23,-1
 371 946 l 1,24,25
 437 1047 437 1047 526 1097 c 0,26,27
 616 1147 616 1147 733 1147 c 0,28,29
 926 1147 926 1147 1025 1028 c 0,30,31
 1124 908 1124 908 1124 676 c 2,0,-1
EndSplineSet
EndChar
StartChar: OE
Encoding: 338 338 338
Width: 2191
Flags: W
Fore
2042 1493 m 1,0,-1
 2042 1323 l 1,1,-1
 1300 1323 l 1,2,-1
 1300 881 l 1,3,-1
 2011 881 l 1,4,-1
 2011 711 l 1,5,-1
 1300 711 l 1,6,-1
 1300 170 l 1,7,-1
 2060 170 l 1,8,-1
 2060 0 l 1,9,-1
 995 0 l 2,10,11
 562 0 562 0 338.5 190 c 128,-1,12
 115 380 115 380 115 748 c 0,13,14
 115 1113 115 1113 338.5 1303 c 128,-1,15
 562 1493 562 1493 995 1493 c 2,16,-1
 2042 1493 l 1,0,-1
1098 1323 m 1,17,-1
 969 1323 l 2,18,19
 648 1323 648 1323 488 1179.5 c 128,-1,20
 328 1036 328 1036 328 748 c 0,21,22
 328 459 328 459 488 314.5 c 128,-1,23
 648 170 648 170 969 170 c 2,24,-1
 1098 170 l 1,25,-1
 1098 1323 l 1,17,-1
EndSplineSet
EndChar
StartChar: oe
Encoding: 339 339 339
Width: 2095
Flags: W
AnchorPoint: "above" 1044 1147 basechar 0
Fore
1802 660 m 1,0,1
 1800 812 1800 812 1718 901.5 c 128,-1,2
 1636 991 1636 991 1499 991 c 0,3,4
 1346 991 1346 991 1253.5 904 c 128,-1,5
 1161 817 1161 817 1147 659 c 1,6,-1
 1802 660 l 1,0,1
1987 606 m 2,7,-1
 1987 516 l 1,8,-1
 1141 516 l 1,9,10
 1153 326 1153 326 1255 226.5 c 128,-1,11
 1357 127 1357 127 1540 127 c 0,12,13
 1646 127 1646 127 1746 153 c 128,-1,14
 1846 179 1846 179 1944 231 c 1,15,-1
 1944 57 l 1,16,17
 1844 15 1844 15 1740 -7 c 128,-1,18
 1636 -29 1636 -29 1530 -29 c 0,19,20
 1370 -29 1370 -29 1249 26 c 128,-1,21
 1128 81 1128 81 1047 190 c 1,22,23
 976 80 976 80 871.5 25.5 c 128,-1,24
 767 -29 767 -29 627 -29 c 0,25,26
 386 -29 386 -29 249.5 127.5 c 128,-1,27
 113 284 113 284 113 559 c 0,28,29
 113 835 113 835 249.5 991 c 128,-1,30
 386 1147 386 1147 627 1147 c 0,31,32
 767 1147 767 1147 872.5 1091.5 c 128,-1,33
 978 1036 978 1036 1044 928 c 1,34,35
 1122 1035 1122 1035 1238 1091 c 128,-1,36
 1354 1147 1354 1147 1497 1147 c 0,37,38
 1723 1147 1723 1147 1855 1001.5 c 128,-1,39
 1987 856 1987 856 1987 606 c 2,7,-1
627 991 m 0,40,41
 479 991 479 991 393 875.5 c 128,-1,42
 307 760 307 760 307 559 c 0,43,44
 307 358 307 358 392.5 242.5 c 128,-1,45
 478 127 478 127 627 127 c 0,46,47
 774 127 774 127 860 243 c 128,-1,48
 946 359 946 359 946 559 c 0,49,50
 946 758 946 758 860 874.5 c 128,-1,51
 774 991 774 991 627 991 c 0,40,41
EndSplineSet
EndChar
StartChar: Tbar
Encoding: 358 358 358
Width: 1251
Flags: W
TeX: 0 0 0 0
Fore
-6 1493 m 1,0,-1
 1257 1493 l 1,1,-1
 1257 1323 l 1,2,-1
 727 1323 l 1,3,-1
 727 747 l 1,4,-1
 992 747 l 1,5,-1
 992 577 l 1,6,-1
 727 577 l 1,7,-1
 727 0 l 1,8,-1
 524 0 l 1,9,-1
 524 577 l 1,10,-1
 259 577 l 1,11,-1
 259 747 l 1,12,-1
 524 747 l 1,13,-1
 524 1323 l 1,14,-1
 -6 1323 l 1,15,-1
 -6 1493 l 1,0,-1
EndSplineSet
EndChar
StartChar: tbar
Encoding: 359 359 359
Width: 803
Flags: W
TeX: 0 0 0 0
Fore
375 1438 m 1,0,-1
 375 1120 l 1,1,-1
 754 1120 l 1,2,-1
 754 977 l 1,3,-1
 375 977 l 1,4,-1
 375 744 l 1,5,-1
 565 744 l 1,6,-1
 565 602 l 1,7,-1
 375 602 l 1,8,-1
 375 369 l 2,9,10
 375 232 375 232 412 193 c 0,11,12
 450 154 450 154 565 154 c 2,13,-1
 754 154 l 1,14,-1
 754 0 l 1,15,-1
 565 0 l 2,16,17
 352 0 352 0 271 80 c 0,18,19
 190 159 190 159 190 369 c 2,20,-1
 190 602 l 1,21,-1
 55 602 l 1,22,-1
 55 744 l 1,23,-1
 190 744 l 1,24,-1
 190 977 l 1,25,-1
 55 977 l 1,26,-1
 55 1120 l 1,27,-1
 190 1120 l 1,28,-1
 190 1438 l 1,29,-1
 375 1438 l 1,0,-1
EndSplineSet
EndChar
StartChar: longs
Encoding: 383 383 383
Width: 721
Flags: W
TeX: 0 0 0 0
Fore
408 0 m 1,0,-1
 223 0 l 1,1,-1
 223 977 l 1,2,-1
 47 977 l 1,3,-1
 47 1120 l 1,4,-1
 223 1120 l 1,5,-1
 223 1198 l 2,6,7
 223 1385 223 1385 310 1470.5 c 128,-1,8
 397 1556 397 1556 586 1556 c 2,9,-1
 760 1556 l 1,10,-1
 760 1403 l 1,11,-1
 584 1403 l 2,12,13
 485 1403 485 1403 446.5 1363 c 0,14,15
 408 1321.93 408 1321.93 408 1219 c 2,16,-1
 408 0 l 1,0,-1
EndSplineSet
EndChar
StartChar: uni0180
Encoding: 384 384 384
Width: 1300
Flags: W
TeX: 117 0 0 0
AnchorPoint: "above" 278 1520 basechar 0
Fore
997 559 m 0,0,1
 997 762 997 762 913.5 877.5 c 0,2,3
 830 993 830 993 684 993 c 0,4,5
 538 993 538 993 454.5 877.5 c 0,6,7
 371 762 371 762 371 559 c 0,8,9
 371 356 371 356 454.5 240.5 c 0,10,11
 538 125 538 125 684 125 c 0,12,13
 830 125 830 125 913.5 240.5 c 0,14,15
 997 356 997 356 997 559 c 0,0,1
371 950 m 1,16,17
 429 1050.01 429 1050.01 517.5 1098.5 c 0,18,19
 606.009 1147 606.009 1147 729 1147 c 0,20,21
 933 1147 933 1147 1060.5 985 c 0,22,23
 1188 823 1188 823 1188 559 c 0,24,25
 1188 295 1188 295 1060.5 133 c 0,26,27
 933 -29 933 -29 729 -29 c 0,28,29
 606 -29 606 -29 517.5 19.5 c 0,30,31
 429 68 429 68 371 168 c 1,32,-1
 371 0 l 1,33,-1
 186 0 l 1,34,-1
 186 1284 l 1,35,-1
 32 1284 l 1,36,-1
 32 1409 l 1,37,-1
 186 1409 l 1,38,-1
 186 1556 l 1,39,-1
 371 1556 l 1,40,-1
 371 1409 l 1,41,-1
 696 1409 l 1,42,-1
 696 1284 l 1,43,-1
 371 1284 l 1,44,-1
 371 950 l 1,16,17
EndSplineSet
EndChar
StartChar: uni0181
Encoding: 385 385 385
Width: 1505
Flags: W
TeX: 117 0 0 0
Fore
503 713 m 1,0,-1
 503 166 l 1,1,-1
 827 166 l 2,2,3
 990.005 166 990.005 166 1068.5 233.5 c 128,-1,4
 1147 301.009 1147 301.009 1147 440 c 0,5,6
 1147 579.992 1147 579.992 1068.5 646.5 c 128,-1,7
 990.004 713 990.004 713 827 713 c 2,8,-1
 503 713 l 1,0,-1
503 1327 m 1,9,-1
 503 877 l 1,10,-1
 802 877 l 2,11,12
 950 877 950 877 1022.5 932.5 c 128,-1,13
 1095 988.004 1095 988.004 1095 1102 c 0,14,15
 1095 1215 1095 1215 1022.5 1271 c 128,-1,16
 949.988 1327 949.988 1327 802 1327 c 2,17,-1
 503 1327 l 1,9,-1
301 1493 m 2,18,-1
 817 1493 l 2,19,20
 1048.01 1493 1048.01 1493 1173 1397 c 128,-1,21
 1298 1301 1298 1301 1298 1124 c 0,22,23
 1298 986.989 1298 986.989 1234 906 c 128,-1,24
 1169.99 824.999 1169.99 824.999 1046 805 c 1,25,26
 1195 772.998 1195 772.998 1277.5 671.5 c 128,-1,27
 1360 570 1360 570 1360 418 c 0,28,29
 1360 217.993 1360 217.993 1224 109 c 128,-1,30
 1087.99 0 1087.99 0 837 0 c 2,31,-1
 301 0 l 1,32,-1
 301.358 1327.52 l 1,33,34
 169.399 1327.52 169.399 1327.52 110.198 1280.25 c 128,-1,35
 51 1232.99 51 1232.99 51 1128 c 2,36,-1
 51 1079 l 1,37,-1
 -105 1079 l 1,38,-1
 -105 1149 l 2,39,40
 -105 1330.01 -105 1330.01 -9 1411.5 c 128,-1,41
 87.0078 1493 87.0078 1493 301 1493 c 2,18,-1
EndSplineSet
EndChar
StartChar: uni0183
Encoding: 387 387 387
Width: 1300
Flags: W
TeX: 117 0 0 0
AnchorPoint: "above" 278 1520 basechar 0
AnchorPoint: "below" 695 0 basechar 0
Fore
371 950 m 1,0,1
 429 1050.01 429 1050.01 517.5 1098.5 c 0,2,3
 606.009 1147 606.009 1147 729 1147 c 0,4,5
 933 1147 933 1147 1060.5 985 c 0,6,7
 1188 823 1188 823 1188 559 c 0,8,9
 1188 295 1188 295 1060.5 133 c 0,10,11
 933 -29 933 -29 729 -29 c 0,12,13
 606 -29 606 -29 517.5 19.5 c 0,14,15
 429 68 429 68 371 168 c 1,16,-1
 371 0 l 1,17,-1
 186 0 l 1,18,-1
 186 1556 l 1,19,-1
 1032 1556 l 1,20,-1
 1032 1390 l 1,21,-1
 371 1390.55 l 1,22,-1
 371 950 l 1,0,1
997 559 m 0,23,24
 997 762 997 762 913.5 877.5 c 0,25,26
 830 993 830 993 684 993 c 0,27,28
 538 993 538 993 454.5 877.5 c 0,29,30
 371 762 371 762 371 559 c 0,31,32
 371 356 371 356 454.5 240.5 c 0,33,34
 538 125 538 125 684 125 c 0,35,36
 830 125 830 125 913.5 240.5 c 0,37,38
 997 356 997 356 997 559 c 0,23,24
EndSplineSet
EndChar
StartChar: uni0184
Encoding: 388 388 388
Width: 1405
Flags: W
TeX: 117 0 0 0
Fore
1047 439 m 24,0,1
 1047 578 1047 578 968 646 c 0,2,3
 890 713 890 713 727 713 c 2,4,-1
 403 713 l 1,5,-1
 403 166 l 1,6,-1
 727 166 l 2,7,8
 890 166 890 166 968 234 c 0,9,10
 1047 301 1047 301 1047 439 c 24,0,1
403 1493 m 9,11,-1
 403 879 l 1,12,-1
 737 879 l 2,13,14
 988 879 988 879 1124 770 c 128,-1,15
 1260 661 1260 661 1260 439 c 24,16,17
 1260 218 1260 218 1124 109 c 128,-1,18
 988 0 988 0 737 0 c 2,19,-1
 201 0 l 1,20,-1
 201 1092 l 1,21,-1
 0 1092 l 1,22,-1
 312 1493 l 1,23,-1
 403 1493 l 9,11,-1
EndSplineSet
EndChar
StartChar: uni0185
Encoding: 389 389 389
Width: 1300
Flags: W
TeX: 117 0 0 0
Fore
371 950 m 1,0,1
 429 1050.01 429 1050.01 517.5 1098.5 c 128,-1,2
 606.009 1147 606.009 1147 729 1147 c 0,3,4
 933 1147 933 1147 1060.5 985 c 128,-1,5
 1188 823 1188 823 1188 559 c 0,6,7
 1188 295 1188 295 1060.5 133 c 128,-1,8
 933 -29 933 -29 729 -29 c 0,9,10
 606 -29 606 -29 517.5 19.5 c 128,-1,11
 429 68 429 68 371 168 c 1,12,-1
 371 0 l 1,13,-1
 186 0 l 1,14,-1
 186 1092 l 1,15,-1
 0 1092 l 1,16,-1
 290 1556.55 l 1,17,-1
 371 1556.55 l 1,18,-1
 371 950 l 1,0,1
997 559 m 0,19,20
 997 762 997 762 913.5 877.5 c 128,-1,21
 830 993 830 993 684 993 c 0,22,23
 538 993 538 993 454.5 877.5 c 128,-1,24
 371 762 371 762 371 559 c 0,25,26
 371 356 371 356 454.5 240.5 c 128,-1,27
 538 125 538 125 684 125 c 0,28,29
 830 125 830 125 913.5 240.5 c 128,-1,30
 997 356 997 356 997 559 c 0,19,20
EndSplineSet
EndChar
StartChar: uni0186
Encoding: 390 390 390
Width: 1440
Flags: W
TeX: 117 0 0 0
AnchorPoint: "above" 604 1520 basechar 0
Fore
115 1378 m 1,0,1
 219 1449 219 1449 337.5 1484.5 c 128,-1,2
 456 1520 456 1520 590 1520 c 0,3,4
 929 1520 929 1520 1124 1312.5 c 128,-1,5
 1319 1105 1319 1105 1319 745 c 0,6,7
 1319 386 1319 386 1124 178.5 c 128,-1,8
 929 -29 929 -29 590 -29 c 0,9,10
 458 -29 458 -29 339.5 7 c 128,-1,11
 221 43 221 43 115 115 c 1,12,-1
 115 326 l 1,13,14
 217 231 217 231 332.5 184 c 128,-1,15
 448 137 448 137 578 137 c 0,16,17
 834 137 834 137 970 293.5 c 128,-1,18
 1106 450 1106 450 1106 745 c 0,19,20
 1106 1041 1106 1041 970 1197.5 c 128,-1,21
 834 1354 834 1354 578 1354 c 0,22,23
 448 1354 448 1354 332.5 1307 c 128,-1,24
 217 1260 217 1260 115 1165 c 1,25,-1
 115 1378 l 1,0,1
EndSplineSet
EndChar
StartChar: uni0187
Encoding: 391 391 391
Width: 1430
Flags: W
TeX: 117 0 0 0
AnchorPoint: "above" 844 1520 basechar 0
Fore
1319 1378 m 2,0,-1
 1319 1165 l 1,1,2
 1217 1260 1217 1260 1101.5 1307 c 128,-1,3
 986 1354 986 1354 856 1354 c 8,4,5
 600 1354 600 1354 464 1197.5 c 128,-1,6
 328 1041 328 1041 328 745 c 0,7,8
 328 450 328 450 464 293.5 c 128,-1,9
 600 137 600 137 856 137 c 0,10,11
 986 137 986 137 1101.5 184 c 128,-1,12
 1217 231 1217 231 1319 326 c 1,13,-1
 1319 115 l 1,14,15
 1213 43 1213 43 1094.5 7 c 128,-1,16
 976 -29 976 -29 844 -29 c 0,17,18
 505 -29 505 -29 310 178.5 c 128,-1,19
 115 386 115 386 115 745 c 0,20,21
 115 1105 115 1105 310 1312.5 c 128,-1,22
 505 1520 505 1520 844 1520 c 24,23,24
 940 1520 940 1520 1096 1484 c 0,25,26
 1109 1481 1109 1481 1121 1477 c 1,27,28
 1137 1672 1137 1672 1220 1770 c 0,29,30
 1322 1892 1322 1892 1549 1892 c 2,31,-1
 1626 1892 l 1,32,-1
 1626 1722 l 1,33,-1
 1563 1722 l 2,34,35
 1429 1722 1429 1722 1374 1647 c 128,-1,36
 1319 1572 1319 1572 1319 1378 c 2,0,-1
EndSplineSet
EndChar
StartChar: uni0188
Encoding: 392 392 392
Width: 1126
Flags: W
TeX: 117 0 0 0
Fore
999 1150 m 2,0,-1
 999 905 l 1,1,2
 921 948 921 948 842.5 969.5 c 128,-1,3
 764 991 764 991 684 991 c 0,4,5
 505 991 505 991 406 877.5 c 128,-1,6
 307 764 307 764 307 559 c 0,7,8
 307 354 307 354 406 240.5 c 128,-1,9
 505 127 505 127 684 127 c 0,10,11
 764 127 764 127 842.5 148.5 c 128,-1,12
 921 170 921 170 999 213 c 1,13,-1
 999 43 l 1,14,15
 922 7 922 7 839.5 -11 c 128,-1,16
 757 -29 757 -29 664 -29 c 0,17,18
 411 -29 411 -29 262 130 c 128,-1,19
 113 289 113 289 113 559 c 0,20,21
 113 833 113 833 263.5 990 c 128,-1,22
 414 1147 414 1147 676 1147 c 24,23,24
 746.755 1147 746.755 1147 817 1135 c 9,25,-1
 817 1150 l 18,26,27
 817 1364 817 1364 897.5 1460 c 128,-1,28
 978 1556 978 1556 1159 1556 c 2,29,-1
 1228 1556 l 1,30,-1
 1228 1400 l 1,31,-1
 1180 1400 l 2,32,33
 1075 1400 1075 1400 1037 1351.5 c 128,-1,34
 999 1303 999 1303 999 1150 c 2,0,-1
EndSplineSet
EndChar
StartChar: uni018A
Encoding: 394 394 394
Width: 1677
Flags: W
TeX: 117 0 0 0
Fore
503 1327 m 1,0,-1
 503 166 l 1,1,-1
 747 166 l 2,2,3
 1055.99 166 1055.99 166 1199.5 306 c 128,-1,4
 1343 445.992 1343 445.992 1343 748 c 0,5,6
 1343 1048 1343 1048 1199.5 1187.5 c 128,-1,7
 1055.99 1327 1055.99 1327 747 1327 c 2,8,-1
 503 1327 l 1,0,-1
301 1493 m 2,9,-1
 716 1493 l 2,10,11
 1150 1493 1150 1493 1353 1312.5 c 128,-1,12
 1556 1132 1556 1132 1556 748 c 0,13,14
 1556 362 1556 362 1352 181 c 128,-1,15
 1148 0 1148 0 716 0 c 2,16,-1
 301 0 l 1,17,-1
 301.358 1327.52 l 1,18,19
 169.399 1327.52 169.399 1327.52 110.198 1280.25 c 128,-1,20
 51 1232.99 51 1232.99 51 1128 c 2,21,-1
 51 1079 l 1,22,-1
 -105 1079 l 1,23,-1
 -105 1149 l 2,24,25
 -105 1330.01 -105 1330.01 -9 1411.5 c 128,-1,26
 87.0078 1493 87.0078 1493 301 1493 c 2,9,-1
EndSplineSet
EndChar
StartChar: uni018B
Encoding: 395 395 395
Width: 1405
Flags: W
TeX: 117 0 0 0
Fore
414 439 m 24,0,1
 414 166 414 166 734 166 c 2,2,-1
 1058 166 l 1,3,-1
 1058 713 l 1,4,-1
 734 713 l 2,5,6
 571 713 571 713 492.5 645.5 c 128,-1,7
 414 578 414 578 414 439 c 24,0,1
414 1493 m 25,8,-1
 1260 1493 l 1,9,-1
 1260 0 l 1,10,-1
 724 0 l 2,11,12
 473 0 473 0 337 109 c 128,-1,13
 201 218 201 218 201 439.5 c 0,14,15
 201 661 201 661 337 770 c 128,-1,16
 473 879 473 879 724 879 c 2,17,-1
 1058 879 l 1,18,-1
 1058 1327 l 1,19,-1
 414 1327 l 1,20,-1
 414 1493 l 25,8,-1
EndSplineSet
EndChar
StartChar: uni018C
Encoding: 396 396 396
Width: 1300
Flags: W
TeX: 117 0 0 0
AnchorPoint: "above" 1022 1520 basechar 0
AnchorPoint: "below" 614 0 basechar 0
Fore
269 1390 m 1,0,-1
 269 1556 l 1,1,-1
 1114 1556 l 1,2,-1
 1114 0 l 1,3,-1
 930 0 l 1,4,-1
 930 168 l 1,5,6
 872 68 872 68 783.5 19.5 c 128,-1,7
 695 -29 695 -29 571 -29 c 0,8,9
 368 -29 368 -29 240.5 133 c 128,-1,10
 113 295 113 295 113 559 c 0,11,12
 113 823 113 823 240.5 985 c 128,-1,13
 368 1147 368 1147 571 1147 c 0,14,15
 695 1147 695 1147 783.5 1098.5 c 128,-1,16
 872 1050 872 1050 930 950 c 1,17,-1
 930 1391 l 1,18,-1
 269 1390 l 1,0,-1
303 559 m 0,19,20
 303 356 303 356 386.5 240.5 c 128,-1,21
 470 125 470 125 616 125 c 0,22,23
 762 125 762 125 846 240.5 c 128,-1,24
 930 356 930 356 930 559 c 0,25,26
 930 762 930 762 846 877.5 c 128,-1,27
 762 993 762 993 616 993 c 0,28,29
 470 993 470 993 386.5 877.5 c 128,-1,30
 303 762 303 762 303 559 c 0,19,20
EndSplineSet
EndChar
StartChar: uni018D
Encoding: 397 397 397
Width: 1253
Flags: W
TeX: 117 0 0 0
Fore
875 66 m 1,0,1
 1032 -13 1032 -13 1032 -154 c 0,2,3
 1032 -426 1032 -426 591 -426 c 0,4,5
 370 -426 370 -426 250 -356 c 1,6,-1
 250 -203 l 17,7,8
 352 -273 352 -273 598 -273 c 0,9,10
 844 -273 844 -273 844 -156 c 0,11,12
 844 -64 844 -64 580 -16 c 0,13,14
 372 21 372 21 255 133 c 0,15,16
 113 268 113 268 113 539 c 0,17,18
 113 810 113 810 250 966.5 c 128,-1,19
 387 1123 387 1123 626.5 1123 c 0,20,21
 866 1123 866 1123 1003.5 966.5 c 128,-1,22
 1141 810 1141 810 1140 535 c 24,23,24
 1140 379 1140 379 1062.5 249 c 128,-1,25
 985 119 985 119 875 66 c 1,0,1
946 535 m 24,26,27
 947 738 947 738 861.5 852.5 c 128,-1,28
 776 967 776 967 628 967 c 0,29,30
 480 967 480 967 394 851 c 128,-1,31
 308 735 308 735 308 540.5 c 0,32,33
 308 346 308 346 402 246.5 c 128,-1,34
 496 147 496 147 622 136 c 0,35,36
 686 130 686 130 737 116 c 1,37,38
 836 158 836 158 891 268 c 128,-1,39
 946 378 946 378 946 535 c 24,26,27
EndSplineSet
EndChar
StartChar: uni018E
Encoding: 398 398 398
Width: 1294
Flags: W
TeX: 117 0 0 0
AnchorPoint: "above" 600 1520 basechar 0
Fore
1093 1493 m 1,0,-1
 1093 0 l 1,1,-1
 131 0 l 1,2,-1
 131 170 l 1,3,-1
 891 170 l 1,4,-1
 891 711 l 1,5,-1
 180 711 l 1,6,-1
 180 881 l 1,7,-1
 891 881 l 1,8,-1
 891 1323 l 1,9,-1
 149 1323 l 1,10,-1
 149 1493 l 1,11,-1
 1093 1493 l 1,0,-1
EndSplineSet
EndChar
StartChar: uni018F
Encoding: 399 399 399
Width: 1612
Flags: W
TeX: 117 0 0 0
Fore
117 780 m 1,0,-1
 1284 780 l 17,1,2
 1284 1048 1284 1048 1146.5 1201 c 128,-1,3
 1009 1354 1009 1354 735 1354 c 0,4,5
 596 1354 596 1354 470 1306 c 128,-1,6
 344 1258 344 1258 232 1163 c 1,7,-1
 232 1378 l 1,8,9
 343 1448 343 1448 474.5 1484 c 128,-1,10
 606 1520 606 1520 752 1520 c 0,11,12
 1102 1520 1102 1520 1299.5 1315.5 c 128,-1,13
 1497 1111 1497 1111 1497 745 c 24,14,15
 1497 392 1497 392 1309 181.5 c 128,-1,16
 1121 -29 1121 -29 807 -29 c 24,17,18
 478 -29 478 -29 297.5 190.5 c 128,-1,19
 117 410 117 410 117 780 c 1,0,-1
337 614 m 17,20,21
 350 419 350 419 477.5 277 c 128,-1,22
 605 135 605 135 807 135 c 24,23,24
 1009 135 1009 135 1136.5 277 c 128,-1,25
 1264 419 1264 419 1277 614 c 9,26,-1
 337 614 l 17,20,21
EndSplineSet
EndChar
StartChar: uni0190
Encoding: 400 400 400
Width: 1258
Flags: W
TeX: 117 0 0 0
AnchorPoint: "above" 708 1520 basechar 0
Fore
472 805 m 1,0,1
 341 838 341 838 270 923.5 c 128,-1,2
 199 1009 199 1009 199 1133 c 0,3,4
 199 1311 199 1311 333 1415.5 c 128,-1,5
 467 1520 467 1520 697 1520 c 0,6,7
 786 1520 786 1520 886.5 1504 c 128,-1,8
 987 1488 987 1488 1102 1456 c 1,9,-1
 1102 1276 l 1,10,11
 988 1314 988 1314 893 1332 c 128,-1,12
 798 1350 798 1350 715 1350 c 0,13,14
 563 1350 563 1350 481.5 1288.5 c 128,-1,15
 400 1227 400 1227 400 1112 c 0,16,17
 400 1000 400 1000 479 940.5 c 128,-1,18
 558 881 558 881 707 881 c 2,19,-1
 889 881 l 1,20,-1
 889 715 l 1,21,-1
 715 715 l 2,22,23
 550 715 550 715 457.5 640.5 c 128,-1,24
 365 566 365 566 365 434 c 0,25,26
 365 291 365 291 464.5 216 c 128,-1,27
 564 141 564 141 754 141 c 0,28,29
 863 141 863 141 963 166 c 128,-1,30
 1063 191 1063 191 1147 240 c 1,31,-1
 1147 45 l 1,32,33
 1041 8 1041 8 941.5 -10.5 c 128,-1,34
 842 -29 842 -29 748 -29 c 0,35,36
 468 -29 468 -29 316 92 c 128,-1,37
 164 213 164 213 164 434 c 0,38,39
 164 578 164 578 245.5 676 c 128,-1,40
 327 774 327 774 472 805 c 1,0,1
EndSplineSet
EndChar
StartChar: uni0191
Encoding: 401 401 401
Width: 1178
Flags: W
TeX: 117 0 0 0
AnchorPoint: "above" 670 1520 basechar 0
Fore
201 1493 m 1,0,-1
 1059 1493 l 1,1,-1
 1059 1323 l 1,2,-1
 403 1323 l 1,3,-1
 403 883 l 1,4,-1
 995 883 l 1,5,-1
 995 713 l 1,6,-1
 403 713 l 1,7,-1
 403 104 l 2,8,9
 403 -166.005 403 -166.005 300.5 -288 c 128,-1,10
 197.996 -410 197.996 -410 -29 -410 c 2,11,-1
 -106 -410 l 1,12,-1
 -106 -240 l 1,13,-1
 -43 -240 l 2,14,15
 91 -240 91 -240 146 -165 c 128,-1,16
 201 -90.0007 201 -90.0007 201 104 c 2,17,-1
 201 1493 l 1,0,-1
EndSplineSet
EndChar
StartChar: florin
Encoding: 402 402 402
Width: 721
Flags: W
AnchorPoint: "below" 311 -430 basechar 0
AnchorPoint: "above" 315 1520 basechar 0
Fore
760 1556 m 1,0,-1
 760 1403 l 1,1,-1
 584 1403 l 2,2,3
 484.996 1403 484.996 1403 446.5 1363 c 128,-1,4
 408 1322.99 408 1322.99 408 1219 c 2,5,-1
 408 1120 l 1,6,-1
 711 1120 l 1,7,-1
 711 977 l 1,8,-1
 408 977 l 1,9,-1
 408 -68 l 2,10,11
 408 -255 408 -255 321 -340.5 c 128,-1,12
 234 -426 234 -426 45 -426 c 2,13,-1
 -129 -426 l 1,14,-1
 -129 -273 l 1,15,-1
 47 -273 l 2,16,17
 146.004 -273 146.004 -273 184.5 -233 c 128,-1,18
 223 -192.996 223 -192.996 223 -89 c 2,19,-1
 223 977 l 1,20,-1
 47 977 l 1,21,-1
 47 1120 l 1,22,-1
 223 1120 l 1,23,-1
 223 1198 l 2,24,25
 223 1385 223 1385 310 1470.5 c 128,-1,26
 397 1556 397 1556 586 1556 c 2,27,-1
 760 1556 l 1,0,-1
EndSplineSet
EndChar
StartChar: uni0193
Encoding: 403 403 403
Width: 1587
Flags: W
TeX: 117 0 0 0
AnchorPoint: "above" 860 1520 basechar 0
Fore
1219 213 m 1,0,-1
 1219 614 l 1,1,-1
 889 614 l 1,2,-1
 889 780 l 1,3,-1
 1419 780 l 1,4,-1
 1419 139 l 1,5,6
 1302 56.0001 1302 56.0001 1161 13.5 c 128,-1,7
 1020 -29 1020 -29 860 -29 c 0,8,9
 510 -29 510 -29 312.5 175.5 c 128,-1,10
 115 379.999 115 379.999 115 745 c 0,11,12
 115 1111.01 115 1111.01 312.5 1315.5 c 128,-1,13
 510.014 1520 510.014 1520 860 1520 c 24,14,15
 950.52 1520 950.52 1520 1032.05 1507.4 c 128,-1,16
 1113.58 1494.8 1113.58 1494.8 1182 1470 c 1,17,18
 1182 1658 1182 1658 1282.5 1775 c 128,-1,19
 1383 1892 1383 1892 1610 1892 c 2,20,-1
 1687 1892 l 1,21,-1
 1687 1722 l 1,22,-1
 1624 1722 l 2,23,24
 1490.01 1722 1490.01 1722 1435 1647 c 128,-1,25
 1380 1572.01 1380 1572.01 1380 1378 c 2,26,-1
 1380 1163 l 1,27,28
 1267.95 1258.02 1267.95 1258.02 1142 1306 c 128,-1,29
 1015.98 1354 1015.98 1354 877 1354 c 0,30,31
 603 1354 603 1354 465.5 1201 c 128,-1,32
 328 1048 328 1048 328 745 c 0,33,34
 328 443 328 443 465.5 290 c 128,-1,35
 603 137 603 137 877 137 c 0,36,37
 983.998 137 983.998 137 1068 155.5 c 128,-1,38
 1151.99 173.997 1151.99 173.997 1219 213 c 1,0,-1
EndSplineSet
EndChar
StartChar: uni0194
Encoding: 404 404 404
Width: 1406
Flags: W
TeX: 0 0 0 0
AnchorPoint: "above" 703 1520 basechar 0
Fore
703 -259 m 24,0,1
 757.403 -259 757.403 -259 801 -227.176 c 0,2,3
 829 -207.291 829 -207.291 829 -141 c 0,4,5
 829 -84 829 -84 798 -11 c 0,6,7
 746.72 110.078 746.72 110.078 702.788 201.775 c 1,8,9
 659.28 110.078 659.28 110.078 608 -11 c 0,10,11
 577 -84 577 -84 577 -141 c 0,12,13
 577 -207.291 577 -207.291 605 -227.176 c 0,14,15
 648.597 -259 648.597 -259 703 -259 c 24,0,1
703 630.685 m 1,16,-1
 1176 1493 l 1,17,-1
 1398 1493 l 1,18,-1
 816.331 420.432 l 1,19,20
 919.822 219.788 919.822 219.788 987 46 c 0,21,22
 1033 -73.0001 1033 -73.0001 1033 -139 c 0,23,24
 1033 -278.499 1033 -278.499 958 -343.25 c 0,25,26
 857.52 -430 857.52 -430 703 -430 c 24,27,28
 548.48 -430 548.48 -430 448 -343.25 c 0,29,30
 373 -278.498 373 -278.498 373 -139 c 0,31,32
 373 -73 373 -73 419 46 c 0,33,34
 486.178 219.788 486.178 219.788 589.669 420.432 c 1,35,-1
 8 1493 l 1,36,-1
 230 1493 l 1,37,-1
 703 630.685 l 1,16,-1
EndSplineSet
EndChar
StartChar: uni0195
Encoding: 405 405 405
Width: 2015
Flags: W
TeX: 117 0 0 0
Fore
1356 156 m 2,0,1
 1505 156 1505 156 1589 254 c 0,2,3
 1676 355 1676 355 1676 510 c 0,4,5
 1676 732 1676 732 1602 844 c 0,6,7
 1540 939 1540 939 1419 972 c 1,8,-1
 1419 1120 l 1,9,10
 1643 1091 1643 1091 1752 948 c 0,11,12
 1863 803 1863 803 1863 527 c 0,13,14
 1863 282 1863 282 1719 141 c 128,-1,15
 1575 0 1575 0 1354 0 c 2,16,-1
 1284 0 l 2,17,18
 1097 0 1097 0 1018.5 100 c 128,-1,19
 940 200 940 200 940 406 c 2,20,-1
 940 670 l 2,21,22
 940 829 940 829 878 908 c 128,-1,23
 816 987 816 987 692 987 c 0,24,25
 543 987 543 987 457 892 c 128,-1,26
 371 797 371 797 371 633 c 2,27,-1
 371 0 l 1,28,-1
 186 0 l 1,29,-1
 186 1556 l 1,30,-1
 371 1556 l 1,31,-1
 371 946 l 1,32,33
 437 1047 437 1047 526.5 1097 c 128,-1,34
 616 1147 616 1147 733 1147 c 0,35,36
 926 1147 926 1147 1025 1027.5 c 128,-1,37
 1124 908 1124 908 1124 676 c 2,38,-1
 1124 406 l 2,39,40
 1124 259 1124 259 1162 207.5 c 128,-1,41
 1200 156 1200 156 1305 156 c 2,42,-1
 1356 156 l 2,0,1
EndSplineSet
EndChar
StartChar: uni0196
Encoding: 406 406 406
Width: 724
Flags: W
TeX: 117 0 0 0
AnchorPoint: "above" 303 1520 basechar 0
Fore
201 1493 m 1,0,-1
 403 1493 l 1,1,-1
 403 514 l 2,2,3
 403 319.999 403 319.999 458 245 c 128,-1,4
 513 170 513 170 647 170 c 2,5,-1
 710 170 l 1,6,-1
 710 0 l 1,7,-1
 633 0 l 2,8,9
 406 0 406 0 303.5 122 c 128,-1,10
 201 244 201 244 201 514 c 2,11,-1
 201 1493 l 1,0,-1
EndSplineSet
EndChar
StartChar: uni0197
Encoding: 407 407 407
Width: 604
Flags: W
TeX: 117 0 0 0
AnchorPoint: "below" 303 0 basechar 0
AnchorPoint: "above" 303 1520 basechar 0
Fore
201 1493 m 1,0,-1
 403 1493 l 1,1,-1
 403 747 l 1,2,-1
 594 747 l 1,3,-1
 594 577 l 1,4,-1
 403 577 l 1,5,-1
 403 0 l 1,6,-1
 201 0 l 1,7,-1
 201 577 l 1,8,-1
 10 577 l 1,9,-1
 10 747 l 1,10,-1
 201 747 l 1,11,-1
 201 1493 l 1,0,-1
EndSplineSet
EndChar
StartChar: uni0198
Encoding: 408 408 408
Width: 1527
Flags: W
TeX: 117 0 0 0
Fore
1527 1096 m 25,0,-1
 1357 1096 l 25,1,-1
 1357 1217 l 18,2,3
 1357 1271 1357 1271 1320.5 1311 c 128,-1,4
 1284 1351 1284 1351 1246 1351 c 0,5,6
 1175.89 1351 1175.89 1351 1139 1316 c 2,7,-1
 592 797 l 1,8,-1
 1386 0 l 1,9,-1
 1120 0 l 1,10,-1
 403 719 l 1,11,-1
 403 0 l 1,12,-1
 201 0 l 1,13,-1
 201 1493 l 1,14,-1
 403 1493 l 1,15,-1
 403 862 l 1,16,-1
 1023 1441 l 2,17,18
 1107.59 1520 1107.59 1520 1221 1520 c 0,19,20
 1357 1520 1357 1520 1442 1428 c 0,21,22
 1527 1337 1527 1337 1527 1227 c 10,23,-1
 1527 1096 l 25,0,-1
EndSplineSet
EndChar
StartChar: uni0199
Encoding: 409 409 409
Width: 1186
Flags: W
TeX: 117 0 0 0
AnchorPoint: "above" 279 1520 basechar 0
Fore
185 1150 m 2,0,1
 185 1364 185 1364 266.5 1460 c 128,-1,2
 348 1556 348 1556 529 1556 c 2,3,-1
 720 1556 l 1,4,-1
 720 1400 l 1,5,-1
 552 1400 l 2,6,7
 447 1400 447 1400 409 1351.5 c 128,-1,8
 371 1303 371 1303 371 1150 c 2,9,-1
 371 637 l 1,10,-1
 920 1120 l 1,11,-1
 1155 1120 l 1,12,-1
 561 596 l 1,13,-1
 1180 0 l 1,14,-1
 940 0 l 1,15,-1
 371 547 l 1,16,-1
 371 0 l 1,17,-1
 186 0 l 1,18,-1
 185 1150 l 2,0,1
EndSplineSet
EndChar
StartChar: uni019A
Encoding: 410 410 410
Width: 569
Flags: W
TeX: 117 0 0 0
AnchorPoint: "above" 278 1520 basechar 0
Fore
193 1556 m 1,0,-1
 377 1556 l 1,1,-1
 377 844 l 1,2,-1
 554 844 l 1,3,-1
 554 700 l 1,4,-1
 377 700 l 1,5,-1
 377 0 l 1,6,-1
 193 0 l 1,7,-1
 193 700 l 1,8,-1
 10 700 l 1,9,-1
 10 844 l 1,10,-1
 193 844 l 1,11,-1
 193 1556 l 1,0,-1
EndSplineSet
EndChar
StartChar: uni019B
Encoding: 411 411 411
Width: 1212
Flags: W
TeX: 117 0 0 0
AnchorPoint: "above" 642 1520 basechar 0
Fore
61 0 m 1,0,-1
 552 1074 l 1,1,-1
 481 1262 l 1,2,-1
 181 1161 l 1,3,-1
 148 1260 l 1,4,-1
 445 1359 l 1,5,-1
 370 1556 l 1,6,-1
 570 1556 l 1,7,-1
 622 1418 l 1,8,-1
 936 1522 l 1,9,-1
 969 1425 l 1,10,-1
 658 1321 l 1,11,-1
 1151 0 l 1,12,-1
 956 0 l 1,13,-1
 642 828 l 1,14,-1
 256 0 l 1,15,-1
 61 0 l 1,0,-1
EndSplineSet
EndChar
StartChar: uni019C
Encoding: 412 412 412
Width: 1995
Flags: W
TeX: 117 0 0 0
Fore
934 213 m 1,0,1
 865 89 865 89 769 30 c 128,-1,2
 673 -29 673 -29 543 -29 c 0,3,4
 368 -29 368 -29 273 94 c 128,-1,5
 178 216 178 216 178 442 c 2,6,-1
 178 1493 l 1,7,-1
 381 1493 l 1,8,-1
 381 452 l 2,9,10
 381 266 381 266 420 213 c 0,11,12
 477 135 477 135 594 135 c 0,12,13
 737 135 737 135 820 230 c 128,-1,14
 903 325 903 325 903 489 c 2,15,-1
 903 1493 l 1,16,-1
 1106 1493 l 1,17,-1
 1106 452 l 2,18,19
 1106 290 1106 290 1163 212 c 128,-1,20
 1220 135 1220 135 1339 135 c 0,21,22
 1462 135 1462 135 1545 230 c 128,-1,23
 1628 326 1628 326 1628 489 c 2,24,-1
 1628 1493 l 1,25,-1
 1831 1493 l 1,26,-1
 1831 -2 l 1,27,-1
 1628 -2 l 1,28,-1
 1628 172 l 1,29,30
 1565 69 1565 69 1477 20 c 128,-1,31
 1389 -29 1389 -29 1268 -29 c 0,32,33
 1146 -29 1146 -29 1060 33 c 128,-1,34
 975 95 975 95 934 213 c 1,0,1
EndSplineSet
EndChar
StartChar: uni019D
Encoding: 413 413 413
Width: 1532
Flags: W
TeX: 117 0 0 0
AnchorPoint: "above" 757 1520 basechar 0
Fore
201 1493 m 1,0,-1
 473 1493 l 1,1,-1
 1135 244 l 1,2,-1
 1135 1493 l 1,3,-1
 1331 1493 l 1,4,-1
 1331 0 l 1,5,-1
 1059 0 l 1,6,-1
 397 1249 l 1,7,-1
 397 104 l 2,8,9
 397 -166 397 -166 294.5 -288 c 128,-1,10
 192 -410 192 -410 -34.9961 -410 c 2,11,-1
 -106 -410 l 1,12,-1
 -106 -240 l 1,13,-1
 -43 -240 l 2,14,15
 91 -240 91 -240 146 -165 c 128,-1,16
 201 -90.0007 201 -90.0007 201 104 c 2,17,-1
 201 1493 l 1,0,-1
EndSplineSet
EndChar
StartChar: uni019F
Encoding: 415 415 415
Width: 1612
Flags: W
TeX: 117 0 0 0
AnchorPoint: "above" 807 1520 basechar 0
AnchorPoint: "below" 807 0 basechar 0
Fore
115 745 m 0,0,1
 115 1099 115 1099 303.5 1309.5 c 128,-1,2
 492 1520 492 1520 806.5 1520 c 0,3,4
 1121 1520 1121 1520 1309 1309.5 c 128,-1,5
 1497 1099 1497 1099 1497 745.5 c 0,6,7
 1497 392 1497 392 1309 181.5 c 128,-1,8
 1121 -29 1121 -29 806.5 -29 c 0,9,10
 492 -29 492 -29 303.5 181 c 128,-1,11
 115 391 115 391 115 745 c 0,0,1
807.5 1356 m 24,12,13
 605.5 1356 605.5 1356 478 1214 c 128,-1,14
 350.5 1072 350.5 1072 337.5 877 c 9,15,-1
 1277.5 877 l 17,16,17
 1264.5 1072 1264.5 1072 1137 1214 c 128,-1,18
 1009.5 1356 1009.5 1356 807.5 1356 c 24,12,13
328 710 m 1,19,20
 336 453 336 453 461.5 294 c 128,-1,21
 587 135 587 135 807 135 c 0,22,23
 1027 135 1027 135 1151 293.5 c 128,-1,24
 1275 452 1275 452 1283 710 c 9,25,-1
 328 710 l 1,19,20
EndSplineSet
EndChar
StartChar: uni01A2
Encoding: 418 418 418
Width: 1943
Flags: W
TeX: 117 0 0 0
Fore
807 1356 m 0,0,1
 587 1356 587 1356 458 1192 c 128,-1,3
 328 1028 328 1028 328 745 c 0,4,5
 328 463 328 463 458 299 c 128,-1,7
 587 135 587 135 807 135 c 0,8,9
 982 135 982 135 1110 299 c 1,10,-1
 1110 1192 l 1,11,12
 972 1356 972 1356 807 1356 c 0,0,1
1541 0 m 1,16,-1
 1541 979 l 2,17,18
 1541 1173 1541 1173 1486 1248 c 128,-1,20
 1431 1323 1431 1323 1309 1323 c 1,21,-1
 1309 182 l 1,22,23
 1121 -29 1121 -29 807 -29 c 0,29,30
 492 -29 492 -29 304 181 c 128,-1,32
 115 391 115 391 115 745 c 128,-1,34
 115 1099 115 1099 304 1310 c 128,-1,36
 492 1520 492 1520 807 1520 c 0,37,38
 919 1520 919 1520 1016 1493 c 2,39,-1
 1311 1493 l 2,40,41
 1538 1493 1538 1493 1640 1371 c 128,-1,43
 1743 1249 1743 1249 1743 979 c 2,44,-1
 1743 0 l 1,45,-1
 1541 0 l 1,16,-1
EndSplineSet
EndChar
StartChar: uni01A3
Encoding: 419 419 419
Width: 1555
Flags: W
TeX: 117 0 0 0
Fore
627 991 m 0,0,1
 480 993 480 993 393 876 c 0,2,3
 307 760 307 760 307 559 c 128,-1,5
 307 358 307 358 392 242 c 128,-1,7
 478 127 478 127 627 127 c 128,-1,9
 776 127 776 127 820 216 c 1,10,-1
 820 896 l 1,11,12
 776 991 776 991 627 991 c 0,0,1
1185 -426 m 1,16,-1
 1185 714 l 2,17,18
 1185 867 1185 867 1147 916 c 128,-1,20
 1109 964 1109 964 1004 964 c 1,22,23
 1004 128 l 1,24,25
 867 -29 867 -29 627 -29 c 0,28,29
 386 -29 386 -29 250 128 c 128,-1,31
 113 284 113 284 113 559 c 0,32,33
 113 835 113 835 250 991 c 128,-1,35
 386 1147 386 1147 627 1147 c 0,36,37
 727 1147 727 1147 809 1120 c 1,38,-1
 1025 1120 l 2,39,40
 1206 1120 1206 1120 1288 1024 c 128,-1,42
 1369 928 1369 928 1369 714 c 2,43,-1
 1369 -426 l 1,44,-1
 1185 -426 l 1,16,-1
EndSplineSet
EndChar
StartChar: uni01A4
Encoding: 420 420 420
Width: 1335
Flags: W
TeX: 117 0 0 0
AnchorPoint: "above" 770 1520 basechar 0
Fore
503 1327 m 1,0,-1
 503 766 l 1,1,-1
 757 766 l 2,2,3
 898 766 898 766 975 839 c 128,-1,4
 1052 912 1052 912 1052 1047 c 0,5,6
 1052 1180.99 1052 1180.99 975 1254 c 128,-1,7
 898.008 1327 898.008 1327 757 1327 c 2,8,-1
 503 1327 l 1,0,-1
301 1493 m 2,9,-1
 757 1493 l 2,10,11
 1008.01 1493 1008.01 1493 1136.5 1379.5 c 128,-1,12
 1265 1265.99 1265 1265.99 1265 1047 c 0,13,14
 1265 825.995 1265 825.995 1136.5 713 c 128,-1,15
 1007.99 600 1007.99 600 757 600 c 2,16,-1
 503 600 l 1,17,-1
 503 0 l 1,18,-1
 301 0 l 1,19,-1
 301.358 1327.52 l 1,20,21
 169.399 1327.52 169.399 1327.52 110.198 1280.25 c 128,-1,22
 51 1232.99 51 1232.99 51 1128 c 2,23,-1
 51 1079 l 1,24,-1
 -105 1079 l 1,25,-1
 -105 1149 l 2,26,27
 -105 1330.01 -105 1330.01 -9 1411.5 c 128,-1,28
 87.0078 1493 87.0078 1493 301 1493 c 2,9,-1
EndSplineSet
EndChar
StartChar: uni01A5
Encoding: 421 421 421
Width: 1300
Flags: W
TeX: 117 0 0 0
Fore
371 168 m 1,0,-1
 371 -426 l 1,1,-1
 185 -426 l 1,2,-1
 185 1150 l 2,3,4
 185 1363.83 185 1363.83 266.5 1459.92 c 128,-1,5
 348 1556 348 1556 529 1556 c 2,6,-1
 783 1556 l 1,7,-1
 783 1400 l 1,8,-1
 552 1400 l 2,9,10
 447 1400 447 1400 409 1351.5 c 128,-1,11
 371 1303 371 1303 371 1150 c 10,12,-1
 371 950 l 1,13,14
 429 1050.01 429 1050.01 517.5 1098.5 c 128,-1,15
 606.027 1147 606.027 1147 729 1147 c 0,16,17
 933 1147 933 1147 1060.5 985 c 128,-1,18
 1188 823 1188 823 1188 559 c 0,19,20
 1188 295 1188 295 1060.5 133 c 128,-1,21
 933 -29 933 -29 729 -29 c 0,22,23
 606 -29 606 -29 517.5 19.5 c 128,-1,24
 429 68 429 68 371 168 c 1,0,-1
997 559 m 0,25,26
 997 762 997 762 913.5 877.5 c 128,-1,27
 830 993 830 993 684 993 c 0,28,29
 538 993 538 993 454.5 877.5 c 128,-1,30
 371 762 371 762 371 559 c 0,31,32
 371 356 371 356 454.5 240.5 c 128,-1,33
 538 125 538 125 684 125 c 0,34,35
 830 125 830 125 913.5 240.5 c 128,-1,36
 997 356 997 356 997 559 c 0,25,26
EndSplineSet
EndChar
StartChar: uni01A6
Encoding: 422 422 422
Width: 1423
Flags: W
TeX: 117 0 0 0
Fore
909 436 m 1,0,1
 974 414 974 414 1035.5 342 c 128,-1,2
 1097 270 1097 270 1159 144 c 1,3,-1
 1364 -264 l 1,4,-1
 1147 -264 l 1,5,-1
 956 119 l 1,6,7
 882 269 882 269 812.5 318 c 128,-1,8
 743 367 743 367 623 367 c 2,9,-1
 403 367 l 1,10,-1
 403 0 l 1,11,-1
 201 0 l 1,12,-1
 201 1493 l 1,13,-1
 403 1493 l 1,0,0
 403 1229 l 1,0,0
 657 1229 l 2,14,15
 913 1229 913 1229 1039 1122 c 128,-1,16
 1165 1015 1165 1015 1165 799 c 0,17,18
 1165 658 1165 658 1099.5 565 c 128,-1,19
 1034 472 1034 472 909 436 c 1,0,1
403 1063 m 1,13,-1
 403 504 l 1,14,-1
 657 504 l 2,15,16
 798 504 798 504 875 577 c 128,-1,17
 952 650 952 650 952 784 c 0,18,19
 952 918 952 918 875.5 990.5 c 128,-1,20
 799 1063 799 1063 657 1063 c 2,21,-1
 403 1063 l 1,13,-1
EndSplineSet
EndChar
StartChar: uni01A7
Encoding: 423 423 423
Width: 1300
Flags: W
TeX: 117 0 0 0
AnchorPoint: "above" 659 1520 basechar 0
Fore
159 1444 m 1,0,-1
 273 1482 273 1482 382 1501 c 128,-1,39
 491 1520 491 1520 596 1520 c 0,37,38
 841 1520 841 1520 980 1406 c 128,-1,36
 1120 1292 1120 1292 1120 1094 c 0,34,35
 1120 923 1120 923 1019 827 c 128,-1,33
 918 731 918 731 692 686 c 2,31,32
 569 662 l 2,30,-1
 415 631 415 631 348 569 c 128,-1,29
 280 507 280 507 280 397 c 0,27,28
 280 271 280 271 374 203 c 128,-1,26
 468 135 468 135 641 135 c 0,24,25
 755 135 755 135 873 170 c 128,-1,23
 991 205 991 205 1114 274 c 1,21,22
 1114 66 l 1,20,-1
 986 19 986 19 866 -5 c 128,-1,19
 747 -29 747 -29 641 -29 c 0,17,18
 360 -29 360 -29 214 83 c 128,-1,16
 69 195 69 195 69 412 c 0,14,15
 69 594 69 594 176 702 c 128,-1,13
 284 811 284 811 510 854 c 1,11,12
 632 879 l 1,10,-1
 798 910 798 910 858 960 c 128,-1,9
 917 1011 917 1011 917 1110 c 0,7,8
 917 1228 917 1228 828 1292 c 128,-1,6
 738 1356 738 1356 573 1356 c 0,4,5
 478 1356 478 1356 376 1329 c 128,-1,3
 274 1302 274 1302 159 1247 c 1,1,2
 159 1444 l 1,0,-1
EndSplineSet
EndChar
StartChar: uni01A8
Encoding: 424 424 424
Width: 1067
Flags: W
TeX: 117 0 0 0
AnchorPoint: "above" 551 1147 basechar 0
Fore
160 1087 m 1,0,1
 236 1117 236 1117 326 1132 c 128,-1,2
 416 1147 416 1147 518 1147 c 0,3,4
 724 1147 724 1147 836 1061 c 128,-1,5
 948 975 948 975 948 817 c 0,6,7
 948 687 948 687 872 612.5 c 128,-1,8
 796 538 796 538 625 502 c 1,9,-1
 561 487 l 2,10,11
 390 450 390 450 339.5 410 c 128,-1,12
 289 370 289 370 289 295 c 0,13,14
 289 214 289 214 359 169.5 c 128,-1,15
 429 125 429 125 559 125 c 0,16,17
 656 125 656 125 755 151.5 c 128,-1,18
 854 178 854 178 956 231 c 1,19,-1
 956 41 l 1,20,21
 848 6 848 6 750.5 -11.5 c 128,-1,22
 653 -29 653 -29 563 -29 c 0,23,24
 347 -29 347 -29 223.5 62 c 128,-1,25
 100 153 100 153 100 309 c 0,26,27
 100 446 100 446 182.5 522.5 c 128,-1,28
 265 599 265 599 461 641 c 2,29,-1
 524 655 l 2,30,31
 672 688 672 688 721 724.5 c 128,-1,32
 770 761 770 761 770 825 c 0,33,34
 770 909 770 909 701.5 951 c 128,-1,35
 633 993 633 993 496 993 c 0,36,37
 406 993 406 993 322 973 c 128,-1,38
 238 953 238 953 160 913 c 1,39,-1
 160 1087 l 1,0,1
EndSplineSet
EndChar
StartChar: uni01AA
Encoding: 426 426 426
Width: 688
Flags: W
TeX: 117 0 0 0
AnchorPoint: "above" 278 1520 basechar 0
AnchorPoint: "below" 278 -390 basechar 0
Fore
180 1284 m 1,0,-1
 173 1329 173 1329 155 1352 c 1,7,8
 122 1400 122 1400 12 1400 c 0,5,6
 -112 1400 -112 1400 -115 1335 c 0,3,4
 -118 1284 -118 1284 1 1284 c 2,1,2
 180 1284 l 1,0,-1
377 1130 m 1,9,-1
 375 -89 l 1,33,-1
 375 -192 375 -192 414 -233 c 0,31,32
 451 -273 451 -273 551 -273 c 2,29,30
 727 -273 l 1,28,-1
 727 -426 l 1,27,-1
 553 -426 l 2,26,-1
 358 -426 358 -426 277 -340 c 0,24,25
 190 -248 190 -248 190 -68 c 2,22,23
 190 1130 l 1,21,-1
 0 1130 l 2,20,-1
 -270 1130 -270 1130 -270 1340 c 0,18,19
 -270 1556 -270 1556 33 1556 c 0,16,17
 214 1556 214 1556 296 1460 c 0,14,15
 349 1396 349 1396 367 1285 c 1,12,13
 558 1285 l 1,11,-1
 558 1130 l 1,10,-1
 377 1130 l 1,9,-1
EndSplineSet
EndChar
StartChar: uni01AB
Encoding: 427 427 427
Width: 803
Flags: W
TeX: 117 0 0 0
AnchorPoint: "above" 282 1520 basechar 0
Fore
375 1438 m 1,0,-1
 375 1120 l 1,1,-1
 754 1120 l 1,2,-1
 754 977 l 1,3,-1
 375 977 l 1,4,-1
 375 369 l 2,5,6
 375 232 375 232 412 193 c 0,7,8
 450 154 450 154 565 154 c 2,9,-1
 754 154 l 1,10,-1
 754 -20 l 2,11,12
 754 -234 754 -234 672 -330 c 0,13,14
 590 -426 590 -426 410 -426 c 2,15,-1
 340 -426 l 1,16,-1
 340 -270 l 1,17,-1
 388 -270 l 2,18,19
 494 -270 494 -270 532 -222 c 0,20,21
 570 -173 570 -173 570 -20 c 2,22,-1
 570 0 l 1,23,-1
 565 0 l 2,24,25
 352 0 352 0 271 80 c 0,26,27
 190 159 190 159 190 369 c 2,28,-1
 190 977 l 1,29,-1
 55 977 l 1,30,-1
 55 1120 l 1,31,-1
 190 1120 l 1,32,-1
 190 1438 l 1,33,-1
 375 1438 l 1,0,-1
EndSplineSet
EndChar
StartChar: uni01AC
Encoding: 428 428 428
Width: 1251
Flags: W
TeX: 117 0 0 0
AnchorPoint: "above" 627 1520 basechar 0
Fore
430 1493 m 10,0,-1
 1257 1493 l 1,1,-1
 1257 1323 l 1,2,-1
 727 1323 l 1,3,-1
 727 0 l 1,4,-1
 524 0 l 1,5,-1
 524 1323 l 1,6,-1
 430 1323 l 18,7,8
 298.041 1323 298.041 1323 239.021 1278 c 128,-1,9
 180 1232.99 180 1232.99 180 1128 c 2,10,-1
 180 1079 l 1,11,-1
 24 1079 l 1,12,-1
 24 1149 l 2,13,14
 24 1330.01 24 1330.01 120 1411.5 c 128,-1,15
 216.008 1493 216.008 1493 430 1493 c 10,0,-1
EndSplineSet
EndChar
StartChar: uni01AD
Encoding: 429 429 429
Width: 803
Flags: W
TeX: 117 0 0 0
AnchorPoint: "above" 282 1520 basechar 0
Fore
375 1219 m 2,0,-1
 375 1120 l 1,1,-1
 754 1120 l 1,2,-1
 754 977 l 1,3,-1
 375 977 l 1,4,-1
 375 369 l 2,5,6
 375 232 375 232 412.5 193 c 128,-1,7
 450 154 450 154 565 154 c 2,8,-1
 754 154 l 1,9,-1
 754 0 l 1,10,-1
 565 0 l 2,11,12
 352 0 352 0 271 79.5 c 128,-1,13
 190 159 190 159 190 369 c 2,14,-1
 190 977 l 1,15,-1
 55 977 l 1,16,-1
 55 1120 l 1,17,-1
 190 1120 l 1,18,-1
 190 1198 l 2,19,20
 190 1385 190 1385 277 1470.5 c 128,-1,21
 364 1556 364 1556 553 1556 c 2,22,-1
 727 1556 l 1,23,-1
 727 1403 l 1,24,-1
 551 1403 l 2,25,26
 451.996 1403 451.996 1403 413.498 1362.69 c 128,-1,27
 375 1322.37 375 1322.37 375 1219 c 2,0,-1
EndSplineSet
EndChar
StartChar: uni01AE
Encoding: 430 430 430
Width: 1251
Flags: W
TeX: 117 0 0 0
AnchorPoint: "above" 627 1520 basechar 0
Fore
-6 1493 m 1,0,-1
 1257 1493 l 1,1,-1
 1257 1323 l 1,2,-1
 727 1323 l 1,3,-1
 727 104 l 2,4,5
 727 -90 727 -90 782 -165 c 128,-1,6
 837 -240 837 -240 971 -240 c 2,7,-1
 1034 -240 l 1,8,-1
 1034 -410 l 1,9,-1
 956 -410 l 2,10,11
 729 -410 729 -410 626.5 -288 c 128,-1,12
 524 -166 524 -166 524 104 c 2,13,-1
 524 1323 l 1,14,-1
 -6 1323 l 1,15,-1
 -6 1493 l 1,0,-1
EndSplineSet
EndChar
StartChar: uni01B1
Encoding: 433 433 433
Width: 1565
Flags: W
TeX: 117 0 0 0
Fore
1487 1304 m 1,0,-1
 1167 1304 l 1,1,2
 1328.01 1162.98 1328.01 1162.98 1399 1015 c 128,-1,3
 1470 866.989 1470 866.989 1470 673 c 0,4,5
 1470 364.01 1470 364.01 1277.5 167.5 c 128,-1,6
 1085.01 -29 1085.01 -29 782 -29 c 0,7,8
 477.005 -29 477.005 -29 285.5 168 c 128,-1,9
 94 364.99 94 364.99 94 683 c 0,10,11
 94.001 867 94.001 867 166.5 1016 c 128,-1,12
 238.999 1165 238.999 1165 397 1304 c 1,13,-1
 78 1304 l 1,14,-1
 78 1482 l 1,15,-1
 678 1482 l 1,16,-1
 678 1304 l 1,17,18
 499.999 1207 499.999 1207 400.5 1041 c 128,-1,19
 301 874.999 301 874.999 301 673 c 0,20,21
 301 434 301 434 433.5 288.5 c 128,-1,22
 566 143 566 143 782 143 c 0,23,24
 998.005 143 998.005 143 1130 288 c 128,-1,25
 1262 433.01 1262 433.01 1262 673 c 0,26,27
 1262 875 1262 875 1163 1041 c 128,-1,28
 1064 1207 1064 1207 887 1304 c 1,29,-1
 887 1482 l 1,30,-1
 1487 1482 l 1,31,-1
 1487 1304 l 1,0,-1
EndSplineSet
EndChar
StartChar: uni01B2
Encoding: 434 434 434
Width: 1476
Flags: W
TeX: 117 0 0 0
AnchorPoint: "above" 679 1520 basechar 0
Fore
710 141 m 0,0,1
 926 141 926 141 1058 286 c 128,-1,2
 1190 431 1190 431 1190 671 c 0,3,4
 1190 873 1190 873 1091 1039 c 0,5,6
 1026 1148 1026 1148 916 1235 c 1,7,-1
 916 1303 l 1,8,-1
 1095 1302 l 1,9,10
 1256 1161 1256 1161 1327 1013 c 128,-1,11
 1398 865 1398 865 1398 671 c 0,12,13
 1398 362 1398 362 1206 165 c 0,14,15
 1014.97 -31 1014.97 -31 710 -31 c 0,16,-1
 633 -29 l 2,17,18
 400.978 -22.9734 400.978 -22.9734 304 93 c 0,19,20
 201 215 201 215 201 485 c 2,21,-1
 201 1493 l 1,22,-1
 403 1493 l 1,23,-1
 403 485 l 2,24,25
 403 291 403 291 458 216 c 128,-1,26
 513 141 513 141 647 141 c 2,27,-1
 710 141 l 0,0,1
EndSplineSet
EndChar
StartChar: uni01B3
Encoding: 435 435 435
Width: 1523
Flags: W
TeX: 117 0 0 0
AnchorPoint: "above" 626 1520 basechar 0
Fore
1239 1351 m 0,0,1
 1182 1351 1182 1351 1161 1337 c 0,2,3
 1123.5 1313.14 1123.5 1313.14 1106.83 1287.82 c 10,4,-1
 727 711 l 1,5,-1
 727 0 l 1,6,-1
 524 0 l 1,7,-1
 524 711 l 1,8,-1
 -4 1493 l 1,9,-1
 213 1493 l 1,10,-1
 627 879 l 1,11,-1
 960.832 1383.82 l 2,12,13
 1050.88 1520 1050.88 1520 1214 1520 c 24,14,15
 1350 1520 1350 1520 1435 1428 c 0,16,17
 1520 1337 1520 1337 1520 1227 c 10,18,-1
 1520 1096 l 25,19,-1
 1350 1096 l 25,20,-1
 1350 1217 l 18,21,22
 1350 1271 1350 1271 1313.5 1311 c 128,-1,23
 1277 1351 1277 1351 1239 1351 c 0,0,1
EndSplineSet
EndChar
StartChar: uni01B4
Encoding: 436 436 436
Width: 1494
Flags: W
TeX: 117 0 0 0
AnchorPoint: "above" 608 1147 basechar 0
AnchorPoint: "below" 608 -430 basechar 0
Fore
659 -104 m 1,0,1
 581 -304 581 -304 507 -365 c 128,-1,2
 433 -426 433 -426 309 -426 c 2,3,-1
 162 -426 l 1,4,-1
 162 -272 l 1,5,-1
 270 -272 l 2,6,7
 346 -272 346 -272 388 -236 c 128,-1,8
 430 -200 430 -200 481 -66 c 1,9,-1
 514 18 l 1,10,-1
 61 1120 l 1,11,-1
 256 1120 l 1,12,-1
 606 244 l 1,13,-1
 888 948 l 2,14,15
 908.746 999.792 908.746 999.792 957 1051 c 0,16,17
 1045 1147 1045 1147 1180 1147 c 0,18,19
 1311 1147 1311 1147 1403.5 1051.5 c 128,-1,20
 1496 956 1496 956 1496 822 c 2,21,-1
 1496 708 l 25,22,-1
 1318 708 l 25,23,-1
 1318 822 l 2,24,25
 1318 880 1318 880 1277.5 922 c 128,-1,26
 1237 964 1237 964 1180 964 c 0,27,28
 1123 964 1123 964 1082 922 c 0,29,30
 1062.03 902.025 1062.03 902.025 1052 877 c 2,31,-1
 659 -104 l 1,0,1
EndSplineSet
EndChar
StartChar: uni01B5
Encoding: 437 437 437
Width: 1403
Flags: W
TeX: 117 0 0 0
AnchorPoint: "above" 702 1520 basechar 0
Fore
115 1493 m 1,0,-1
 1288 1493 l 1,1,-1
 1288 1339 l 1,2,-1
 888 844 l 1,3,-1
 1169 844 l 1,4,-1
 1169 700 l 1,5,-1
 772 700 l 1,6,-1
 344 170 l 1,7,-1
 1311 170 l 1,8,-1
 1311 0 l 1,9,-1
 92 0 l 1,10,-1
 92 154 l 1,11,-1
 533 700 l 1,12,-1
 234 700 l 1,13,-1
 234 844 l 1,14,-1
 649 844 l 1,15,-1
 1036 1323 l 1,16,-1
 115 1323 l 1,17,-1
 115 1493 l 1,0,-1
EndSplineSet
EndChar
StartChar: uni01B6
Encoding: 438 438 438
Width: 1075
Flags: W
TeX: 117 0 0 0
AnchorPoint: "above" 535 1147 basechar 0
Fore
113 1120 m 1,0,-1
 987 1120 l 1,1,-1
 987 952 l 1,2,-1
 736 660 l 1,3,-1
 930 660 l 1,4,-1
 930 516 l 1,5,-1
 612 516 l 1,6,-1
 295 147 l 1,7,-1
 987 147 l 1,8,-1
 987 0 l 1,9,-1
 88 0 l 1,10,-1
 88 168 l 1,11,-1
 387 516 l 1,12,-1
 175 516 l 1,13,-1
 175 660 l 1,14,-1
 511 660 l 1,15,-1
 780 973 l 1,16,-1
 113 973 l 1,17,-1
 113 1120 l 1,0,-1
EndSplineSet
EndChar
StartChar: uni01B7
Encoding: 439 439 439
Width: 1364
Flags: W
TeX: 117 0 0 0
Fore
680 107 m 8,0,1
 872 107 872 107 971 182 c 0,2,3
 1071 257 1071 257 1071 400 c 0,4,5
 1071 534 1071 534 979 607 c 0,6,7
 886 681 886 681 721 681 c 2,8,-1
 547 681 l 1,9,-1
 547 847 l 1,10,-1
 932 1323 l 1,11,-1
 160 1323 l 1,12,-1
 160 1493 l 1,13,-1
 1184 1493 l 1,14,-1
 1184 1325 l 1,15,-1
 773 849 l 1,16,17
 879 849 879 849 1007 793 c 0,18,19
 1105 751 1105 751 1191 642 c 0,20,21
 1272 538 1272 538 1272 400 c 0,22,23
 1272 179.6 1272 179.6 1120 58 c 0,24,25
 968 -63 968 -63 688 -63 c 16,26,27
 569 -63 569 -63 444 -44 c 0,28,29
 318 -26 318 -26 184 11 c 1,30,-1
 184 206 l 1,31,32
 290 157 290 157 417 132 c 0,33,34
 543 107 543 107 680 107 c 8,0,1
EndSplineSet
EndChar
StartChar: uni01B8
Encoding: 440 440 440
Width: 1364
Flags: W
TeX: 117 0 0 0
Fore
684 107 m 16,0,1
 821 107 821 107 947 132 c 0,36,37
 1074 157 1074 157 1180 206 c 1,34,35
 1180 11 l 1,33,-1
 1046 -26 1046 -26 920 -44 c 0,31,32
 795 -63 795 -63 676 -63 c 8,29,30
 396 -63 396 -63 244 58 c 0,27,28
 199 94 199 94 179 123 c 2,25,26
 151 164 l 2,24,-1
 92 249 92 249 92 400 c 0,22,23
 92 538 92 538 173 642 c 0,20,21
 259 751 259 751 357 793 c 0,18,19
 485 849 485 849 591 849 c 1,16,17
 180 1325 l 1,15,-1
 180 1493 l 1,14,-1
 1204 1493 l 1,13,-1
 1204 1323 l 1,12,-1
 432 1323 l 1,11,-1
 817 847 l 1,10,-1
 817 681 l 1,9,-1
 643 681 l 2,8,-1
 478 681 478 681 385 607 c 0,6,7
 293 534 293 534 293 400 c 0,4,5
 293 257 293 257 393 182 c 0,2,3
 492 107 492 107 684 107 c 16,0,1
EndSplineSet
EndChar
StartChar: uni01B9
Encoding: 441 441 441
Width: 1183
Flags: W
TeX: 117 0 0 0
AnchorPoint: "below" 731 -430 basechar 0
AnchorPoint: "above" 653 1147 basechar 0
Fore
603 476 m 1,0,-1
 192 952 l 1,1,-1
 192 1120 l 1,2,-1
 1066 1120 l 1,3,-1
 1066 973 l 1,4,-1
 399 973 l 1,5,-1
 829 474 l 1,6,-1
 829 308 l 1,7,-1
 655 308 l 2,8,9
 490 308 490 308 397 234 c 0,10,11
 305 159 305 159 305 27 c 0,12,13
 305 -116 305 -116 405 -191 c 0,14,15
 504 -266 504 -266 694 -266 c 0,16,17
 803 -266 803 -266 903 -241 c 128,-1,18
 1003 -216 1003 -216 1087 -167 c 1,19,-1
 1087 -362 l 1,20,21
 981 -399 981 -399 881 -418 c 0,22,23
 782 -436 782 -436 688 -436 c 0,24,25
 408 -436 408 -436 256 -315 c 0,26,27
 219 -286 219 -286 191 -250 c 2,28,-1
 163 -209 l 2,29,30
 104 -111 104 -111 104 27 c 128,-1,31
 104 165 104 165 185 269 c 0,32,33
 271 378 271 378 369 420 c 0,34,35
 497 476 497 476 603 476 c 1,0,-1
EndSplineSet
EndChar
StartChar: uni01BA
Encoding: 442 442 442
Width: 1075
Flags: W
TeX: 117 0 0 0
Fore
639 -274 m 0,0,1
 723 -274 723 -274 800 -253 c 0,2,3
 879 -232 879 -232 960 -188 c 1,4,-1
 960 -367 l 1,5,6
 873 -399 873 -399 793 -412 c 0,7,8
 707 -426 707 -426 610 -426 c 24,9,10
 130 -426 130 -426 130 -145 c 0,11,12
 130 93 130 93 536 146 c 0,13,14
 820 183 820 183 820 281 c 0,15,16
 820 405 820 405 585 405 c 2,17,18
 295 405 l 9,19,-1
 780 973 l 1,20,-1
 113 973 l 1,21,-1
 113 1120 l 1,22,-1
 987 1120 l 1,23,-1
 987 952 l 1,24,-1
 633 540 l 17,25,26
 1000 540 1000 540 1000 311 c 0,27,28
 1000 35 1000 35 536 -14 c 0,29,30
 310 -38 310 -38 310 -135 c 0,31,32
 310 -274 310 -274 639 -274 c 0,0,1
EndSplineSet
EndChar
StartChar: uni01BB
Encoding: 443 443 443
Width: 1303
Flags: W
TeX: 117 0 0 0
Fore
393 170 m 1,0,-1
 1098 170 l 1,1,-1
 1098 0 l 1,2,-1
 150 0 l 1,3,-1
 150 170 l 1,4,-1
 464 490 l 1,5,-1
 579 607 l 1,6,-1
 234 607 l 1,7,-1
 234 751 l 1,8,-1
 716 751 l 1,9,10
 811 860 811 860 848 932 c 0,11,12
 887 1008 887 1008 887 1081 c 0,13,14
 887 1200 887 1200 804 1275 c 0,15,16
 720 1350 720 1350 586 1350 c 0,17,18
 491 1350 491 1350 386 1317 c 0,19,20
 280 1284 280 1284 160 1217 c 1,21,-1
 160 1421 l 1,22,23
 282 1470 282 1470 388 1495 c 0,24,25
 494 1520 494 1520 582 1520 c 0,26,27
 814 1520 814 1520 952 1404 c 0,28,29
 1090 1288 1090 1288 1090 1094 c 0,30,31
 1090 1002 1090 1002 1056 920 c 0,32,33
 1025 847 1025 847 951 751 c 1,34,-1
 1055 751 l 1,35,-1
 1055 607 l 1,36,-1
 819 607 l 1,37,-1
 771 558 l 1,38,-1
 393 170 l 1,0,-1
EndSplineSet
EndChar
StartChar: uni01BC
Encoding: 444 444 444
Width: 1364
Flags: W
TeX: 117 0 0 0
Fore
774 849 m 2,0,1
 878 849 878 849 1008 793 c 0,2,3
 1107 750 1107 750 1192 642 c 0,4,5
 1273 538 1273 538 1273 400 c 0,6,7
 1273 249 1273 249 1214 164 c 2,8,-1
 1186 123 l 2,9,10
 1166 94 1166 94 1121 58 c 0,11,12
 969 -63 969 -63 689 -63 c 0,13,14
 397 -63 397 -63 245 58 c 0,15,16
 200 94 200 94 180 123 c 2,17,-1
 152 164 l 2,18,19
 93 249 93 249 93 400 c 1,20,-1
 294 400 l 1,21,22
 294 257 294 257 394 182 c 0,23,24
 493 107 493 107 683 107 c 128,-1,26
 873 107 873 107 972 182 c 0,27,28
 1072 257 1072 257 1072 400 c 0,29,30
 1072 534 1072 534 980 607 c 0,31,32
 887 681 887 681 722 681 c 2,33,-1
 403 681 l 1,34,-1
 403 680 l 1,35,-1
 201 680 l 1,36,-1
 201 1493 l 1,37,-1
 1130 1493 l 1,38,-1
 1130 1323 l 1,39,-1
 403 1323 l 1,40,-1
 403 848 l 1,41,-1
 774 849 l 2,0,1
EndSplineSet
EndChar
StartChar: uni01BD
Encoding: 445 445 445
Width: 1183
Flags: W
TeX: 117 0 0 0
Fore
588 476 m 2,0,1
 693 476 693 476 822 420 c 0,2,3
 921 377 921 377 1006 269 c 0,4,5
 1087 165 1087 165 1087 27 c 0,6,7
 1087 -124 1087 -124 1028 -209 c 2,8,-1
 1000 -250 l 2,9,10
 980 -279 980 -279 935 -315 c 0,11,12
 783 -436 783 -436 503 -436 c 0,13,14
 409 -436 409 -436 310 -418 c 0,15,16
 210 -399 210 -399 104 -362 c 1,17,-1
 104 -167 l 1,18,19
 188 -216 188 -216 288 -241 c 0,20,21
 388 -266 388 -266 497 -266 c 0,22,23
 687 -266 687 -266 786 -191 c 0,24,25
 886 -116 886 -116 886 27 c 0,26,27
 886 161 886 161 794 234 c 0,28,29
 701 308 701 308 536 308 c 2,30,-1
 182 308 l 1,31,-1
 182 476 l 1,32,-1
 183 476 l 1,33,-1
 186 1120 l 1,34,-1
 976 1120 l 1,35,-1
 976 950 l 1,36,-1
 370 950 l 1,37,-1
 367 476 l 1,38,-1
 588 476 l 2,0,1
EndSplineSet
EndChar
StartChar: uni01BE
Encoding: 446 446 446
Width: 1045
Flags: W
TeX: 117 0 0 0
Fore
545 998 m 1,0,-1
 543 873 l 1,1,2
 713 843 713 843 825 724 c 0,3,4
 933 609 933 609 933 439 c 0,5,6
 933 253 933 253 823 128 c 0,7,8
 686 -29 686 -29 411 -29 c 0,9,10
 326 -29 326 -29 245 -11 c 0,11,12
 164 6 164 6 88 41 c 1,13,-1
 88 213 l 1,14,15
 161 173 161 173 245 149 c 0,16,17
 323 127 323 127 403 127 c 0,18,19
 582 127 582 127 681 241 c 0,20,21
 738 306 738 306 739 439 c 0,22,23
 739 537 739 537 681 613 c 0,24,25
 595 727 595 727 403 727 c 2,26,-1
 341 727 l 1,27,-1
 343 998 l 1,28,-1
 114 998 l 1,29,-1
 114 1162 l 1,30,-1
 343 1162 l 1,31,-1
 343 1438 l 1,32,-1
 545 1438 l 1,33,-1
 545 1162 l 1,34,-1
 776 1162 l 1,35,-1
 776 998 l 1,36,-1
 545 998 l 1,0,-1
EndSplineSet
EndChar
StartChar: uni01BF
Encoding: 447 447 447
Width: 1300
Flags: W
TeX: 117 0 0 0
Fore
371 -122 m 1,1,-1
 371 -426 l 1,2,-1
 186 -426 l 1,3,-1
 186 1120 l 1,4,-1
 371 1120 l 1,5,-1
 371 950 l 1,6,7
 423 1016 423 1016 558 1098 c 0,8,9
 639 1147 639 1147 849 1147 c 0,10,11
 1033 1147 1033 1147 1110 1035 c 0,12,13
 1188 922 1188 922 1188 769 c 0,14,15
 1188 344 1188 344 371 -122 c 1,1,-1
371 60 m 17,16,17
 997 460 997 460 997 709 c 0,18,19
 997 842 997 842 940 908 c 0,20,21
 884 973 884 973 764 973 c 0,22,23
 544 973 544 973 371 734 c 1,24,-1
 371 60 l 17,16,17
EndSplineSet
EndChar
StartChar: uni01C0
Encoding: 448 448 448
Width: 604
Flags: W
TeX: 117 0 0 0
Fore
201 1493 m 1,0,-1
 403 1493 l 1,1,-1
 403 -426 l 1,2,-1
 201 -426 l 1,3,-1
 201 1493 l 1,0,-1
EndSplineSet
EndChar
StartChar: uni01C2
Encoding: 450 450 450
Width: 940
Flags: W
TeX: 117 0 0 0
Fore
371 1493 m 1,0,-1
 573 1493 l 1,1,-1
 573 876 l 1,2,-1
 924 876 l 1,3,-1
 924 708 l 1,4,-1
 573 708 l 1,5,-1
 573 468 l 1,6,-1
 924 468 l 1,7,-1
 924 298 l 1,8,-1
 573 298 l 1,9,-1
 573 -426 l 1,10,-1
 371 -426 l 1,11,-1
 371 298 l 1,12,-1
 20 298 l 1,13,-1
 20 468 l 1,14,-1
 371 468 l 1,15,-1
 371 708 l 1,16,-1
 20 708 l 1,17,-1
 20 876 l 1,18,-1
 371 876 l 1,19,-1
 371 1493 l 1,0,-1
EndSplineSet
EndChar
StartChar: uni01E4
Encoding: 484 484 484
Width: 1587
Flags: W
Fore
1419 780 m 1,0,-1
 1419 482 l 1,1,-1
 1540 482 l 1,2,-1
 1540 394 l 1,3,-1
 1419 394 l 1,4,-1
 1419 139 l 1,5,6
 1302 56 1302 56 1161 13.5 c 128,-1,7
 1020 -29 1020 -29 860 -29 c 0,8,9
 510 -29 510 -29 312.5 175.5 c 128,-1,10
 115 380 115 380 115 745 c 0,11,12
 115 1111 115 1111 312.5 1315.5 c 128,-1,13
 510 1520 510 1520 860 1520 c 0,14,15
 1006 1520 1006 1520 1137.5 1484 c 128,-1,16
 1269 1448 1269 1448 1380 1378 c 1,17,-1
 1380 1163 l 1,18,19
 1268 1258 1268 1258 1142 1306 c 128,-1,20
 1016 1354 1016 1354 877 1354 c 0,21,22
 603 1354 603 1354 465.5 1201 c 128,-1,23
 328 1048 328 1048 328 745 c 0,24,25
 328 443 328 443 465.5 290 c 128,-1,26
 603 137 603 137 877 137 c 0,27,28
 984 137 984 137 1068 155.5 c 128,-1,29
 1152 174 1152 174 1219 213 c 1,30,-1
 1219 394 l 1,31,-1
 966 394 l 1,32,-1
 966 482 l 1,33,-1
 1219 482 l 1,34,-1
 1219 614 l 1,35,-1
 889 614 l 1,36,-1
 889 780 l 1,37,-1
 1419 780 l 1,0,-1
EndSplineSet
EndChar
StartChar: uni01E5
Encoding: 485 485 485
Width: 1300
Flags: W
Fore
930 573 m 0,0,1
 930 773 930 773 847.5 883 c 128,-1,2
 765 993 765 993 616 993 c 0,3,4
 468 993 468 993 385.5 883 c 128,-1,5
 303 773 303 773 303 573 c 0,6,7
 303 374 303 374 385.5 264 c 128,-1,8
 468 154 468 154 616 154 c 0,9,10
 765 154 765 154 847.5 264 c 128,-1,11
 930 374 930 374 930 573 c 0,0,1
1114 139 m 2,12,13
 1114 29 1114 29 1095 -59 c 1,14,-1
 1274 -59 l 1,15,-1
 1274 -129 l 1,16,-1
 1076 -129 l 1,17,18
 1045 -222 1045 -222 987 -286 c 0,19,20
 860 -426 860 -426 598 -426 c 0,21,22
 501 -426 501 -426 415 -411.5 c 128,-1,23
 329 -397 329 -397 248 -367 c 1,24,-1
 248 -188 l 1,25,26
 329 -232 329 -232 408 -253 c 128,-1,27
 487 -274 487 -274 569 -274 c 0,28,29
 750 -274 750 -274 840 -179 c 0,30,31
 861 -156 861 -156 878 -128 c 1,32,-1
 242 -128 l 1,33,-1
 242 -59 l 1,34,-1
 908 -59 l 1,35,36
 930 12 930 12 930 106 c 2,37,-1
 930 197 l 1,38,39
 873 98 873 98 784 49 c 128,-1,40
 695 0 695 0 571 0 c 0,41,42
 365 0 365 0 239 157 c 128,-1,43
 113 314 113 314 113 573 c 0,44,45
 113 833 113 833 239 990 c 128,-1,46
 365 1147 365 1147 571 1147 c 0,47,48
 695 1147 695 1147 784 1098 c 128,-1,49
 873 1049 873 1049 930 950 c 1,50,-1
 930 1120 l 1,51,-1
 1114 1120 l 1,52,-1
 1114 139 l 2,12,13
EndSplineSet
EndChar
StartChar: uni01F6
Encoding: 502 502 502
Width: 2279
Flags: W
TeX: 117 0 0 0
Fore
201 1493 m 25,0,-1
 403 1493 l 1,1,-1
 403 881 l 1,2,-1
 1137 881 l 1,3,-1
 1137 1493 l 1,4,-1
 1339 1493 l 1,5,-1
 1339 449 l 2,6,7
 1339 290 1339 290 1401 210 c 0,8,9
 1462 132 1462 132 1615 131 c 0,10,11
 1763 131 1763 131 1829 210 c 0,12,13
 1891 285 1891 285 1891 449 c 2,14,-1
 1891 1120 l 1,15,-1
 2093 1120 l 1,16,-1
 2093 442 l 2,17,18
 2093 219 2093 219 1993 91 c 0,19,20
 1897 -29 1897 -29 1615 -29 c 0,21,22
 1340 -29 1340 -29 1237 91 c 0,23,24
 1137 209 1137 209 1137 442 c 2,25,-1
 1137 711 l 1,26,-1
 403 711 l 1,27,-1
 403 0 l 1,28,-1
 201 0 l 1,29,-1
 201 1493 l 25,0,-1
EndSplineSet
EndChar
StartChar: uni01F7
Encoding: 503 503 503
Width: 1397
Flags: W
TeX: 117 0 0 0
Fore
403 156 m 1,1,-1
 403 -426 l 1,2,-1
 201 -426 l 1,3,-1
 201 1493 l 1,4,-1
 403 1493 l 1,5,-1
 403 1308 l 1,6,7
 459 1380 459 1380 604 1467 c 0,8,9
 691 1520 691 1520 917 1520 c 0,10,11
 1115 1520 1115 1520 1198 1400 c 0,12,13
 1282 1278 1282 1278 1282 1114 c 0,14,15
 1282 657 1282 657 403 156 c 1,1,-1
403 351 m 17,16,17
 1076 781 1076 781 1076 1049 c 0,18,19
 1076 1192 1076 1192 1015 1263 c 0,20,21
 955 1333 955 1333 826 1333 c 0,22,23
 589 1333 589 1333 403 1076 c 1,24,-1
 403 351 l 17,16,17
EndSplineSet
EndChar
StartChar: uni021C
Encoding: 540 540 540
Width: 1284
Flags: W
TeX: 117 0 0 0
Fore
156 -270 m 1,0,1
 355 -206 355 -206 549 -118 c 0,2,3
 714 -43 714 -43 840 78 c 0,4,5
 938 172 938 172 938 314 c 0,6,7
 938 427 938 427 865 494 c 128,-1,9
 792 561 792 561 701 561 c 0,10,11
 638 561 638 561 568 530 c 2,12,-1
 328 424 l 1,13,-1
 328 595 l 1,14,-1
 576 701 l 2,15,16
 718 762 718 762 824 880 c 0,17,18
 903 968 903 968 903 1112 c 0,19,20
 903 1235 903 1235 822 1288 c 0,21,22
 727 1351 727 1351 628 1350 c 0,23,24
 523 1350 523 1350 410 1292 c 0,25,26
 321 1246 321 1246 201 1166 c 1,27,28
 201 1356 l 1,29,30
 320 1422 320 1422 416 1464 c 0,31,32
 545 1520 545 1520 646 1520 c 0,33,34
 838 1520 838 1520 970 1416 c 0,35,36
 1104 1311 1104 1311 1104 1133 c 0,37,38
 1104 963 1104 963 1033 864 c 0,39,40
 951 751 951 751 831 674 c 1,41,42
 969 655 969 655 1050 546 c 0,43,44
 1139 427 1139 427 1139 314 c 0,45,46
 1139 96 1139 96 989 -46 c 0,47,48
 859 -169 859 -169 555 -298 c 0,49,50
 337 -390 337 -390 156 -430 c 1,51,-1
 156 -270 l 1,0,1
EndSplineSet
EndChar
StartChar: uni021D
Encoding: 541 541 541
Width: 1068
Flags: W
TeX: 117 0 0 0
Fore
71 -303 m 1,0,1
 249 -252 249 -252 425 -180 c 0,2,3
 573 -120 573 -120 687 -21 c 0,4,5
 775 55 775 55 775 170 c 0,6,7
 775 261 775 261 709 316 c 0,8,9
 644 370 644 370 562 370 c 0,10,11
 505 370 505 370 442 345 c 2,12,-1
 226 259 l 1,13,-1
 226 398 l 1,14,-1
 449 483 l 2,15,16
 573 530 573 530 672 629 c 0,17,18
 743 700 743 700 743 816 c 0,19,20
 743 912 743 912 670 959 c 0,21,22
 592 1009 592 1009 496 1009 c 0,23,24
 404 1009 404 1009 300 962 c 0,25,26
 221 927 221 927 112 860 c 1,27,28
 112 1014 l 1,29,30
 208 1062 208 1062 306 1101 c 0,31,32
 421 1147 421 1147 512 1147 c 0,33,34
 683 1147 683 1147 804 1062 c 0,35,36
 924 977 924 977 924 833 c 0,37,38
 924 696 924 696 860 615 c 0,39,40
 787 524 787 524 679 461 c 1,41,42
 803 446 803 446 876 358 c 0,43,44
 956 261 956 261 956 170 c 0,45,46
 956 -7 956 -7 821 -122 c 0,47,48
 701 -224 701 -224 430 -326 c 0,49,50
 234 -400 234 -400 71 -433 c 1,51,-1
 71 -303 l 1,0,1
EndSplineSet
EndChar
StartChar: uni0220
Encoding: 544 544 544
Width: 1506
Flags: W
TeX: 117 0 0 0
Fore
1305 893 m 2,0,-1
 1305 -426 l 1,1,-1
 1104 -426 l 1,2,-1
 1104 895 l 2,3,4
 1104 1107 1104 1107 1026 1216 c 0,5,6
 950 1323 950 1323 797 1323 c 0,7,8
 618 1323 618 1323 509 1194 c 0,9,10
 403 1068 403 1068 403 846 c 2,11,-1
 403 0 l 1,12,-1
 201 0 l 1,13,-1
 201 1493 l 1,14,-1
 403 1493 l 1,15,-1
 403 1252 l 1,16,17
 481 1387 481 1387 586 1453 c 0,18,19
 691 1520 691 1520 845 1520 c 0,20,21
 1072 1520 1072 1520 1188 1361 c 0,22,23
 1305 1202 1305 1202 1305 893 c 2,0,-1
EndSplineSet
EndChar
StartChar: uni0221
Encoding: 545 545 545
Width: 1716
Flags: W
TeX: 117 0 0 0
Fore
1206 130 m 9,0,1
 1223 125 1223 125 1260 125 c 0,2,3
 1420 125 1420 125 1420 300 c 0,4,5
 1420 345 1420 345 1368 346 c 0,6,7
 1316 346 1316 346 1206 130 c 9,0,1
1114 314 m 1,8,9
 1224 498 1224 498 1360 498 c 0,10,11
 1604 498 1604 498 1604 292 c 0,12,13
 1604 -29 1604 -29 1262 -29 c 0,14,15
 1189 -29 1189 -29 1136 -14 c 1,16,17
 1102 -86 1102 -86 1078 -144 c 1,18,-1
 882 -144 l 1,19,20
 911 -75 911 -75 978 72 c 1,21,22
 930 132 930 132 930 168 c 1,23,24
 872 68 872 68 784 20 c 0,25,26
 695 -29 695 -29 571 -29 c 0,27,28
 368 -29 368 -29 240 133 c 0,29,30
 113 295 113 295 113 559 c 128,-1,31
 113 823 113 823 240 985 c 0,32,33
 368 1147 368 1147 571 1147 c 0,34,35
 695 1147 695 1147 784 1098 c 0,36,37
 872 1050 872 1050 930 950 c 1,38,-1
 930 1556 l 1,39,-1
 1114 1556 l 1,40,-1
 1114 314 l 1,8,9
303 559 m 128,-1,42
 303 356 303 356 386 240 c 0,43,44
 470 125 470 125 616 125 c 128,-1,45
 762 125 762 125 846 240 c 0,46,47
 930 356 930 356 930 559 c 128,-1,48
 930 762 930 762 846 878 c 0,49,50
 762 993 762 993 616 993 c 128,-1,51
 470 993 470 993 386 878 c 0,52,41
 303 762 303 762 303 559 c 128,-1,42
EndSplineSet
EndChar
StartChar: uni0222
Encoding: 546 546 546
Width: 1430
Flags: W
TeX: 117 0 0 0
Fore
715 709 m 0,0,1
 531 709 531 709 425 632 c 128,-1,2
 318 555 318 555 318 420 c 0,3,4
 318 285 318 285 425 208 c 128,-1,5
 531 131 531 131 715 131 c 0,6,7
 899 131 899 131 1006 208 c 128,-1,8
 1113 286 1113 286 1113 420 c 0,9,10
 1113 555 1113 555 1007 632 c 128,-1,11
 901 709 901 709 715 709 c 0,0,1
657 1260 m 17,0,0
 527 1257 527 1257 442 1195 c 128,-1,47
 357 1133 357 1133 357 1054 c 0,36,37
 357 985 357 985 452 913 c 128,-1,38
 511 868 511 868 715 868 c 0,39,40
 883 868 883 868 978 933 c 128,-1,41
 1074 998 1074 998 1074 1134 c 0,42,43
 1074 1292 1074 1292 998 1335 c 128,-1,44
 889 1412 889 1412 759 1420 c 9,0,0
 759 1520 l 1,18,19
 987 1520 987 1520 1137 1416 c 128,-1,20
 1276 1319 1276 1319 1276 1133 c 0,21,22
 1276 1005 1276 1005 1191 916 c 128,-1,23
 1106 827 1106 827 954 795 c 1,24,25
 1126 761 1126 761 1221 662 c 128,-1,26
 1317 563 1317 563 1317 420 c 0,27,28
 1317 203 1317 203 1161 87 c 128,-1,29
 1006 -29 1006 -29 715 -29 c 0,30,31
 424 -29 424 -29 269 87 c 128,-1,32
 113 203 113 203 113 420 c 0,33,34
 113 563 113 563 209 662 c 128,-1,35
 306 761 306 761 477 795 c 1,12,13
 306 826 306 826 239 896 c 128,-1,14
 154 985 154 985 154 1073 c 0,15,16
 154 1203 154 1203 284 1286 c 128,-1,17
 400 1360 400 1360 657 1360 c 1,0,0
 657 1260 l 17,0,0
EndSplineSet
EndChar
StartChar: uni0223
Encoding: 547 547 547
Width: 1250
Flags: W
TeX: 117 0 0 0
Fore
625 709 m 0,0,1
 481 709 481 709 398 632 c 0,2,3
 316 555 316 555 316 420 c 128,-1,4
 316 285 316 285 398 208 c 0,5,6
 481 131 481 131 625 131 c 128,-1,7
 769 131 769 131 852 208 c 0,8,9
 935 286 935 286 935 420 c 0,10,11
 935 555 935 555 852 632 c 0,12,13
 770 709 770 709 625 709 c 0,0,1
1024 1327 m 17,14,15
 1082 1245 1082 1245 1082 1133 c 0,16,17
 1082 980 1082 980 1030 916 c 0,18,19
 957 827 957 827 828 795 c 1,20,21
 974 761 974 761 1056 662 c 0,22,23
 1137 563 1137 563 1137 420 c 0,24,25
 1137 203 1137 203 1004 87 c 0,26,27
 872 -29 872 -29 625 -29 c 128,-1,28
 378 -29 378 -29 246 87 c 0,29,30
 113 203 113 203 113 420 c 0,31,32
 113 563 113 563 195 662 c 128,-1,33
 277 761 277 761 423 795 c 1,34,35
 281 830 281 830 220 916 c 0,36,37
 168 991 168 991 168 1133 c 0,38,39
 168 1239 168 1239 231 1327 c 9,40,-1
 392 1295 l 17,41,42
 349 1230 349 1230 349 1114 c 128,-1,43
 349 998 349 998 422 933 c 0,44,45
 494 868 494 868 625 868 c 0,46,47
 755 868 755 868 828 933 c 0,48,49
 902 998 902 998 902 1114 c 0,50,51
 902 1233 902 1233 858 1295 c 9,52,-1
 1024 1327 l 17,14,15
EndSplineSet
EndChar
StartChar: uni0224
Encoding: 548 548 548
Width: 1403
Flags: W
TeX: 117 0 0 0
Fore
1311 -20 m 2,0,1
 1311 -309 1311 -309 1153 -389 c 0,2,3
 1081 -426 1081 -426 967 -426 c 2,4,-1
 713 -426 l 1,5,-1
 713 -270 l 1,6,-1
 946 -270 l 2,7,8
 1051 -270 1051 -270 1089 -222 c 0,9,10
 1127 -173 1127 -173 1127 -20 c 2,11,-1
 1127 0 l 1,12,-1
 92 0 l 1,13,-1
 92 154 l 1,14,-1
 1036 1323 l 1,15,-1
 115 1323 l 1,16,-1
 115 1493 l 1,17,-1
 1288 1493 l 1,18,-1
 1288 1339 l 1,19,-1
 344 170 l 1,20,-1
 1311 170 l 1,21,-1
 1311 -20 l 2,0,1
EndSplineSet
EndChar
StartChar: uni0225
Encoding: 549 549 549
Width: 1075
Flags: W
TeX: 117 0 0 0
Fore
987 -20 m 2,0,1
 987 -309 987 -309 829 -389 c 0,2,3
 757 -426 757 -426 643 -426 c 2,4,-1
 389 -426 l 1,5,-1
 389 -270 l 1,6,-1
 622 -270 l 2,7,8
 727 -270 727 -270 765 -222 c 0,9,10
 803 -173 803 -173 803 -20 c 2,11,-1
 803 0 l 1,12,-1
 88 0 l 1,13,-1
 88 168 l 1,14,-1
 780 973 l 1,15,-1
 113 973 l 1,16,-1
 113 1120 l 1,17,-1
 987 1120 l 1,18,-1
 987 952 l 1,19,-1
 295 147 l 1,20,-1
 987 147 l 1,21,-1
 987 -20 l 2,0,1
EndSplineSet
EndChar
StartChar: uni0234
Encoding: 564 564 564
Width: 972
Flags: W
TeX: 117 0 0 0
AnchorPoint: "above" 271 1520 basechar 0
AnchorPoint: "below" 271 0 basechar 0
Fore
462 130 m 9,0,0
 479 125 479 125 516 125 c 0,1,2
 676 125 676 125 676 300 c 0,3,4
 676 345 676 345 624 346 c 0,5,6
 572 346 572 346 462 130 c 9,0,0
370 314 m 1,2,-1
 480 498 480 498 616 498 c 0,3,4
 860 498 860 498 860 292 c 0,5,6
 860 -29 860 -29 518 -29 c 0,7,8
 445 -29 445 -29 392 -14 c 1,9,10
 358 -86 358 -86 334 -144 c 1,11,-1
 138 -144 l 1,12,13
 167 -75 167 -75 234 72 c 1,14,15
 185 132 185 132 186 222 c 2,16,-1
 186 1550 l 1,17,-1
 370 1550 l 1,18,-1
 370 314 l 1,2,-1
EndSplineSet
EndChar
StartChar: uni0235
Encoding: 565 565 565
Width: 1726
Flags: W
TeX: 117 0 0 0
AnchorPoint: "above" 649 1147 basechar 0
AnchorPoint: "below" 678 0 basechar 0
Fore
1216 130 m 9,0,0
 1233 125 1233 125 1270 125 c 0,1,2
 1430 125 1430 125 1430 300 c 0,3,4
 1430 345 1430 345 1378 346 c 0,5,6
 1326 346 1326 346 1216 130 c 9,0,0
1124 314 m 1,1,-1
 1234 498 1234 498 1370 498 c 0,2,3
 1614 498 1614 498 1614 292 c 0,4,5
 1614 -29 1614 -29 1272 -29 c 0,6,7
 1199 -29 1199 -29 1146 -14 c 1,8,9
 1112 -86 1112 -86 1088 -144 c 1,10,-1
 892 -144 l 1,11,12
 921 -75 921 -75 988 72 c 1,13,14
 939 132 939 132 940 222 c 1,15,-1
 940 670 l 1,16,17
 940 829 940 829 878 908 c 128,-1,19
 816 987 816 987 692 987 c 0,20,21
 543 987 543 987 457 892 c 128,-1,22
 371 797 371 797 371 633 c 2,23,-1
 371 0 l 1,24,-1
 186 0 l 1,25,-1
 186 1120 l 1,26,-1
 371 1120 l 1,27,-1
 371 946 l 1,28,29
 437 1047 437 1047 526 1097 c 0,30,31
 616 1147 616 1147 733 1147 c 0,31,32
 926 1147 926 1147 1025 1028 c 0,33,34
 1124 908 1124 908 1124 676 c 2,34,-1
 1124 314 l 1,1,-1
EndSplineSet
EndChar
StartChar: uni0236
Encoding: 566 566 566
Width: 977
Flags: W
TeX: 117 0 0 0
AnchorPoint: "above" 282 1520 basechar 0
AnchorPoint: "below" 500 0 basechar 0
Fore
467 130 m 9,0,0
 484 125 484 125 521 125 c 0,1,2
 681 125 681 125 681 300 c 0,3,4
 681 345 681 345 629 346 c 0,5,6
 577 346 577 346 467 130 c 9,0,0
375 314 m 17,0,0
 485 498 485 498 621 498 c 0,1,2
 865 498 865 498 865 292 c 0,3,4
 865 -29 865 -29 523 -29 c 0,5,6
 450 -29 450 -29 396 -14 c 1,7,8
 363 -86 363 -86 339 -144 c 1,9,-1
 143 -144 l 1,10,11
 172 -75 172 -75 239 72 c 1,12,13
 190 132 190 132 190 222 c 1,14,-1
 190 977 l 1,15,-1
 55 977 l 1,16,-1
 55 1120 l 1,17,-1
 190 1120 l 1,18,-1
 190 1438 l 1,19,-1
 375 1438 l 1,20,-1
 375 1120 l 1,21,-1
 754 1120 l 1,22,-1
 754 977 l 1,23,-1
 375 977 l 1,24,-1
 375 314 l 17,0,0
EndSplineSet
EndChar
StartChar: dotlessj
Encoding: 567 567 567
Width: 569
Flags: W
AnchorPoint: "above" 287 1147 basechar 0
Fore
193 1120 m 1,0,-1
 377 1120 l 1,1,-1
 377 -20 l 2,2,3
 377 -234 377 -234 295.5 -330 c 128,-1,4
 214 -426 214 -426 33 -426 c 2,5,-1
 -37 -426 l 1,6,-1
 -37 -270 l 1,7,-1
 12 -270 l 2,8,9
 117 -270 117 -270 155 -221.5 c 128,-1,10
 193 -173 193 -173 193 -20 c 2,11,-1
 193 1120 l 1,0,-1
EndSplineSet
EndChar
StartChar: uni0238
Encoding: 568 568 568
Width: 2044
Flags: W
TeX: 117 0 0 0
Fore
303 559 m 0,0,1
 303 356 303 356 386 240 c 0,2,3
 470 125 470 125 616 125 c 0,4,5
 762 125 762 125 846 240 c 0,6,7
 930 356 930 356 930 559 c 0,8,9
 930 762 930 762 846 878 c 0,10,11
 762 993 762 993 616 993 c 0,12,13
 470 993 470 993 386 878 c 0,14,15
 303 762 303 762 303 559 c 0,0,1
1115 950 m 1,16,17
 1173 1050 1173 1050 1262 1098 c 0,18,19
 1350 1147 1350 1147 1473 1147 c 0,20,21
 1677 1147 1677 1147 1804 985 c 0,22,23
 1932 823 1932 823 1932 559 c 0,24,25
 1932 295 1932 295 1804 133 c 0,26,27
 1677 -29 1677 -29 1473 -29 c 0,28,29
 1350 -29 1350 -29 1262 20 c 0,30,31
 1173 68 1173 68 1115 168 c 1,32,-1
 1115 0 l 1,33,-1
 1114 0 l 1,34,-1
 930 0 l 1,35,-1
 930 168 l 1,36,37
 872 68 872 68 784 20 c 0,38,39
 695 -29 695 -29 571 -29 c 0,40,41
 368 -29 368 -29 240 133 c 0,42,43
 113 295 113 295 113 559 c 0,44,45
 113 823 113 823 240 985 c 0,46,47
 368 1147 368 1147 571 1147 c 0,48,49
 695 1147 695 1147 784 1098 c 0,50,51
 872 1050 872 1050 930 950 c 1,52,-1
 930 1556 l 1,53,-1
 1114 1556 l 1,54,-1
 1115 1556 l 1,55,-1
 1115 950 l 1,16,17
1741 559 m 0,56,57
 1741 762 1741 762 1658 878 c 0,58,59
 1574 993 1574 993 1428 993 c 0,60,61
 1282 993 1282 993 1198 878 c 0,62,63
 1115 762 1115 762 1115 559 c 0,64,65
 1115 356 1115 356 1198 240 c 0,66,67
 1282 125 1282 125 1428 125 c 0,68,69
 1574 125 1574 125 1658 240 c 0,70,71
 1741 356 1741 356 1741 559 c 0,56,57
EndSplineSet
EndChar
StartChar: uni0239
Encoding: 569 569 569
Width: 2044
Flags: W
TeX: 117 0 0 0
Fore
1741 559 m 0,0,1
 1741 762 1741 762 1658 878 c 0,2,3
 1574 993 1574 993 1428 993 c 0,4,5
 1282 993 1282 993 1198 878 c 0,6,7
 1115 762 1115 762 1115 559 c 0,8,9
 1115 356 1115 356 1198 240 c 0,10,11
 1282 125 1282 125 1428 125 c 0,12,13
 1574 125 1574 125 1658 240 c 0,14,15
 1741 356 1741 356 1741 559 c 0,0,1
1115 168 m 1,16,-1
 1115 -426 l 1,17,-1
 1114 -426 l 1,18,-1
 930 -426 l 1,19,-1
 930 168 l 1,20,21
 872 68 872 68 784 20 c 0,22,23
 695 -29 695 -29 571 -29 c 0,24,25
 368 -29 368 -29 240 133 c 0,26,27
 113 295 113 295 113 559 c 0,28,29
 113 823 113 823 240 985 c 0,30,31
 368 1147 368 1147 571 1147 c 0,32,33
 695 1147 695 1147 784 1098 c 0,34,35
 872 1050 872 1050 930 950 c 1,36,-1
 930 1120 l 1,37,-1
 1114 1120 l 1,38,-1
 1115 1120 l 1,39,-1
 1115 950 l 1,40,41
 1173 1050 1173 1050 1262 1098 c 0,42,43
 1350 1147 1350 1147 1473 1147 c 0,44,45
 1677 1147 1677 1147 1804 985 c 0,46,47
 1932 823 1932 823 1932 559 c 0,48,49
 1932 295 1932 295 1804 133 c 0,50,51
 1677 -29 1677 -29 1473 -29 c 0,52,53
 1350 -29 1350 -29 1262 20 c 0,54,55
 1173 68 1173 68 1115 168 c 1,16,-1
303 559 m 0,56,57
 303 356 303 356 386 240 c 0,58,59
 470 125 470 125 616 125 c 0,60,61
 762 125 762 125 846 240 c 0,62,63
 930 356 930 356 930 559 c 0,64,65
 930 762 930 762 846 878 c 0,66,67
 762 993 762 993 616 993 c 0,68,69
 470 993 470 993 386 878 c 0,70,71
 303 762 303 762 303 559 c 0,56,57
EndSplineSet
EndChar
StartChar: uni023A
Encoding: 570 570 570
Width: 1401
Flags: W
TeX: 117 0 0 0
Fore
586 1493 m 1,0,-1
 815 1493 l 1,1,-1
 949 1142 l 1,2,-1
 1302 1559 l 1,3,-1
 1404 1470 l 1,4,-1
 1004 997 l 1,5,-1
 1384 0 l 1,6,-1
 1174 0 l 1,7,-1
 1038 383 l 1,8,-1
 484 383 l 1,9,-1
 279 142 l 1,10,-1
 229 0 l 1,11,-1
 159 0 l 1,12,-1
 100 -70 l 1,13,-1
 18 0 l 1,14,-1
 16 0 l 1,15,-1
 17 1 l 1,16,-1
 -3 18 l 1,17,-1
 44 74 l 1,18,-1
 586 1493 l 1,0,-1
700 1294 m 1,19,-1
 426 551 l 1,20,-1
 448 551 l 1,21,-1
 815 984 l 1,22,-1
 700 1294 l 1,19,-1
626 551 m 1,23,-1
 975 551 l 1,24,-1
 869 838 l 1,25,-1
 626 551 l 1,23,-1
EndSplineSet
EndChar
StartChar: uni023B
Encoding: 571 571 571
Width: 1430
Flags: W
TeX: 117 0 0 0
Fore
114 -70 m 1,0,-1
 12 18 l 1,1,-1
 232 279 l 1,2,3
 115 466 115 466 115 745 c 0,4,5
 115 1105 115 1105 310 1312 c 0,6,7
 505 1520 505 1520 844 1520 c 0,8,9
 978 1520 978 1520 1096 1484 c 0,10,11
 1157 1466 1157 1466 1215 1439 c 1,12,-1
 1316 1559 l 1,13,-1
 1418 1470 l 1,14,-1
 1319 1352 l 1,15,-1
 1319 1165 l 1,16,17
 1273 1208 1273 1208 1224 1241 c 1,18,-1
 444 319 l 1,19,20
 453 306 453 306 464 294 c 0,21,22
 600 137 600 137 856 137 c 0,23,24
 986 137 986 137 1102 184 c 0,25,26
 1217 231 1217 231 1319 326 c 1,27,-1
 1319 115 l 1,28,29
 1213 43 1213 43 1094 7 c 0,30,31
 976 -29 976 -29 844 -29 c 0,32,33
 512 -29 512 -29 318 170 c 1,34,-1
 114 -70 l 1,0,-1
375 447 m 1,35,-1
 1103 1307 l 1,36,-1
 1102 1307 l 2,37,38
 986 1354 986 1354 856 1354 c 0,39,40
 600 1354 600 1354 464 1198 c 0,41,42
 328 1041 328 1041 328 745 c 0,43,44
 328 572 328 572 375 447 c 1,35,-1
EndSplineSet
EndChar
StartChar: uni023C
Encoding: 572 572 572
Width: 1126
Flags: W
TeX: 117 0 0 0
Fore
105 -94 m 1,0,-1
 9 -16 l 1,1,-1
 198 214 l 1,2,3
 113 355 113 355 113 559 c 0,4,5
 113 833 113 833 264 990 c 0,6,7
 414 1147 414 1147 676 1147 c 0,8,9
 761 1147 761 1147 842 1130 c 0,10,11
 888 1120 888 1120 933 1104 c 1,12,-1
 1022 1212 l 1,13,-1
 1117 1133 l 1,14,-1
 999 990 l 1,15,-1
 999 905 l 1,16,17
 974 919 974 919 950 930 c 1,18,-1
 393 256 l 1,19,20
 400 248 400 248 406 240 c 0,21,22
 505 127 505 127 684 127 c 0,23,24
 764 127 764 127 842 148 c 0,25,26
 921 170 921 170 999 213 c 1,27,-1
 999 43 l 1,28,29
 922 7 922 7 840 -11 c 0,30,31
 757 -29 757 -29 664 -29 c 0,32,33
 424 -29 424 -29 277 115 c 1,34,-1
 105 -94 l 1,0,-1
332 376 m 1,35,-1
 826 974 l 1,36,37
 755 991 755 991 684 991 c 0,38,39
 505 991 505 991 406 878 c 0,40,41
 307 764 307 764 307 559 c 0,42,43
 307 456 307 456 332 376 c 1,35,-1
EndSplineSet
EndChar
StartChar: uni023D
Encoding: 573 573 573
Width: 1141
Flags: W
TeX: 117 0 0 0
Fore
201 1493 m 1,0,-1
 403 1493 l 1,1,-1
 403 844 l 1,2,-1
 594 844 l 1,3,-1
 594 700 l 1,4,-1
 403 700 l 1,5,-1
 403 170 l 1,6,-1
 1130 170 l 1,7,-1
 1130 0 l 1,8,-1
 201 0 l 1,9,-1
 201 700 l 1,10,-1
 10 700 l 1,11,-1
 10 844 l 1,12,-1
 201 844 l 1,13,-1
 201 1493 l 1,0,-1
EndSplineSet
EndChar
StartChar: uni023E
Encoding: 574 574 574
Width: 1251
Flags: W
TeX: 117 0 0 0
Fore
1257 1385 m 1,0,-1
 1257 1323 l 1,15,-1
 1205 1323 l 1,14,-1
 727 759 l 1,13,-1
 727 0 l 1,12,-1
 524 0 l 1,11,-1
 524 519 l 1,10,-1
 25 -70 l 1,9,-1
 -78 18 l 1,8,-1
 524 729 l 1,7,-1
 524 1323 l 1,6,-1
 -6 1323 l 1,5,-1
 -6 1493 l 1,4,-1
 1171 1493 l 1,3,-1
 1227 1559 l 1,2,-1
 1329 1470 l 1,1,-1
 1257 1385 l 1,0,-1
727 969 m 1,16,-1
 1027 1323 l 1,18,-1
 727 1323 l 1,17,-1
 727 969 l 1,16,-1
EndSplineSet
EndChar
StartChar: uni023F
Encoding: 575 575 575
Width: 1067
Flags: W
TeX: 117 0 0 0
Fore
778 295 m 0,50,51
 778 370 778 370 728 410 c 128,-1,53
 677 450 677 450 506 487 c 2,54,-1
 442 502 l 2,55,56
 271 538 271 538 195 612 c 128,-1,58
 119 687 119 687 119 817 c 0,59,60
 119 975 119 975 231 1061 c 128,-1,62
 343 1147 343 1147 549 1147 c 0,63,64
 651 1147 651 1147 741 1132 c 128,-1,66
 831 1117 831 1117 907 1087 c 1,0,-1
 907 913 l 1,1,2
 829 953 829 953 745 973 c 128,-1,4
 661 993 661 993 571 993 c 0,5,6
 434 993 434 993 366 951 c 128,-1,8
 297 909 297 909 297 825 c 0,9,10
 297 761 297 761 346 724 c 128,-1,12
 395 688 395 688 543 655 c 2,13,-1
 606 641 l 2,14,15
 804 597 804 597 884 522 c 0,16,17
 967 446 967 446 967 309 c 0,18,19
 967 153 967 153 844 62 c 0,20,21
 757 -2 757 -2 625 -21 c 1,22,-1
 784 -180 l 1,23,-1
 931 -306 l 2,24,25
 973 -342 973 -342 1049 -342 c 1,26,-1
 1049 -496 l 1,27,-1
 1010 -496 l 2,28,29
 926 -496 926 -496 812 -435 c 0,30,31
 741 -397 741 -397 652 -306 c 2,32,-1
 415 -63 l 2,33,34
 385 -33 385 -33 349 -17 c 0,35,36
 333 -14 333 -14 316 -12 c 0,37,38
 219 6 219 6 111 41 c 1,39,-1
 111 231 l 1,21,22
 213 178 213 178 312 152 c 128,-1,23
 411 125 411 125 508 125 c 0,24,25
 638 125 638 125 708 170 c 128,-1,26
 778 214 778 214 778 295 c 0,50,51
EndSplineSet
EndChar
StartChar: uni0240
Encoding: 576 576 576
Width: 1075
Flags: W
TeX: 117 0 0 0
Fore
113 1120 m 1,0,-1
 987 1120 l 1,1,-1
 987 952 l 1,2,-1
 297 149 l 1,3,4
 389 133 389 133 438 84 c 2,5,-1
 702 -180 l 1,6,-1
 849 -306 l 2,7,8
 891 -342 891 -342 967 -342 c 2,9,-1
 1075 -342 l 1,10,-1
 1075 -496 l 1,11,-1
 928 -496 l 2,12,13
 844 -496 844 -496 730 -435 c 0,14,15
 659 -397 659 -397 570 -306 c 2,16,-1
 333 -63 l 2,17,18
 272 0 272 0 182 0 c 0,19,-1
 88 0 l 1,20,-1
 88 156 l 1,21,-1
 88 168 l 1,22,-1
 780 973 l 1,23,-1
 113 973 l 1,24,-1
 113 1120 l 1,0,-1
EndSplineSet
EndChar
StartChar: uni0241
Encoding: 577 577 577
Width: 1235
Flags: W
TeX: 117 0 0 0
Fore
657 602 m 2,0,-1
 618 602 l 1,1,-1
 618 0 l 1,2,-1
 416 0 l 1,3,-1
 416 768 l 1,4,-1
 657 768 l 2,5,6
 798 768 798 768 875 840.5 c 128,-1,7
 952 913 952 913 952 1048 c 0,8,9
 952 1184 952 1184 875 1255.5 c 128,-1,10
 798 1327 798 1327 657 1327 c 2,11,-1
 403 1327 l 2,12,13
 334 1327 334 1327 246.5 1306 c 128,-1,14
 159 1285 159 1285 80 1241 c 1,15,-1
 80 1423 l 1,16,17
 232 1493 232 1493 403 1493 c 2,18,-1
 657 1493 l 2,19,20
 901 1493 901 1493 1033 1383 c 128,-1,21
 1165 1273 1165 1273 1165 1048 c 0,22,23
 1165 833.012 1165 833.012 1032.44 717.506 c 128,-1,24
 899.872 602 899.872 602 657 602 c 2,0,-1
EndSplineSet
EndChar
StartChar: uni0242
Encoding: 578 578 578
Width: 981
Flags: W
TeX: 117 0 0 0
Fore
303 422 m 1,0,-1
 403 422 l 2,1,2
 544 422 544 422 621 494.5 c 128,-1,3
 698 567 698 567 698 702 c 0,4,5
 698 843 698 843 622 908 c 0,6,7
 537.265 980.335 537.265 980.335 403 980.335 c 0,8,9
 330.267 980.335 330.267 980.335 244 959 c 0,10,11
 158 938 158 938 80 895 c 1,12,-1
 80 1077 l 1,13,14
 232 1147 232 1147 403 1147 c 0,15,16
 654.167 1147 654.167 1147 779 1037 c 0,17,18
 911 920.685 911 920.685 911 702 c 0,19,20
 911 489.037 911 489.037 804.938 374.519 c 128,-1,21
 698.875 260 698.875 260 505 260 c 1,22,-1
 505 0 l 1,23,-1
 303 0 l 1,24,-1
 303 422 l 1,0,-1
EndSplineSet
EndChar
StartChar: uni0243
Encoding: 579 579 579
Width: 1405
Flags: W
TeX: 0 0 0 0
AnchorPoint: "above" 700 1520 basechar 0
AnchorPoint: "below" 700 0 basechar 0
Fore
403 713 m 1,0,-1
 403 512 l 1,1,-1
 750 512 l 1,2,-1
 750 368 l 1,3,-1
 403 368 l 1,4,-1
 403 166 l 1,5,-1
 727 166 l 2,6,7
 890 166 890 166 968.5 233.5 c 128,-1,8
 1047 301 1047 301 1047 440 c 0,9,10
 1047 580 1047 580 968.5 646.5 c 128,-1,11
 890 713 890 713 727 713 c 2,12,-1
 403 713 l 1,0,-1
403 1327 m 1,13,-1
 403 877 l 1,14,-1
 702 877 l 2,15,16
 850 877 850 877 922.5 932.5 c 128,-1,17
 995 988 995 988 995 1102 c 0,18,19
 995 1215 995 1215 922.5 1271 c 128,-1,20
 850 1327 850 1327 702 1327 c 2,21,-1
 403 1327 l 1,13,-1
201 1493 m 1,22,-1
 717 1493 l 2,23,24
 948 1493 948 1493 1073 1397 c 128,-1,25
 1198 1301 1198 1301 1198 1124 c 0,26,27
 1198 987 1198 987 1134 906 c 128,-1,28
 1070 825 1070 825 946 805 c 1,29,30
 1095 773 1095 773 1177.5 671.5 c 128,-1,31
 1260 570 1260 570 1260 418 c 0,32,33
 1260 218 1260 218 1124 109 c 128,-1,34
 988 0 988 0 737 0 c 2,35,-1
 201 0 l 1,36,-1
 201 368 l 1,37,-1
 10 368 l 1,38,-1
 10 512 l 1,39,-1
 201 512 l 1,40,-1
 201 1493 l 1,22,-1
EndSplineSet
EndChar
StartChar: uni0244
Encoding: 580 580 580
Width: 1499
Flags: W
TeX: 0 0 0 0
AnchorPoint: "above" 750 1520 basechar 0
AnchorPoint: "below" 750 0 basechar 0
Fore
178 1493 m 1,0,-1
 381 1493 l 1,1,-1
 381 875 l 1,2,-1
 1118 875 l 1,3,-1
 1118 1493 l 1,4,-1
 1321 1493 l 1,5,-1
 1321 875 l 1,6,-1
 1486 875 l 1,7,-1
 1486 711 l 1,8,-1
 1321 711 l 1,9,-1
 1321 561 l 2,10,11
 1321 269 1321 269 1176.5 120 c 128,-1,12
 1032 -29 1032 -29 750 -29 c 0,13,14
 467 -29 467 -29 322.5 120 c 128,-1,15
 178 269 178 269 178 561 c 2,16,-1
 178 711 l 1,17,-1
 12 711 l 1,18,-1
 12 875 l 1,19,-1
 178 875 l 1,20,-1
 178 1493 l 1,0,-1
1118 711 m 1,21,-1
 381 711 l 1,22,-1
 381 586 l 2,23,24
 381 346 381 346 468 240.5 c 128,-1,25
 555 135 555 135 750 135 c 0,26,27
 944 135 944 135 1031 240.5 c 128,-1,28
 1118 346 1118 346 1118 586 c 2,29,-1
 1118 711 l 1,21,-1
EndSplineSet
EndChar
StartChar: uni0246
Encoding: 582 582 582
Width: 1294
Flags: W
TeX: 0 0 0 0
AnchorPoint: "below" 670 0 basechar 0
AnchorPoint: "above" 670 1520 basechar 0
Fore
952 1683 m 1,0,-1
 1122 1683 l 1,1,-1
 1057.08 1493 l 1,2,-1
 1145 1493 l 1,3,-1
 1145 1323 l 1,4,-1
 998.989 1323 l 1,5,-1
 847.958 881 l 1,6,-1
 1114 881 l 1,7,-1
 1114 711 l 1,8,-1
 789.87 711 l 1,9,-1
 605.011 170 l 1,10,-1
 1163 170 l 1,11,-1
 1163 0 l 1,12,-1
 546.923 2.08167e-14 l 1,13,-1
 482 -190 l 1,14,-1
 312 -190 l 1,15,-1
 376.923 -5.17641e-15 l 1,16,-1
 201 0 l 1,17,-1
 201 1493 l 1,18,-1
 887.077 1493 l 1,19,-1
 952 1683 l 1,0,-1
435.011 170 m 1,20,-1
 619.87 711 l 1,21,-1
 403 711 l 1,22,-1
 403 170 l 1,23,-1
 435.011 170 l 1,20,-1
677.958 881 m 1,24,-1
 828.989 1323 l 1,25,-1
 403 1323 l 1,26,-1
 403 881 l 1,27,-1
 677.958 881 l 1,24,-1
EndSplineSet
EndChar
StartChar: uni0247
Encoding: 583 583 583
Width: 1260
Flags: W
TeX: 0 0 0 0
AnchorPoint: "below" 660 0 basechar 0
AnchorPoint: "above" 653 1147 basechar 0
Fore
967 660 m 1,0,1
 965 811 965 811 882.5 901 c 0,2,3
 868.014 916.803 868.014 916.803 851.878 929.832 c 1,4,-1
 740.925 659.655 l 1,5,-1
 967 660 l 1,0,1
1151 606 m 2,6,-1
 1151 516 l 1,7,-1
 681.931 516 l 1,8,-1
 533.656 154.941 l 1,9,10
 608.025 127 608.025 127 705 127 c 0,11,12
 811 127 811 127 910.5 153 c 128,-1,13
 1010 179 1010 179 1108 231 c 1,14,-1
 1108 57 l 1,15,16
 1009 15 1009 15 905 -7 c 128,-1,17
 801 -29 801 -29 694 -29 c 0,18,19
 571.068 -29 571.068 -29 471.597 3.82337 c 1,20,-1
 392 -190 l 1,21,-1
 222 -190 l 1,22,-1
 330.796 74.9247 l 1,23,24
 298.265 98.3274 298.265 98.3274 269.5 127 c 0,25,26
 113 283 113 283 113 549 c 0,27,28
 113 824 113 824 261.5 985.5 c 128,-1,29
 410 1147 410 1147 662 1147 c 0,30,31
 717.582 1147 717.582 1147 767.447 1138.2 c 1,32,-1
 838 1310 l 1,33,-1
 1008 1310 l 1,34,-1
 915.827 1085.55 l 1,35,36
 973.456 1052.45 973.456 1052.45 1019.5 1001.5 c 0,37,38
 1151 856 1151 856 1151 606 c 2,6,-1
570.819 659.396 m 1,39,-1
 706.056 988.707 l 1,40,41
 685.709 991 685.709 991 664 991 c 0,42,43
 510 991 510 991 417.5 904 c 128,-1,44
 325 817 325 817 311 659 c 1,45,-1
 570.819 659.396 l 1,39,-1
401.046 245.987 m 1,46,-1
 511.931 516 l 1,47,-1
 305 516 l 1,48,49
 315.873 343.844 315.873 343.844 401.046 245.987 c 1,46,-1
EndSplineSet
EndChar
StartChar: uni0248
Encoding: 584 584 584
Width: 604
Flags: W
TeX: 0 0 0 0
AnchorPoint: "below" 302 -430 basechar 0
AnchorPoint: "above" 302 1520 basechar 0
Fore
594 631 m 1,0,-1
 403 631 l 1,1,-1
 403 104 l 2,2,3
 403 -166 403 -166 300.5 -288 c 128,-1,4
 198 -410 198 -410 -29 -410 c 2,5,-1
 -106 -410 l 1,6,-1
 -106 -240 l 1,7,-1
 -43 -240 l 2,8,9
 91 -240 91 -240 146 -165 c 128,-1,10
 201 -90 201 -90 201 104 c 2,11,-1
 201 631 l 1,12,-1
 10 631 l 1,13,-1
 10 797 l 1,14,-1
 201 797 l 1,15,-1
 201 1493 l 1,16,-1
 403 1493 l 1,17,-1
 403 797 l 1,18,-1
 594 797 l 1,19,-1
 594 631 l 1,0,-1
EndSplineSet
EndChar
StartChar: uni0249
Encoding: 585 585 585
Width: 569
Flags: W
TeX: 0 0 0 0
AnchorPoint: "above" 287 1583 basechar 0
AnchorPoint: "below" 287 -430 basechar 0
Fore
193 1120 m 1,0,-1
 377 1120 l 1,1,-1
 377 616 l 1,2,-1
 540 616 l 1,3,-1
 540 452 l 1,4,-1
 377 452 l 1,5,-1
 377 -20 l 2,6,7
 377 -234 377 -234 295.5 -330 c 128,-1,8
 214 -426 214 -426 33 -426 c 2,9,-1
 -37 -426 l 1,10,-1
 -37 -270 l 1,11,-1
 12 -270 l 2,12,13
 117 -270 117 -270 155 -221.5 c 128,-1,14
 193 -173 193 -173 193 -20 c 2,15,-1
 193 452 l 1,16,-1
 12 452 l 1,17,-1
 12 616 l 1,18,-1
 193 616 l 1,19,-1
 193 1120 l 1,0,-1
193 1556 m 1,20,-1
 377 1556 l 1,21,-1
 377 1323 l 1,22,-1
 193 1323 l 1,23,-1
 193 1556 l 1,20,-1
EndSplineSet
Substitution2: "Single Substitution lookup 32" uni025F
EndChar
StartChar: uni024A
Encoding: 586 586 586
Width: 1600
Flags: W
TeX: 117 0 0 0
AnchorPoint: "above" 807 1520 basechar 0
AnchorPoint: "below" 807 0 basechar 0
Fore
1203 1261 m 1,0,-1
 1203 1493 l 1,1,-1
 1399 1493 l 1,2,-1
 1399 104 l 2,3,4
 1399 -90 1399 -90 1454 -165 c 128,-1,5
 1509 -240 1509 -240 1643 -240 c 2,6,-1
 1712 -240 l 1,7,-1
 1712 -410 l 1,8,-1
 1635 -410 l 2,9,10
 1408 -410 1408 -410 1305.5 -288 c 128,-1,11
 1203 -166 1203 -166 1203 104 c 2,12,-1
 1203 231 l 1,13,14
 1126 99 1126 99 1008 35 c 128,-1,15
 890 -29 890 -29 725 -29 c 0,16,17
 455 -29 455 -29 285 184.5 c 128,-1,18
 115 398 115 398 115 746 c 0,19,20
 115 1094 115 1094 285 1307.5 c 128,-1,21
 455 1521 455 1521 725 1521 c 0,22,23
 890 1521 890 1521 1008 1457 c 128,-1,24
 1126 1393 1126 1393 1203 1261 c 1,0,-1
325 745 m 0,25,26
 325 460 325 460 442 297.5 c 128,-1,27
 559 135 559 135 763 135 c 0,28,29
 968 135 968 135 1085.5 297.5 c 128,-1,30
 1203 460 1203 460 1203 745 c 0,31,32
 1203 1030 1203 1030 1085.5 1192.5 c 128,-1,33
 968 1355 968 1355 763 1355 c 0,34,35
 559 1355 559 1355 442 1192.5 c 128,-1,36
 325 1030 325 1030 325 745 c 0,25,26
EndSplineSet
EndChar
StartChar: uni024B
Encoding: 587 587 587
Width: 1300
Flags: W
TeX: 117 0 0 0
Fore
1344 -426 m 1,0,-1
 1274 -426 l 2,1,2
 1093 -426 1093 -426 1011.5 -330 c 128,-1,3
 930 -234 930 -234 930 -20 c 2,4,-1
 930 168 l 1,5,6
 872 68 872 68 783.5 19.5 c 128,-1,7
 695 -29 695 -29 571 -29 c 0,8,9
 368 -29 368 -29 240.5 133 c 128,-1,10
 113 295 113 295 113 559 c 0,11,12
 113 823 113 823 240.5 985 c 128,-1,13
 368 1147 368 1147 571 1147 c 0,14,15
 695 1147 695 1147 783.5 1098.5 c 128,-1,16
 872 1050 872 1050 930 950 c 1,17,-1
 930 1120 l 1,18,-1
 1114 1120 l 1,19,-1
 1114 -20 l 2,20,21
 1114 -173 1114 -173 1152 -221.5 c 128,-1,22
 1190 -270 1190 -270 1295 -270 c 2,23,-1
 1344 -270 l 1,24,-1
 1344 -426 l 1,0,-1
303 559 m 0,25,26
 303 356 303 356 386.5 240.5 c 128,-1,27
 470 125 470 125 616 125 c 0,28,29
 762 125 762 125 846 240.5 c 128,-1,30
 930 356 930 356 930 559 c 0,31,32
 930 762 930 762 846 877.5 c 128,-1,33
 762 993 762 993 616 993 c 0,34,35
 470 993 470 993 386.5 877.5 c 128,-1,36
 303 762 303 762 303 559 c 0,25,26
EndSplineSet
EndChar
StartChar: uni024C
Encoding: 588 588 588
Width: 1423
Flags: W
TeX: 0 0 0 0
AnchorPoint: "above" 637 1520 basechar 0
AnchorPoint: "below" 637 0 basechar 0
Fore
909 700 m 1,0,1
 974 678 974 678 1035.5 606 c 128,-1,2
 1097 534 1097 534 1159 408 c 1,3,-1
 1364 0 l 1,4,-1
 1147 0 l 1,5,-1
 956 383 l 1,6,7
 882 533 882 533 812.5 582 c 128,-1,8
 743 631 743 631 623 631 c 2,9,-1
 403 631 l 1,10,-1
 403 0 l 1,11,-1
 201 0 l 9,12,-1
 201 631 l 17,13,-1
 10 631 l 1,14,-1
 10 797 l 1,15,-1
 201 797 l 9,16,-1
 201 1493 l 17,17,-1
 657 1493 l 2,18,19
 913 1493 913 1493 1039 1386 c 128,-1,20
 1165 1279 1165 1279 1165 1063 c 0,21,22
 1165 922 1165 922 1099.5 829 c 128,-1,23
 1034 736 1034 736 909 700 c 1,0,1
403 1327 m 1,24,-1
 403 797 l 1,25,-1
 657 797 l 2,26,27
 803 797 803 797 877.5 864.5 c 128,-1,28
 952 932 952 932 952 1063 c 0,29,30
 952 1194 952 1194 877.5 1260.5 c 128,-1,31
 803 1327 803 1327 657 1327 c 2,32,-1
 403 1327 l 1,24,-1
EndSplineSet
EndChar
StartChar: uni024D
Encoding: 589 589 589
Width: 842
Flags: W
TeX: 0 0 0 0
AnchorPoint: "above" 535 1147 basechar 0
AnchorPoint: "below" 535 0 basechar 0
Fore
542 616 m 1,0,-1
 542 452 l 1,1,-1
 371 452 l 1,2,-1
 371 0 l 1,3,-1
 186 0 l 1,4,-1
 186 452 l 1,5,-1
 14 452 l 1,6,-1
 14 616 l 1,7,-1
 186 616 l 1,8,-1
 186 1120 l 1,9,-1
 371 1120 l 1,10,-1
 371 946 l 1,11,12
 429 1048 429 1048 522 1097.5 c 128,-1,13
 615 1147 615 1147 748 1147 c 0,14,15
 767 1147 767 1147 790 1144.5 c 128,-1,16
 813 1142 813 1142 841 1137 c 1,17,-1
 842 948 l 1,18,19
 811 966 811 966 774.5 974.5 c 128,-1,20
 738 983 738 983 694 983 c 0,21,22
 538 983 538 983 454.5 880 c 128,-1,23
 371 777 371 777 371 616 c 1,24,-1
 542 616 l 1,0,-1
EndSplineSet
EndChar
StartChar: uni024E
Encoding: 590 590 590
Width: 1251
Flags: W
TeX: 117 0 0 0
AnchorPoint: "below" 626 0 basechar 0
AnchorPoint: "above" 626 1520 basechar 0
Fore
-4 1493 m 1,0,-1
 213 1493 l 1,1,-1
 364 1269 l 1,2,-1
 888 1269 l 1,3,-1
 1038 1493 l 1,4,-1
 1255 1493 l 1,5,-1
 1104 1269 l 1,6,-1
 1260 1269 l 1,7,-1
 1260 1105 l 1,8,-1
 993 1105 l 1,9,-1
 727 711 l 1,10,-1
 727 0 l 1,11,-1
 524 0 l 1,12,-1
 524 711 l 1,13,-1
 258 1105 l 1,14,-1
 -10 1105 l 1,15,-1
 -10 1269 l 1,16,-1
 147 1269 l 1,17,-1
 -4 1493 l 1,0,-1
778 1105 m 1,18,-1
 475 1105 l 1,19,-1
 627 879 l 1,20,-1
 778 1105 l 1,18,-1
EndSplineSet
EndChar
StartChar: uni024F
Encoding: 591 591 591
Width: 1212
Flags: W
TeX: 117 0 0 0
AnchorPoint: "below" 608 -430 basechar 0
AnchorPoint: "above" 608 1147 basechar 0
Fore
659 -104 m 2,0,1
 581 -304 581 -304 507 -365 c 0,2,3
 433 -426 433 -426 309 -426 c 2,4,-1
 162 -426 l 1,5,-1
 162 -272 l 1,6,-1
 270 -272 l 2,7,8
 346 -272 346 -272 388 -236 c 0,9,10
 430 -200 430 -200 481 -66 c 2,11,-1
 514 18 l 1,12,-1
 309 516 l 1,13,-1
 11 516 l 1,14,-1
 11 659 l 1,15,-1
 251 659 l 1,16,-1
 61 1120 l 1,17,-1
 256 1120 l 1,18,-1
 440 659 l 1,19,-1
 772 659 l 1,20,-1
 956 1120 l 1,21,-1
 1151 1120 l 1,22,-1
 966 659 l 1,23,-1
 1205 659 l 1,24,-1
 1205 516 l 1,25,-1
 908 516 l 1,26,-1
 659 -104 l 2,0,1
715 516 m 1,27,-1
 497 516 l 1,28,-1
 606 244 l 1,29,-1
 715 516 l 1,27,-1
EndSplineSet
EndChar
StartChar: uni0250
Encoding: 592 592 592
Width: 1229
Flags: W
AnchorPoint: "above" 647 1147 basechar 0
AnchorPoint: "below" 647 0 basechar 0
Fore
541 555 m 2,0,1
 764 555 764 555 850 606 c 128,-1,2
 936 657 936 657 936 780 c 0,3,4
 936 878 936 878 871 936 c 0,5,6
 807 993 807 993 696 993 c 0,7,8
 543 993 543 993 451 884 c 0,9,10
 358 776 358 776 358 596 c 2,11,-1
 358 555 l 1,12,-1
 541 555 l 2,0,1
174 479 m 2,13,-1
 174 1118 l 1,14,-1
 358 1118 l 1,15,-1
 358 948 l 1,16,17
 421 1050 421 1050 515 1098 c 0,18,19
 609 1147 609 1147 745 1147 c 0,20,21
 917 1147 917 1147 1019 1050 c 0,22,23
 1120 954 1120 954 1120 792 c 0,24,25
 1120 603 1120 603 993 507 c 0,26,27
 867 411 867 411 616 411 c 2,28,-1
 358 411 l 1,29,-1
 358 393 l 2,30,31
 358 266 358 266 441 196 c 0,32,33
 525 127 525 127 676 127 c 0,34,35
 772 127 772 127 863 150 c 128,-1,36
 954 173 954 173 1038 219 c 1,37,-1
 1038 49 l 1,38,39
 937 10 937 10 842 -10 c 0,40,41
 747 -29 747 -29 657 -29 c 0,42,43
 414 -29 414 -29 294 97 c 128,-1,44
 174 223 174 223 174 479 c 2,13,-1
EndSplineSet
EndChar
StartChar: uni0251
Encoding: 593 593 593
Width: 1300
Flags: W
TeX: 0 0 0 0
AnchorPoint: "below" 596 0 basechar 0
AnchorPoint: "above" 596 1147 basechar 0
Fore
930 950 m 1,0,-1
 930 1120 l 1,1,-1
 1114 1120 l 1,2,-1
 1114 0 l 1,3,-1
 930 0 l 1,4,-1
 930 168 l 1,5,6
 872 68 872 68 783.5 19.5 c 128,-1,7
 695 -29 695 -29 571 -29 c 0,8,9
 368 -29 368 -29 240.5 133 c 128,-1,10
 113 295 113 295 113 559 c 0,11,12
 113 823 113 823 240.5 985 c 128,-1,13
 368 1147 368 1147 571 1147 c 0,14,15
 695 1147 695 1147 783.5 1098.5 c 128,-1,16
 872 1050 872 1050 930 950 c 1,0,-1
303 559 m 0,17,18
 303 356 303 356 386.5 240.5 c 128,-1,19
 470 125 470 125 616 125 c 0,20,21
 762 125 762 125 846 240.5 c 128,-1,22
 930 356 930 356 930 559 c 0,23,24
 930 762 930 762 846 877.5 c 128,-1,25
 762 993 762 993 616 993 c 0,26,27
 470 993 470 993 386.5 877.5 c 128,-1,28
 303 762 303 762 303 559 c 0,17,18
EndSplineSet
EndChar
StartChar: uni0252
Encoding: 594 594 594
Width: 1300
Flags: W
TeX: 0 0 0 0
AnchorPoint: "below" 726 0 basechar 0
AnchorPoint: "above" 726 1147 basechar 0
Fore
997 559 m 0,0,1
 997 762 997 762 913.5 877.5 c 128,-1,2
 830 993 830 993 684 993 c 0,3,4
 538 993 538 993 454 877.5 c 128,-1,5
 370 762 370 762 370 559 c 0,6,7
 370 356 370 356 454 240.5 c 128,-1,8
 538 125 538 125 684 125 c 0,9,10
 830 125 830 125 913.5 240.5 c 128,-1,11
 997 356 997 356 997 559 c 0,0,1
370 950 m 1,12,13
 428 1050 428 1050 516.5 1098.5 c 128,-1,14
 605 1147 605 1147 729 1147 c 0,15,16
 932 1147 932 1147 1059.5 985 c 128,-1,17
 1187 823 1187 823 1187 559 c 0,18,19
 1187 295 1187 295 1059.5 133 c 128,-1,20
 932 -29 932 -29 729 -29 c 0,21,22
 605 -29 605 -29 516.5 19.5 c 128,-1,23
 428 68 428 68 370 168 c 1,24,-1
 370 -2 l 1,25,-1
 186 -2 l 1,26,-1
 186 1118 l 1,27,-1
 370 1118 l 1,28,-1
 370 950 l 1,12,13
EndSplineSet
EndChar
StartChar: uni0253
Encoding: 595 595 595
Width: 1300
Flags: W
TeX: 0 0 0 0
AnchorPoint: "below" 653 0 basechar 0
AnchorPoint: "above" 278 1520 basechar 0
Fore
997 559 m 0,0,1
 997 762 997 762 913.5 877.5 c 128,-1,2
 830 993 830 993 684 993 c 0,3,4
 538 993 538 993 454.5 877.5 c 128,-1,5
 371 762 371 762 371 559 c 0,6,7
 371 356 371 356 454.5 240.5 c 128,-1,8
 538 125 538 125 684 125 c 0,9,10
 830 125 830 125 913.5 240.5 c 128,-1,11
 997 356 997 356 997 559 c 0,0,1
371 950 m 1,12,13
 429 1050 429 1050 517.5 1098.5 c 128,-1,14
 606 1147 606 1147 729 1147 c 0,15,16
 933 1147 933 1147 1060.5 985 c 128,-1,17
 1188 823 1188 823 1188 559 c 0,18,19
 1188 295 1188 295 1060.5 133 c 128,-1,20
 933 -29 933 -29 729 -29 c 0,21,22
 606 -29 606 -29 517.5 19.5 c 128,-1,23
 429 68 429 68 371 168 c 1,24,-1
 371 0 l 1,25,-1
 186 0 l 1,26,-1
 186 1150 l 2,27,28
 186 1364 186 1364 268 1460 c 0,29,30
 349 1556 349 1556 530 1556 c 2,31,-1
 784 1556 l 1,32,-1
 784 1400 l 1,33,-1
 551 1400 l 2,34,35
 442 1400 442 1400 408 1352 c 0,36,37
 370 1300 370 1300 370 1150 c 2,38,-1
 371 950 l 1,12,13
EndSplineSet
EndChar
StartChar: uni0254
Encoding: 596 596 596
Width: 1125
Flags: W
AnchorPoint: "below" 447 0 basechar 0
AnchorPoint: "above" 447 1147 basechar 0
Fore
127 1077 m 1,0,1
 203 1112 203 1112 284 1130 c 0,2,3
 365 1147 365 1147 450 1147 c 0,4,5
 712 1147 712 1147 862 990 c 0,6,7
 1013 833 1013 833 1013 559 c 0,8,9
 1013 289 1013 289 864 130 c 128,-1,10
 715 -29 715 -29 462 -29 c 0,11,12
 369 -29 369 -29 286 -11 c 0,13,14
 204 7 204 7 127 43 c 1,15,-1
 127 213 l 1,16,17
 205 170 205 170 284 148 c 0,18,19
 362 127 362 127 442 127 c 0,20,21
 621 127 621 127 720 240 c 0,22,23
 819 354 819 354 819 559 c 0,24,25
 819 764 819 764 720 878 c 0,26,27
 621 991 621 991 442 991 c 0,28,29
 362 991 362 991 284 970 c 0,30,31
 205 948 205 948 127 905 c 1,32,-1
 127 1077 l 1,0,1
EndSplineSet
EndChar
StartChar: uni0255
Encoding: 597 597 597
Width: 1126
Flags: W
TeX: 0 0 0 0
AnchorPoint: "below" 678 0 basechar 0
AnchorPoint: "above" 678 1147 basechar 0
Fore
998.979 1077 m 1,0,-1
 998.979 905 l 1,1,2
 920.99 948 920.99 948 842.479 969.5 c 128,-1,3
 763.99 991 763.99 991 683.979 991 c 0,4,5
 504.98 991 504.98 991 405.979 877.5 c 128,-1,6
 306.979 764 306.979 764 306.979 559 c 24,7,8
 306.979 354 306.979 354 406 240 c 0,9,10
 412.611 232.389 412.611 232.389 419 226 c 1,11,12
 457.646 306.974 457.646 306.974 520 350.693 c 0,13,14
 593.175 402 593.175 402 699 402 c 0,15,16
 861.523 402 861.523 402 936 329.803 c 0,17,18
 999 268.731 999 268.731 999 180 c 0,19,20
 999 55.0511 999 55.0511 904 8.02117 c 0,21,22
 821.138 -33 821.138 -33 666 -33 c 0,23,24
 586 -33 586 -33 513 -16 c 1,25,26
 507 -73 507 -73 507 -141 c 1,27,-1
 354 -141 l 1,28,29
 354 -37 354 -37 366 44 c 1,30,31
 309.461 78.7171 309.461 78.7171 262 130 c 0,32,33
 113 291 113 291 113 559 c 24,34,35
 113 833 113 833 263.5 990 c 128,-1,36
 414 1147 414 1147 676 1147 c 0,37,38
 761.011 1147 761.011 1147 842 1129.5 c 128,-1,39
 922.99 1112 922.99 1112 998.979 1077 c 1,0,-1
549 146 m 1,40,41
 607 127 607 127 684 127 c 0,42,43
 830 127 830 127 830 184 c 0,44,45
 830 259 830 259 698 259 c 0,46,47
 597 259 597 259 549 146 c 1,40,41
EndSplineSet
EndChar
StartChar: uni0256
Encoding: 598 598 598
Width: 1300
Flags: W
TeX: 0 0 0 0
AnchorPoint: "below" 596 -430 basechar 0
AnchorPoint: "above" 1022 1520 basechar 0
Fore
1344 -426 m 1,0,-1
 1274 -426 l 2,1,2
 1093 -426 1093 -426 1011.5 -330 c 128,-1,3
 930 -234 930 -234 930 -20 c 2,4,-1
 930 168 l 1,5,6
 872 68 872 68 783.5 19.5 c 128,-1,7
 695 -29 695 -29 571 -29 c 0,8,9
 368 -29 368 -29 240.5 133 c 128,-1,10
 113 295 113 295 113 559 c 0,11,12
 113 823 113 823 240.5 985 c 128,-1,13
 368 1147 368 1147 571 1147 c 0,14,15
 695 1147 695 1147 783.5 1098.5 c 128,-1,16
 872 1050 872 1050 930 950 c 1,17,-1
 930 1556 l 1,18,-1
 1114 1556 l 1,19,-1
 1114 -20 l 2,20,21
 1114 -173 1114 -173 1152 -221.5 c 128,-1,22
 1190 -270 1190 -270 1295 -270 c 2,23,-1
 1344 -270 l 1,24,-1
 1344 -426 l 1,0,-1
303 559 m 0,25,26
 303 356 303 356 386.5 240.5 c 128,-1,27
 470 125 470 125 616 125 c 0,28,29
 762 125 762 125 846 240.5 c 128,-1,30
 930 356 930 356 930 559 c 0,31,32
 930 762 930 762 846 877.5 c 128,-1,33
 762 993 762 993 616 993 c 0,34,35
 470 993 470 993 386.5 877.5 c 128,-1,36
 303 762 303 762 303 559 c 0,25,26
EndSplineSet
EndChar
StartChar: uni0257
Encoding: 599 599 599
Width: 1426
Flags: W
TeX: 0 0 0 0
AnchorPoint: "below" 596 0 basechar 0
AnchorPoint: "above" 1022 1520 basechar 0
Fore
930 950 m 1,0,-1
 930 1150 l 2,1,2
 930 1364 930 1364 1011.5 1460 c 128,-1,3
 1093 1556 1093 1556 1274 1556 c 2,4,-1
 1465 1556 l 1,5,-1
 1465 1400 l 1,6,-1
 1295 1400 l 2,7,8
 1190 1400 1190 1400 1152 1351.5 c 128,-1,9
 1114 1303 1114 1303 1114 1150 c 2,10,-1
 1114 0 l 1,11,-1
 930 0 l 1,12,-1
 930 168 l 1,13,14
 872 68 872 68 783.5 19.5 c 128,-1,15
 695 -29 695 -29 571 -29 c 0,16,17
 368 -29 368 -29 240.5 133 c 128,-1,18
 113 295 113 295 113 559 c 0,19,20
 113 823 113 823 240.5 985 c 128,-1,21
 368 1147 368 1147 571 1147 c 0,22,23
 695 1147 695 1147 783.5 1098.5 c 128,-1,24
 872 1050 872 1050 930 950 c 1,0,-1
303 559 m 0,25,26
 303 356 303 356 386.5 240.5 c 128,-1,27
 470 125 470 125 616 125 c 0,28,29
 762 125 762 125 846 240.5 c 128,-1,30
 930 356 930 356 930 559 c 0,31,32
 930 762 930 762 846 877.5 c 128,-1,33
 762 993 762 993 616 993 c 0,34,35
 470 993 470 993 386.5 877.5 c 128,-1,36
 303 762 303 762 303 559 c 0,25,26
EndSplineSet
EndChar
StartChar: uni0258
Encoding: 600 600 600
Width: 1260
Flags: W
AnchorPoint: "below" 611 0 basechar 0
AnchorPoint: "above" 611 1147 basechar 0
Fore
113 606 m 2,0,1
 113 856 113 856 244 1002 c 0,2,3
 376 1147 376 1147 602 1147 c 0,4,5
 854 1147 854 1147 1002 986 c 0,6,7
 1151 824 1151 824 1151 549 c 0,8,9
 1151 283 1151 283 994 127 c 0,10,11
 838 -29 838 -29 570 -29 c 0,12,13
 463 -29 463 -29 359 -7 c 128,-1,14
 255 15 255 15 156 57 c 1,15,-1
 156 231 l 1,16,17
 254 179 254 179 354 153 c 0,18,19
 453 127 453 127 559 127 c 0,20,21
 742 127 742 127 844 226 c 0,22,23
 947 326 947 326 959 516 c 1,24,-1
 113 516 l 1,25,-1
 113 606 l 2,0,1
297 660 m 1,26,-1
 953 659 l 1,27,28
 939 817 939 817 846 904 c 0,29,30
 754 991 754 991 600 991 c 0,31,32
 464 991 464 991 382 901 c 0,33,34
 299 811 299 811 297 660 c 1,26,-1
EndSplineSet
EndChar
StartChar: uni0259
Encoding: 601 601 601
Width: 1260
Flags: W
AnchorPoint: "below" 594 0 basechar 0
AnchorPoint: "above" 594 1147 basechar 0
Fore
113 512 m 2,0,-1
 113 602 l 1,1,-1
 959 602 l 1,2,3
 947 792 947 792 844.5 891.5 c 128,-1,4
 742 991 742 991 559 991 c 0,5,6
 453 991 453 991 353.5 965 c 128,-1,7
 254 939 254 939 156 887 c 1,8,-1
 156 1061 l 1,9,10
 255 1103 255 1103 359 1125 c 128,-1,11
 463 1147 463 1147 570 1147 c 0,12,13
 838 1147 838 1147 994.5 991 c 128,-1,14
 1151 835 1151 835 1151 569 c 0,15,16
 1151 294 1151 294 1002.5 132.5 c 128,-1,17
 854 -29 854 -29 602 -29 c 0,18,19
 376 -29 376 -29 244.5 116.5 c 128,-1,20
 113 262 113 262 113 512 c 2,0,-1
297 458 m 1,21,22
 299 307 299 307 381.5 217 c 128,-1,23
 464 127 464 127 600 127 c 0,24,25
 754 127 754 127 846.5 214 c 128,-1,26
 939 301 939 301 953 459 c 1,27,-1
 297 458 l 1,21,22
EndSplineSet
EndChar
StartChar: uni025A
Encoding: 602 602 602
Width: 1678
Flags: W
TeX: 0 0 0 0
AnchorPoint: "above" 594 1147 basechar 0
AnchorPoint: "below" 594 0 basechar 0
Fore
846 214 m 1,0,1
 948.001 352.001 948.001 352.001 946 559 c 0,2,3
 946.631 621.088 946.631 621.088 936.732 677.116 c 1,4,-1
 319.812 320.668 l 1,5,6
 349.718 252.429 349.718 252.429 382 217 c 0,7,8
 463.999 127 463.999 127 600 127 c 0,9,10
 767.666 127 767.666 127 846 214 c 1,0,1
1120.18 783.111 m 1,11,12
 1151 686.852 1151 686.852 1151 569 c 0,13,14
 1151 293.999 1151 293.999 1002 132 c 0,15,16
 854.002 -29 854.002 -29 602 -29 c 0,17,18
 374.102 -29 374.102 -29 244 116 c 0,19,20
 151.638 219.33 151.638 219.33 124.375 375.314 c 1,21,-1
 890.361 818.253 l 1,22,23
 870.665 857.132 870.665 857.132 844 892 c 0,24,25
 768.338 991.984 768.338 991.984 559 991 c 0,26,27
 451.069 990.493 451.069 990.493 354 965 c 0,28,29
 254.001 938.999 254.001 938.999 156 887 c 1,30,-1
 156 1061 l 1,31,32
 255.006 1103 255.006 1103 359 1125 c 128,-1,33
 463.006 1147 463.006 1147 570 1147 c 0,34,35
 838 1147 838 1147 994 991 c 0,36,37
 1029.57 955.655 1029.57 955.655 1057.08 914.662 c 1,38,-1
 1260 1032 l 1,39,-1
 1444 1032 l 1,40,-1
 1444 884 l 2,41,42
 1444 730.998 1444 730.998 1482 682 c 0,43,44
 1520 634 1520 634 1625 634 c 2,45,-1
 1668 634 l 1,46,-1
 1668 478 l 1,47,-1
 1604 478 l 2,48,49
 1429.47 478 1429.47 478 1342 574 c 0,50,51
 1260 664 1260 664 1260.18 864 c 1,52,-1
 1120.18 783.111 l 1,11,12
EndSplineSet
EndChar
StartChar: uni025D
Encoding: 605 605 605
Width: 1588
Flags: W
TeX: 0 0 0 0
AnchorPoint: "above" 576 1147 basechar 0
AnchorPoint: "below" 576 0 basechar 0
Fore
706 604 m 1,0,1
 830 580 830 580 899 507 c 128,-1,2
 968 434 968 434 968 326 c 0,3,4
 968 153 968 153 839 62 c 128,-1,5
 710 -29 710 -29 472 -29 c 0,6,7
 392 -29 392 -29 307 -15 c 0,8,9
 223 -1 223 -1 133 27 c 1,10,-1
 133 198 l 1,11,12
 204 161 204 161 289 142 c 0,13,14
 374 124 374 124 467 124 c 0,15,16
 618 124 618 124 703 180 c 0,17,18
 787 236 787 236 787 326 c 0,19,20
 787 414 787 414 709 470 c 0,21,22
 637.054 521 637.054 521 500 521 c 2,23,-1
 352 521 l 1,24,-1
 352 673 l 1,25,-1
 507 673 l 2,26,27
 623 673 623 673 690 717 c 0,28,29
 758 762 758 762 758 832 c 0,30,31
 758 896 758 896 688 942 c 0,32,33
 619 988 619 988 500 988 c 0,34,35
 429 988 429 988 348 975 c 0,36,37
 268 962 268 962 171 933 c 1,38,-1
 171 1100 l 1,39,40
 269 1124 269 1124 354 1136 c 128,-1,41
 439 1148 439 1148 515 1148 c 0,42,43
 711 1148 711 1148 824 1070 c 0,44,45
 918.526 1004.36 918.526 1004.36 934 897.5 c 1,46,-1
 1170 1032 l 1,47,-1
 1354 1032 l 1,48,-1
 1354 884 l 2,49,50
 1354 730.998 1354 730.998 1392 682 c 0,51,52
 1430 634 1430 634 1535 634 c 2,53,-1
 1578 634 l 1,54,-1
 1578 478 l 1,55,-1
 1514 478 l 2,56,57
 1339.47 478 1339.47 478 1252 574 c 0,58,59
 1170 664 1170 664 1170.18 864 c 1,60,-1
 882 698 l 17,61,62
 817.891 628 817.891 628 706 604 c 1,0,1
EndSplineSet
EndChar
StartChar: uni025E
Encoding: 606 606 606
Width: 1360
Flags: W
TeX: 0 0 0 0
AnchorPoint: "below" 750 0 basechar 0
AnchorPoint: "above" 750 1147 basechar 0
Fore
753 988 m 24,0,1
 502.383 988 502.383 988 406 877.5 c 0,2,3
 307 764 307 764 307 559 c 0,4,5
 307 351.109 307 351.109 406 240.5 c 0,6,7
 509.965 124 509.965 124 720 124 c 24,8,9
 871 124 871 124 956 180 c 0,10,11
 1040 236 1040 236 1040 326 c 0,12,13
 1040 414 1040 414 962 470 c 0,14,15
 890.054 521 890.054 521 753 521 c 2,16,-1
 605 521 l 1,17,-1
 605 673 l 1,18,-1
 760 673 l 2,19,20
 876 673 876 673 943 717 c 0,21,22
 1011 762 1011 762 1011 832 c 0,23,24
 1011 896 1011 896 941 942 c 0,25,26
 872 988 872 988 753 988 c 24,0,1
768 1148 m 24,27,28
 964 1148 964 1148 1077 1070 c 0,29,30
 1191 991 1191 991 1191 850 c 0,31,32
 1191 757 1191 757 1131 693 c 0,33,34
 1071 628 1071 628 959 604 c 1,35,36
 1083 580 1083 580 1152 507 c 128,-1,37
 1221 434 1221 434 1221 326 c 0,38,39
 1221 153 1221 153 1092 62 c 128,-1,40
 963 -29 963 -29 725 -29 c 24,41,42
 411 -29 411 -29 262 130 c 128,-1,43
 113 289 113 289 113 559 c 0,44,45
 113 833 113 833 263.5 990 c 0,46,47
 414.959 1148 414.959 1148 768 1148 c 24,27,28
EndSplineSet
EndChar
StartChar: uni025F
Encoding: 607 607 607
Width: 569
Flags: W
AnchorPoint: "above" 287 1147 basechar 0
AnchorPoint: "below" 287 -430 basechar 0
Fore
193 1120 m 1,0,-1
 377 1120 l 1,1,-1
 377 616 l 1,2,-1
 540 616 l 1,3,-1
 540 452 l 1,4,-1
 377 452 l 1,5,-1
 377 -20 l 2,6,7
 377 -234 377 -234 295.5 -330 c 128,-1,8
 214 -426 214 -426 33 -426 c 2,9,-1
 -37 -426 l 1,10,-1
 -37 -270 l 1,11,-1
 12 -270 l 2,12,13
 117 -270 117 -270 155 -221.5 c 128,-1,14
 193 -173 193 -173 193 -20 c 2,15,-1
 193 452 l 1,16,-1
 12 452 l 1,17,-1
 12 616 l 1,18,-1
 193 616 l 1,19,-1
 193 1120 l 1,0,-1
EndSplineSet
EndChar
StartChar: uni0260
Encoding: 608 608 608
Width: 1425
Flags: W
TeX: 0 0 0 0
AnchorPoint: "below" 618 -430 basechar 0
AnchorPoint: "above" 618 1520 basechar 0
Fore
930 573 m 0,0,1
 930 773 930 773 847.5 883 c 128,-1,2
 765 993 765 993 616 993 c 0,3,4
 468 993 468 993 385.5 883 c 128,-1,5
 303 773 303 773 303 573 c 0,6,7
 303 374 303 374 385.5 264 c 128,-1,8
 468 154 468 154 616 154 c 0,9,10
 765 154 765 154 847.5 264 c 128,-1,11
 930 374 930 374 930 573 c 0,0,1
1114 139 m 2,12,13
 1114 -147 1114 -147 987 -286.5 c 128,-1,14
 860 -426 860 -426 598 -426 c 0,15,16
 501 -426 501 -426 415 -411.5 c 128,-1,17
 329 -397 329 -397 248 -367 c 1,18,-1
 248 -188 l 1,19,20
 329 -232 329 -232 408 -253 c 128,-1,21
 487 -274 487 -274 569 -274 c 0,22,23
 750 -274 750 -274 840 -179.5 c 128,-1,24
 930 -85 930 -85 930 106 c 2,25,-1
 930 197 l 1,26,27
 873 98 873 98 784 49 c 128,-1,28
 695 0 695 0 571 0 c 0,29,30
 365 0 365 0 239 157 c 128,-1,31
 113 314 113 314 113 573 c 0,32,33
 113 833 113 833 239 990 c 128,-1,34
 365 1147 365 1147 571 1147 c 0,35,36
 695 1147 695 1147 784 1098 c 128,-1,37
 873 1049 873 1049 930 950 c 1,38,-1
 930 1150 l 2,39,40
 930 1364 930 1364 1011.5 1460 c 128,-1,41
 1093 1556 1093 1556 1274 1556 c 2,42,-1
 1464 1556 l 1,43,-1
 1464 1400 l 1,44,-1
 1295 1400 l 2,45,46
 1190 1400 1190 1400 1152 1351.5 c 128,-1,47
 1114 1303 1114 1303 1114 1150 c 2,48,-1
 1114 139 l 2,12,13
EndSplineSet
EndChar
StartChar: uni0261
Encoding: 609 609 609
Width: 1300
Flags: W
TeX: 0 0 0 0
AnchorPoint: "below" 618 -430 basechar 0
AnchorPoint: "above" 618 1147 basechar 0
Fore
930 573 m 10,0,-1
 930 965 l 25,1,-1
 588 965 l 2,2,3
 453 965 453 965 378 862.5 c 128,-1,4
 303 760 303 760 303 573 c 0,5,6
 303 374 303 374 385.5 264 c 128,-1,7
 468 154 468 154 616 154 c 0,8,9
 765 154 765 154 847.5 264 c 128,-1,10
 930 374 930 374 930 573 c 10,0,-1
1114 139 m 2,11,12
 1114 -147 1114 -147 987 -286.5 c 128,-1,13
 860 -426 860 -426 598 -426 c 0,14,15
 501 -426 501 -426 415 -411.5 c 128,-1,16
 329 -397 329 -397 248 -367 c 1,17,-1
 248 -188 l 1,18,19
 329 -232 329 -232 408 -253 c 128,-1,20
 487 -274 487 -274 569 -274 c 0,21,22
 750 -274 750 -274 840 -179.5 c 128,-1,23
 930 -85 930 -85 930 106 c 2,24,-1
 930 197 l 1,25,26
 873 98 873 98 784 49 c 128,-1,27
 695 0 695 0 571 0 c 0,28,29
 365 0 365 0 239 157 c 128,-1,30
 113 314 113 314 113 573 c 0,31,32
 113 822 113 822 239 971 c 128,-1,33
 365 1120 365 1120 571 1120 c 1,34,-1
 1114 1120 l 1,35,-1
 1114 139 l 2,11,12
EndSplineSet
EndChar
StartChar: uni0262
Encoding: 610 610 610
Width: 1289
Flags: W
TeX: 0 0 0 0
AnchorPoint: "below" 678 0 basechar 0
AnchorPoint: "above" 678 1147 basechar 0
Fore
937 158 m 0,0,-1
 937 431 l 1,1,-1
 782 431 l 1,2,-1
 782 571 l 1,3,-1
 1103 571 l 1,4,-1
 1103 43 l 1,5,6
 1002 7 1002 7 894.5 -11 c 128,-1,7
 787 -29 787 -29 664 -29 c 24,8,9
 411 -29 411 -29 262 130 c 128,-1,10
 113 289 113 289 113 559 c 0,11,12
 113 833 113 833 263.5 990 c 128,-1,13
 414 1147 414 1147 676 1147 c 0,14,15
 780 1147 780 1147 878.5 1119.5 c 128,-1,16
 977 1092 977 1092 1070 1037 c 1,17,-1
 1070 867 l 1,18,19
 975 929 975 929 879 960 c 128,-1,20
 783 991 783 991 684 991 c 0,21,22
 505 991 505 991 406 877.5 c 128,-1,23
 307 764 307 764 307 559 c 0,24,25
 307 354 307 354 406 240.5 c 128,-1,26
 505 127 505 127 684 127 c 24,27,28
 763 127 763 127 825 134.5 c 128,-1,29
 887 142 887 142 937 158 c 0,0,-1
EndSplineSet
EndChar
StartChar: uni0263
Encoding: 611 611 611
Width: 1220
Flags: W
TeX: 0 0 0 0
AnchorPoint: "below" 610 -430 basechar 0
AnchorPoint: "above" 610 1147 basechar 0
Fore
610 488 m 1,0,-1
 932 1120 l 1,1,-1
 1124 1120 l 1,2,-1
 707 316 l 1,3,4
 812.64 139.222 812.64 139.222 851 56 c 0,5,6
 910 -72 910 -72 910 -171 c 0,7,8
 910 -300.5 910 -300.5 835 -365.25 c 128,-1,9
 760 -430 760 -430 610 -430 c 24,10,11
 460 -430 460 -430 385 -365.25 c 128,-1,12
 310 -300.5 310 -300.5 310 -171 c 0,13,14
 310 -72 310 -72 369 56 c 0,15,16
 407.36 139.222 407.36 139.222 513 316 c 1,17,-1
 96 1120 l 1,18,-1
 288 1120 l 1,19,-1
 610 488 l 1,0,-1
610 -274 m 24,20,21
 676.604 -274 676.604 -274 708 -247.176 c 0,22,23
 736 -223.255 736 -223.255 736 -178 c 0,24,25
 736 -108.736 736 -108.736 708 -36 c 0,26,27
 668 64 668 64 610 163 c 1,28,29
 552 64 552 64 512 -36 c 0,30,31
 484 -108.737 484 -108.737 484 -178 c 0,32,33
 484 -223.255 484 -223.255 512 -247.176 c 0,34,35
 543.396 -274 543.396 -274 610 -274 c 24,20,21
EndSplineSet
EndChar
